<?xml version="1.0" encoding="utf-8"?>
<!-- Generator: Adobe Illustrator 16.0.0, SVG Export Plug-In . SVG Version: 6.00 Build 0)  -->
<!DOCTYPE svg PUBLIC "-//W3C//DTD SVG 1.1//EN" "http://www.w3.org/Graphics/SVG/1.1/DTD/svg11.dtd">
<svg version="1.1" xmlns="http://www.w3.org/2000/svg" xmlns:xlink="http://www.w3.org/1999/xlink" x="0px" y="0px" width="128px"
	 height="100px" viewBox="0 0 128 100" enable-background="new 0 0 128 100" xml:space="preserve">
<g id="R" display="none">
</g>
<g id="FOndo">
</g>
<g id="Layer_3">
</g>
<g id="Layer_1">
	<g>
		<g>
			<path fill="#FFFFFF" d="M70.087,11.045v4.869h4.564l0.914,3.652h16.434v69.389H36.001V19.566h16.435l0.913-3.652h4.564v-4.869
				H70.087z M50.306,28.088l1.521-6.086H38.437v64.52h51.128v-64.52H76.174l1.521,6.086H50.306z M67.652,18.35V13.48h-7.304v4.869
				h-5.174l-1.826,7.304h21.303l-1.825-7.304H67.652z M61.712,41.479h20.549v-2.435H61.712V41.479z M61.712,53.652h20.549v-2.435
				H61.712V53.652z M61.712,65.826h20.549v-2.436H61.712V65.826z M61.712,78h20.549v-2.436H61.712V78z"/>
		</g>
		<path fill="#FFFFFF" d="M54.569,68.436h-10v-10h10V68.436z M46.569,66.436h6v-6h-6V66.436z"/>
		<path fill="#FFFFFF" d="M54.569,80.436h-10v-10h10V80.436z M46.569,78.436h6v-6h-6V78.436z"/>
		<polygon fill="#FFFFFF" points="52.569,42.436 52.569,42.436 46.569,42.436 46.569,36.436 52.128,36.436 53.63,34.436 
			44.569,34.436 44.569,44.436 54.569,44.436 54.569,42.436 		"/>
		<polygon fill="#FFFFFF" points="52.985,43.022 48.575,38.8 49.958,37.356 52.739,40.018 57.429,33.772 59.028,34.974 		"/>
		<polygon fill="#FFFFFF" points="52.569,54.436 52.569,54.436 46.569,54.436 46.569,48.436 52.128,48.436 53.63,46.436 
			44.569,46.436 44.569,56.436 54.569,56.436 54.569,54.436 		"/>
		<polygon fill="#FFFFFF" points="52.985,55.022 48.575,50.8 49.958,49.356 52.739,52.018 57.429,45.772 59.028,46.974 		"/>
	</g>
</g>
<g id="Menu">
</g>
</svg>
