<?xml version="1.0" encoding="UTF-8" standalone="no"?>
<svg width="51px" height="70px" viewBox="0 0 51 70" version="1.1" xmlns="http://www.w3.org/2000/svg" xmlns:xlink="http://www.w3.org/1999/xlink" xmlns:sketch="http://www.bohemiancoding.com/sketch/ns">
    <!-- Generator: Sketch 3.0.4 (8054) - http://www.bohemiancoding.com/sketch -->
    <title>7</title>
    <desc>Created with Sketch.</desc>
    <defs></defs>
    <g id="Page-1" stroke="none" stroke-width="1" fill="none" fill-rule="evenodd" sketch:type="MSPage">
        <path d="M33.75,70 L33.75,63.4375 L35.9375,63.4375 L35.9375,56.875 L38.125,56.875 L38.125,50.3125 L38.125,44.296875 C45.4167031,39.4661217 49.0625,32.7213975 49.0625,24.0625 C49.0625,17.4088209 46.7155183,11.7350495 42.0214844,7.04101562 C37.3274505,2.34698174 31.6536791,0 25,0 C18.3463209,0 12.6725495,2.34698174 7.97851562,7.04101562 C3.28448174,11.7350495 0.9375,17.4088209 0.9375,24.0625 C0.9375,28.164083 1.91730791,32.014956 3.87695312,35.6152344 C5.83659834,39.2155128 8.5025873,42.1093641 11.875,44.296875 L11.875,56.875 L14.0625,56.875 L14.0625,63.4375 L16.25,63.4375 L16.25,70 L33.75,70 Z M31.5625,67.8125 L18.4375,67.8125 L18.4375,63.4375 L31.5625,63.4375 L31.5625,67.8125 Z M13.515625,42.7929688 C10.3255049,40.7877504 7.7962333,38.1217614 5.92773438,34.7949219 C4.05923545,31.4680823 3.125,27.8906441 3.125,24.0625 C3.125,18.0468449 5.26690566,12.8971568 9.55078125,8.61328125 C13.8346568,4.32940566 18.9843449,2.1875 25,2.1875 C31.0156551,2.1875 36.1653432,4.32940566 40.4492188,8.61328125 C44.7330943,12.8971568 46.875,18.0468449 46.875,24.0625 C46.875,27.8906441 45.9635508,31.4452961 44.140625,34.7265625 C42.3176992,38.0078289 39.7656414,40.6510316 36.484375,42.65625 L35.9375,43.0664062 L35.9375,48.125 L30.6054688,48.125 L33.75,27.4804688 L31.5625,27.2070312 L31.4257812,28.0273438 L28.4179688,30.2148438 L25,26.9335938 L21.5820312,30.2148438 L18.5742188,28.0273438 L18.4375,27.2070312 L16.25,27.4804688 L19.3945312,48.125 L14.0625,48.125 L14.0625,43.203125 L13.515625,42.7929688 Z M21.5820312,48.125 L18.984375,31.0351562 L21.8554688,33.2226562 L25,29.9414062 L28.1445312,33.2226562 L31.015625,31.0351562 L28.4179688,48.125 L21.5820312,48.125 Z M14.0625,50.3125 L35.9375,50.3125 L35.9375,54.6875 L14.0625,54.6875 L14.0625,50.3125 Z M16.25,56.875 L33.75,56.875 L33.75,61.25 L16.25,61.25 L16.25,56.875 Z" id="7" fill="#FFFFFF" sketch:type="MSShapeGroup"></path>
    </g>
</svg>