<?xml version="1.0" encoding="UTF-8" standalone="no"?>
<svg width="26px" height="26px" viewBox="0 0 26 26" version="1.1" xmlns="http://www.w3.org/2000/svg" xmlns:xlink="http://www.w3.org/1999/xlink" xmlns:sketch="http://www.bohemiancoding.com/sketch/ns">
    <!-- Generator: Sketch 3.0.4 (8054) - http://www.bohemiancoding.com/sketch -->
    <title>?</title>
    <desc>Created with Sketch.</desc>
    <defs></defs>
    <g id="Page-1" stroke="none" stroke-width="1" fill="none" fill-rule="evenodd" sketch:type="MSPage">
        <path d="M0,26 L26,26 L0,0 L0,26 Z M0.80776699,22.3650485 L3.23106796,22.3650485 L3.23106796,21.5572816 L0.80776699,21.5572816 L0.80776699,19.1339806 L2.42330097,19.1339806 L2.42330097,18.3262136 L0.80776699,18.3262136 L0.80776699,15.9029126 L3.23106796,15.9029126 L3.23106796,15.0951456 L0.80776699,15.0951456 L0.80776699,12.6718447 L2.42330097,12.6718447 L2.42330097,11.8640777 L0.80776699,11.8640777 L0.80776699,9.4407767 L3.23106796,9.4407767 L3.23106796,8.63300971 L0.80776699,8.63300971 L0.80776699,1.9184466 L24.0815534,25.192233 L0.80776699,25.192233 L0.80776699,22.3650485 Z M5.25048544,11.3087379 L5.25048544,22.3650485 L16.3067961,22.3650485 L5.25048544,11.3087379 Z M6.05825243,13.2271845 L14.3883495,21.5572816 L6.05825243,21.5572816 L6.05825243,13.2271845 Z M26,18.8815534 L24.9902913,14.8932039 L10.0970874,0 L7.1184466,2.97864078 L22.0116505,17.8718447 L26,18.8815534 Z M24.8893204,17.7708738 L22.415534,17.1650485 L10.6524272,5.40194175 L12.5203883,3.53398058 L24.2834951,15.2970874 L24.8893204,17.7708738 Z M10.0970874,1.11067961 L11.9650485,2.97864078 L10.0970874,4.84660194 L8.22912621,2.97864078 L10.0970874,1.11067961 Z" id="?" fill="#77B5BF" sketch:type="MSShapeGroup"></path>
    </g>
</svg>