<?xml version="1.0" encoding="UTF-8" standalone="no"?>
<svg width="31px" height="28px" viewBox="0 0 31 28" version="1.1" xmlns="http://www.w3.org/2000/svg" xmlns:xlink="http://www.w3.org/1999/xlink" xmlns:sketch="http://www.bohemiancoding.com/sketch/ns">
    <!-- Generator: Sketch 3.0.4 (8054) - http://www.bohemiancoding.com/sketch -->
    <title>- + -</title>
    <desc>Created with Sketch.</desc>
    <defs></defs>
    <g id="Page-1" stroke="none" stroke-width="1" fill="none" fill-rule="evenodd" sketch:type="MSPage">
        <g id="--+--" sketch:type="MSLayerGroup" transform="translate(0.000000, 1.000000)" fill="#77B5BF">
            <path d="M19.375,14.3349609 L21.684611,14.3349609 L26.4085286,18.507019 L26.4085286,14.3349609 L31,14.3349609 L31,-0.0205078125 L11.2213542,-0.0205078125 L11.2213542,7.96289062 L11.9277344,7.96289062 L11.9277344,0.697265625 L30.2936198,0.697265625 L30.2936198,13.6171875 L25.7021484,13.6171875 L25.7021484,16.9368896 L21.9495036,13.6171875 L19.375,13.6171875 L19.375,14.3349609 Z" id="-" sketch:type="MSShapeGroup"></path>
            <path d="M4.59147135,26.132019 L9.315389,21.9599609 L19.7786458,21.9599609 L19.7786458,7.60449219 L0,7.60449219 L0,21.9599609 L4.59147135,21.9599609 L4.59147135,26.132019 Z M0.706380208,21.2421875 L0.706380208,8.32226562 L19.0722656,8.32226562 L19.0722656,21.2421875 L9.05049642,21.2421875 L5.29785156,24.5618896 L5.29785156,21.2421875 L0.706380208,21.2421875 Z" id="-" sketch:type="MSShapeGroup"></path>
        </g>
    </g>
</svg>