<?xml version="1.0" encoding="UTF-8" standalone="no"?>
<svg width="70px" height="63px" viewBox="0 0 70 63" version="1.1" xmlns="http://www.w3.org/2000/svg" xmlns:xlink="http://www.w3.org/1999/xlink" xmlns:sketch="http://www.bohemiancoding.com/sketch/ns">
    <!-- Generator: Sketch 3.0.4 (8054) - http://www.bohemiancoding.com/sketch -->
    <title>Y</title>
    <desc>Created with Sketch.</desc>
    <defs></defs>
    <g id="Page-1" stroke="none" stroke-width="1" fill="none" fill-rule="evenodd" sketch:type="MSPage">
        <path d="M40.46875,15.6875 L45.9375,15.6875 L45.9375,15.6875 L45.9375,39.75 L40.46875,39.75 L40.46875,15.6875 Z M38.28125,15.6875 L8.06640625,15.6875 L2.1875,21.5664062 L2.1875,33.8710938 L8.06640625,39.75 L38.28125,39.75 L38.28125,15.6875 Z M48.125,15.6875 L50.1757812,15.6875 L67.1289062,2.5625 L67.8125,2.5625 L67.8125,52.875 L67.1289062,52.875 L50.1757812,39.75 L48.125,39.75 L48.125,15.6875 L48.125,15.6875 Z M31.2790329,41.9375 L49.3554688,41.9375 L66.3085938,55.0625 L70,55.0625 L70,0.375 L66.3085938,0.375 L49.3554688,13.5 L7.24609375,13.5 L0,20.7460938 L0,34.6914062 L7.24609375,41.9375 L19.2323589,41.9375 L11.484375,61.625 L20.3710938,61.625 L31.2790329,41.9375 L31.2790329,41.9375 Z M28.7539062,41.9375 L21.4761513,41.9375 L14.765625,59.4375 L19.0039062,59.4375 L28.7539063,41.9375 L28.7539062,41.9375 Z M31.2790329,41.9375 L28.7539062,41.9375 L29.6679688,40.296875 L31.5820312,41.390625 L31.2790329,41.9375 L31.2790329,41.9375 Z M21.4761513,41.9375 L19.2323589,41.9375 L19.8242188,40.4335938 L21.7382812,41.2539062 L21.4761513,41.9375 L21.4761513,41.9375 Z M48.125,15.6875 L45.9375,15.6875 L45.9375,14.59375 L48.125,14.59375 L48.125,15.6875 L48.125,15.6875 Z M45.9375,39.75 L48.125,39.75 L48.125,40.84375 L45.9375,40.84375 L45.9375,39.75 Z M40.46875,15.6875 L38.28125,15.6875 L38.28125,14.59375 L40.46875,14.59375 L40.46875,15.6875 Z M38.28125,39.75 L40.46875,39.75 L40.46875,40.84375 L38.28125,40.84375 L38.28125,39.75 Z" id="Y" fill="#FFFFFF" sketch:type="MSShapeGroup"></path>
    </g>
</svg>