<?xml version="1.0" encoding="UTF-8" standalone="no"?>
<svg width="65px" height="71px" viewBox="0 0 65 71" version="1.1" xmlns="http://www.w3.org/2000/svg" xmlns:xlink="http://www.w3.org/1999/xlink" xmlns:sketch="http://www.bohemiancoding.com/sketch/ns">
    <!-- Generator: Sketch 3.0.4 (8054) - http://www.bohemiancoding.com/sketch -->
    <title>Type something</title>
    <desc>Created with Sketch.</desc>
    <defs></defs>
    <g id="Page-1" stroke="none" stroke-width="1" fill="none" fill-rule="evenodd" sketch:type="MSPage">
        <path d="M32,70.2734375 C40.7500438,70.2734375 48.3150723,67.1745102 54.6953125,60.9765625 C60.8932602,54.5963223 63.9921875,47.0312937 63.9921875,38.28125 C63.9921875,29.5312063 60.8932602,21.9661777 54.6953125,15.5859375 C50.0468518,11.1197693 44.6693014,8.2487043 38.5625,6.97265625 L38.5625,6.5625 C38.5625,4.73957422 37.9244855,3.19011055 36.6484375,1.9140625 C35.3723895,0.638014453 33.8229258,0 32,0 C30.1770742,0 28.6276105,0.638014453 27.3515625,1.9140625 C26.0755145,3.19011055 25.4375,4.73957422 25.4375,6.5625 L25.4375,6.97265625 C19.3306986,8.2487043 13.9531482,11.1197693 9.3046875,15.5859375 C3.10673984,21.9661777 0.0078125,29.5312063 0.0078125,38.28125 C0.0078125,47.0312937 3.10673984,54.5963223 9.3046875,60.9765625 C15.6849277,67.1745102 23.2499562,70.2734375 32,70.2734375 Z M32,2.1875 C33.276048,2.1875 34.3242146,2.59765215 35.1445312,3.41796875 C35.9648479,4.23828535 36.375,5.28645195 36.375,6.5625 C35.3723908,6.38020742 33.9140721,6.2890625 32,6.2890625 C30.0859279,6.2890625 28.6276092,6.38020742 27.625,6.5625 C27.625,5.28645195 28.0351521,4.23828535 28.8554688,3.41796875 C29.6757854,2.59765215 30.723952,2.1875 32,2.1875 Z M10.9453125,17.2265625 C16.3229436,11.6666389 22.9765229,8.75000137 30.90625,8.4765625 L30.90625,13.125 L33.09375,13.125 L33.09375,8.4765625 C41.0234771,8.75000137 47.6770564,11.6666389 53.0546875,17.2265625 C58.6146111,22.6041936 61.5312486,29.2577729 61.8046875,37.1875 L57.15625,37.1875 L57.15625,39.375 L61.8046875,39.375 C61.5312486,47.3047271 58.6146111,53.9583064 53.0546875,59.3359375 C47.6770564,64.8958611 41.0234771,67.8124986 33.09375,68.0859375 L33.09375,63.4375 L30.90625,63.4375 L30.90625,68.0859375 C22.9765229,67.8124986 16.3229436,64.8958611 10.9453125,59.3359375 C5.38538887,53.9583064 2.46875137,47.3047271 2.1953125,39.375 L6.84375,39.375 L6.84375,37.1875 L2.1953125,37.1875 C2.46875137,29.2577729 5.38538887,22.6041936 10.9453125,17.2265625 Z M37.8789062,44.7070312 L38.4257812,44.1601562 L47.1757812,23.3789062 L45.8085938,22.0117188 L25.0273438,30.7617188 L24.4804688,31.3085938 L16.8242188,50.9960938 L18.1914062,52.3632812 L37.8789062,44.7070312 Z M37.0585938,41.8359375 L27.3515625,32.1289062 L44.1679688,25.0195312 L37.0585938,41.8359375 Z M25.8476562,33.6328125 L35.5546875,43.3398438 L19.6953125,49.4921875 L25.8476562,33.6328125 Z" id="Type-something" fill="#FFFFFF" sketch:type="MSShapeGroup"></path>
    </g>
</svg>