<?xml version="1.0" encoding="UTF-8"?>
<svg width="155px" height="51px" viewBox="0 0 155 51" version="1.1" xmlns="http://www.w3.org/2000/svg" xmlns:xlink="http://www.w3.org/1999/xlink">
    <!-- Generator: Sketch 51.2 (57519) - http://www.bohemiancoding.com/sketch -->
    <title>Group</title>
    <desc>Created with Sketch.</desc>
    <defs></defs>
    <g id="Page-1" stroke="none" stroke-width="1" fill="none" fill-rule="evenodd">
        <g id="Desktop-HD" transform="translate(-66.000000, -44.000000)">
            <g id="Group" transform="translate(66.000000, 44.000000)">
                <path d="M9.44177437,39.2881495 C8.79415507,39.2881495 8.16079529,39.6104188 7.78905785,40.1993323 C7.21174585,41.1128905 7.48505308,42.3326837 8.40419716,42.9109076 C8.73137363,43.1203431 9.09736765,43.2207058 9.45880655,43.2207058 C9.96739565,43.2207058 10.4668745,43.0221578 10.8368295,42.6507959 C10.9358539,42.5516209 11.0269563,42.4358178 11.1028089,42.3130862 C11.6832897,41.3943812 11.4058235,40.1799328 10.4918286,39.5955723 C10.1654444,39.3873245 9.80143083,39.2881495 9.44177437,39.2881495" id="Fill-1" fill="#74C5CD"></path>
                <path d="M3.79916847,30.8287787 C3.15174723,30.8287787 2.51878354,31.151246 2.14764025,31.7393676 C1.5701302,32.6531238 1.84343742,33.872917 2.76159126,34.4519327 C3.08876774,34.6613682 3.45436566,34.7617309 3.81560651,34.7617309 C4.32399756,34.7617309 4.82367446,34.562985 5.19402556,34.1908313 C5.29443626,34.0918542 5.38435037,33.9770408 5.46020303,33.8543093 C6.04068381,32.9356043 5.76321756,31.7209579 4.8490247,31.1367953 C4.52264042,30.9281517 4.15862689,30.8287787 3.79916847,30.8287787" id="Fill-2" fill="#74C5CD"></path>
                <path d="M2.10624807,21.2418613 C1.45862877,21.2418613 0.826061184,21.5637347 0.454323749,22.1520543 C-0.1231863,23.0668002 0.151309217,24.2854057 1.0696611,24.8656092 C1.39663953,25.0746487 1.7620394,25.1746156 2.12308221,25.1746156 C2.63147326,25.1746156 3.13134821,24.9762656 3.50189735,24.6047057 C3.60131781,24.504343 3.69142997,24.3899255 3.76708458,24.266996 C4.34835755,23.348093 4.07108935,22.1336446 3.15689649,21.5492841 C2.82991807,21.3410363 2.46570648,21.2416634 2.10624807,21.2418613" id="Fill-3" fill="#74C5CD"></path>
                <path d="M3.79877237,11.0901809 C3.15154918,11.0901809 2.51878354,11.4124502 2.14764025,11.99978 C1.5701302,12.9145259 1.84343742,14.1341212 2.76159126,14.7133349 C3.08896578,14.9225724 3.45476176,15.0227372 3.81620066,15.0227372 C4.32439366,15.0227372 4.82367446,14.8245851 5.19402556,14.4526293 C5.29443626,14.3532564 5.38435037,14.2386409 5.46020303,14.1159094 C6.04068381,13.1970064 5.76321756,11.9815682 4.8490247,11.3981975 C4.52264042,11.1895538 4.15842884,11.0901809 3.79877237,11.0901809" id="Fill-4" fill="#74C5CD"></path>
                <path d="M9.44217046,3.19478133 C8.79435312,3.19497928 8.16099334,3.51724857 7.78905785,4.10497431 C7.21174585,5.01972024 7.48505308,6.23911754 8.40419716,6.81852921 C8.73117558,7.02737079 9.09677351,7.12733761 9.45801436,7.12733761 C9.9668015,7.12733761 10.4666765,6.9289876 10.8368295,6.55762569 C10.9358539,6.45805478 11.0269563,6.34264753 11.1028089,6.22070781 C11.6832897,5.3020028 11.4058235,4.08636663 10.4918286,3.50220406 C10.1656424,3.29415429 9.80162888,3.19478133 9.44217046,3.19478133" id="Fill-5" fill="#74C5CD"></path>
                <path d="M44.9887457,3.19478133 C44.3409284,3.19497928 43.7075686,3.51724857 43.3356331,4.10497431 C42.7593114,5.01972024 43.0316284,6.23911754 43.9507724,6.81852921 C44.2773548,7.02737079 44.6427546,7.12733761 45.0039955,7.12733761 C45.5125846,7.12733761 46.0128556,6.9289876 46.3834048,6.55762569 C46.4826272,6.45805478 46.5725413,6.34264753 46.648394,6.22070781 C47.2288747,5.3020028 46.9525968,4.08636663 46.0384039,3.50220406 C45.7120197,3.29415429 45.3482042,3.19478133 44.9887457,3.19478133" id="Fill-6" fill="#74C5CD"></path>
                <path d="M50.6301634,11.6539542 C49.9827421,11.6541521 49.3493823,11.9766194 48.978239,12.5645431 C48.400927,13.4784972 48.6744323,14.6978945 49.5935764,15.2771082 C49.9209509,15.4867416 50.2865488,15.5869064 50.6479877,15.5869064 C51.1559827,15.5869064 51.6554615,15.3885564 52.0258126,15.0173924 C52.1242428,14.9180194 52.2153453,14.8024142 52.2900096,14.6786929 C52.8722728,13.75979 52.5940144,12.5451436 51.6798215,11.9621687 C51.3538334,11.7535251 50.9898198,11.6539542 50.6301634,11.6539542" id="Fill-7" fill="#74C5CD"></path>
                <path d="M52.3228857,21.2418613 C51.6754645,21.2418613 51.0426988,21.5637347 50.6715555,22.1520543 C50.0930552,23.0668002 50.3663625,24.2854057 51.2855065,24.8656092 C51.612485,25.0746487 51.9780829,25.1746156 52.3391257,25.1746156 C52.8477148,25.1746156 53.3477878,24.9762656 53.7191291,24.6047057 C53.8175593,24.504343 53.9082657,24.3899255 53.9831281,24.266996 C54.5645991,23.348093 54.2863407,22.1336446 53.373138,21.5492841 C53.0467538,21.3410363 52.6825422,21.2416634 52.3228857,21.2418613" id="Fill-8" fill="#74C5CD"></path>
                <path d="M50.6303614,30.8287787 C49.9827421,30.8287787 49.3495804,31.151246 48.978239,31.7393676 C48.400927,32.6531238 48.6744323,33.872917 49.5935764,34.4519327 C49.9207529,34.6613682 50.2861527,34.7617309 50.6473936,34.7617309 C51.1557846,34.7617309 51.6552635,34.562985 52.0258126,34.1908313 C52.1242428,34.0918542 52.2153453,33.9770408 52.2900096,33.8543093 C52.8722728,32.9356043 52.5940144,31.7209579 51.6798215,31.1367953 C51.3538334,30.9281517 50.9900179,30.8287787 50.6303614,30.8287787" id="Fill-9" fill="#74C5CD"></path>
                <path d="M45.5525904,39.2881495 C44.9049711,39.2881495 44.2720075,39.6104188 43.9006661,40.1993323 C43.3233541,41.1128905 43.5966613,42.3326837 44.5138249,42.9109076 C44.8413975,43.1203431 45.2073915,43.2207058 45.5688304,43.2207058 C46.0774195,43.2207058 46.5770964,43.0221578 46.9474475,42.6507959 C47.0464719,42.5516209 47.136584,42.4358178 47.2124367,42.3130862 C47.7939077,41.3943812 47.5166395,40.1799328 46.6024467,39.5955723 C46.2760624,39.3873245 45.9120489,39.2881495 45.5525904,39.2881495" id="Fill-10" fill="#74C5CD"></path>
                <path d="M37.0883845,44.9272682 C36.4409633,44.9274661 35.8079996,45.2497354 35.4368563,45.8370652 C34.8585541,46.7528009 35.1330496,47.9714064 36.0523917,48.5518079 C36.3785779,48.7606494 36.7437798,48.8606163 37.1046245,48.8606163 C37.6134117,48.8606163 38.1138808,48.6620683 38.484628,48.2897166 C38.5828601,48.1913334 38.6735664,48.0757282 38.7496171,47.9529967 C39.3298999,47.0342917 39.0526317,45.8196453 38.1384388,45.2354827 C37.8120545,45.0268391 37.448041,44.9272682 37.0883845,44.9272682" id="Fill-11" fill="#74C5CD"></path>
                <path d="M26.9314563,46.6195778 C26.2844311,46.6195778 25.6520616,46.9416492 25.2811163,47.5293749 C24.7038043,48.4443188 24.9769135,49.6637161 25.8952654,50.2429298 C26.2226399,50.4525632 26.5882378,50.552728 26.9492806,50.552728 C27.4576717,50.552728 27.9569525,50.35418 28.3273036,49.983214 C28.426724,49.8828513 28.5180245,49.7682358 28.5936791,49.6445145 C29.1751501,48.7254136 28.8964956,47.5111631 27.9823027,46.9277924 C27.6557204,46.7191487 27.2913108,46.6193799 26.9314563,46.6195778" id="Fill-12" fill="#74C5CD"></path>
                <path d="M17.3407493,44.9272682 C16.6929319,44.9274661 16.0601663,45.2497354 15.689023,45.8370652 C15.1115129,46.7528009 15.3848202,47.9714064 16.302974,48.5518079 C16.6299524,48.7606494 16.9953523,48.8606163 17.3563951,48.8606163 C17.8653803,48.8606163 18.3654533,48.6620683 18.7356063,48.2897166 C18.8346307,48.1913334 18.9257331,48.0757282 19.0017838,47.9529967 C19.5820665,47.0342917 19.3044022,45.8196453 18.3915957,45.2354827 C18.0648153,45.0268391 17.7004057,44.9272682 17.3407493,44.9272682" id="Fill-13" fill="#74C5CD"></path>
                <path d="M13.4142355,37.7639029 C12.7070035,37.3169225 12.4960816,36.3786201 12.9405029,35.6735075 C13.3847262,34.968593 14.3183278,34.7599493 15.0215988,35.2091072 C15.725662,35.6592548 15.9397527,36.5955778 15.4923606,37.3024719 C15.4341343,37.3976878 15.3644211,37.4869651 15.2885685,37.5623856 C14.8003784,38.0527179 14.0202645,38.151893 13.4142355,37.7639029" id="Fill-14" fill="#F8B126"></path>
                <path d="M9.27343296,31.5572498 C8.566201,31.1100715 8.35607132,30.171967 8.80168092,29.4668545 C9.24590419,28.7619399 10.1775253,28.5521085 10.8817866,29.0024541 C11.5860478,29.451612 11.7999404,30.3879349 11.3525484,31.0958188 C11.2933318,31.1910347 11.2246089,31.2789264 11.1487562,31.3567223 C10.6605661,31.8458669 9.88045227,31.9440522 9.27343296,31.5572498" id="Fill-15" fill="#E8453B"></path>
                <path d="M8.03166753,24.5227527 C7.32423752,24.0755744 7.11450393,23.1364801 7.5587272,22.4313676 C8.00314851,21.7274428 8.9357599,21.5186012 9.64002113,21.967957 C10.3440843,22.4181046 10.5571847,23.3532398 10.1095946,24.0613217 C10.0515664,24.1553499 9.98284345,24.2446272 9.9061986,24.3222252 C9.41761242,24.8113698 8.63868683,24.909555 8.03166753,24.5227527" id="Fill-16" fill="#D3326F"></path>
                <path d="M9.27343296,17.0739376 C8.566201,16.6267593 8.35607132,15.6884568 8.80168092,14.984532 C9.24590419,14.2796174 10.1775253,14.0687963 10.8817866,14.5191419 C11.5860478,14.9692896 11.7999404,15.9064043 11.3525484,16.6123086 C11.2933318,16.7075246 11.2246089,16.7975937 11.1487562,16.8734101 C10.6605661,17.3625547 9.88045227,17.4627195 9.27343296,17.0739376" id="Fill-17" fill="#74C5CD"></path>
                <path d="M13.4142355,11.2816025 C12.7070035,10.8334344 12.4960816,9.89513193 12.9405029,9.19120713 C13.3847262,8.4860946 14.3183278,8.27547143 15.0215988,8.72561907 C15.725662,9.17576671 15.9397527,10.1130794 15.4923606,10.8201715 C15.4341343,10.9151894 15.3644211,11.0042688 15.2885685,11.0800852 C14.8003784,11.5702196 14.0202645,11.6691966 13.4142355,11.2816025" id="Fill-18" fill="#74C5CD"></path>
                <path d="M39.4960627,11.2816025 C38.7872464,10.8334344 38.5777108,9.89513193 39.0217361,9.19120713 C39.4671476,8.4860946 40.3987688,8.27547143 41.103228,8.72561907 C41.8074893,9.17576671 42.0223721,10.1130794 41.5739898,10.8201715 C41.5165557,10.9151894 41.4470406,11.0042688 41.3692075,11.0800852 C40.8820076,11.5702196 40.1018937,11.6691966 39.4960627,11.2816025" id="Fill-19" fill="#F8B126"></path>
                <path d="M43.6356769,17.4872658 C42.928643,17.0400875 42.7165329,16.101785 43.1629347,15.3968704 C43.6067618,14.6929456 44.5387791,14.4831143 45.2440305,14.9332619 C45.9482918,15.3826177 46.1611941,16.3187427 45.7138021,17.0268245 C45.6551797,17.1220405 45.5868529,17.21013 45.5090197,17.287926 C45.0218199,17.7758829 44.2426962,17.8750579 43.6356769,17.4872658" id="Fill-20" fill="#E8453B"></path>
                <path d="M44.8776404,24.5227527 C44.1698143,24.0755744 43.9592885,23.1364801 44.404304,22.4313676 C44.8485273,21.7274428 45.7811387,21.5186012 46.4848057,21.967957 C47.1900572,22.4181046 47.4039498,23.3532398 46.9565578,24.0613217 C46.8981334,24.1553499 46.8286183,24.2446272 46.7517754,24.3222252 C46.2625951,24.8113698 45.4844617,24.909555 44.8776404,24.5227527" id="Fill-21" fill="#D3326F"></path>
                <path d="M43.6356769,31.5572498 C42.928643,31.1100715 42.7165329,30.171967 43.1629347,29.4668545 C43.6067618,28.7619399 44.5387791,28.5521085 45.2440305,29.0024541 C45.9482918,29.451612 46.1611941,30.3887267 45.7138021,31.0968086 C45.6551797,31.1910347 45.5868529,31.2789264 45.5090197,31.3567223 C45.0218199,31.8458669 44.2426962,31.9440522 43.6356769,31.5572498" id="Fill-22" fill="#74C5CD"></path>
                <path d="M39.9093904,37.7639029 C39.2019604,37.3169225 38.9922268,36.3786201 39.4364501,35.6735075 C39.8816636,34.968593 40.8132847,34.7599493 41.5175459,35.2091072 C42.2218072,35.6592548 42.4347095,36.5955778 41.9875155,37.3024719 C41.9302795,37.3976878 41.8605663,37.4869651 41.7839215,37.5623856 C41.2953353,38.0527179 40.5166078,38.151893 39.9093904,37.7639029" id="Fill-23" fill="#74C5CD"></path>
                <path d="M33.699771,41.9019355 C32.9913508,41.4547572 32.7816172,40.515267 33.2258405,39.8103525 C33.671252,39.1076154 34.6026751,38.897784 35.3069363,39.3469419 C36.0121878,39.7960998 36.2260804,40.7334125 35.7778962,41.4414943 C35.7196699,41.5355225 35.650947,41.6236121 35.5729158,41.701408 C35.0857159,42.1903547 34.305602,42.2907174 33.699771,41.9019355" id="Fill-24" fill="#74C5CD"></path>
                <path d="M26.2471979,43.1440976 C25.5409562,42.6959295 25.3300344,41.7566372 25.7742576,41.0525145 C26.2186789,40.3475999 27.1512903,40.1379665 27.8555515,40.5881141 C28.5598128,41.0384597 28.7737054,41.9745847 28.3253231,42.6814788 C28.268087,42.7766947 28.1983739,42.8655761 28.1225212,42.9413926 C27.6333409,43.4325167 26.853227,43.5308999 26.2471979,43.1440976" id="Fill-25" fill="#74C5CD"></path>
                <path d="M19.2105272,41.9019355 C18.5019089,41.4547572 18.291185,40.515267 18.7356063,39.8103525 C19.181612,39.1076154 20.1144215,38.897784 20.8176925,39.3469419 C21.5219537,39.7960998 21.7370346,40.7334125 21.287464,41.4414943 C21.2290396,41.5355225 21.1607128,41.6236121 21.0836719,41.701408 C20.5954818,42.1903547 19.8165562,42.2907174 19.2105272,41.9019355" id="Fill-26" fill="#74C5CD"></path>
                <path d="M71.7175035,18.0373803 C70.8651019,18.8097972 69.8035608,19.4244447 68.1791652,19.4244447 C65.0107819,19.4244447 63.8207072,16.477106 63.8207072,13.7031751 C63.8207072,10.9607189 65.1717955,8.2497374 68.1952072,8.2497374 C69.5783794,8.2497374 70.5434707,8.59655299 71.4119144,9.13241476 L70.7203282,10.1726636 C70.0287421,9.6839149 69.2244663,9.43191932 68.2756149,9.43191932 C65.9919152,9.43191932 65.2359633,11.8275599 65.2359633,13.7031751 C65.2359633,15.5629539 65.9115074,18.2580991 68.3239388,18.2580991 C69.3211141,18.2580991 70.2218396,17.8324978 70.9775935,17.1390645 L71.7175035,18.0373803" id="Fill-27" fill="#3B3B3B"></path>
                <polygon id="Fill-28" fill="#3B3B3B" points="74.6887337 8.51756931 76.055864 8.51756931 76.055864 19.2352006 74.6887337 19.2352006"></polygon>
                <path d="M79.7828481,8.51756931 L81.1337384,8.51756931 L81.1337384,15.6417397 C81.1337384,18.0846913 82.5169106,18.3054101 83.7713511,18.3054101 C85.6046881,18.3054101 86.2321064,17.296636 86.2321064,16.1934377 L86.2321064,8.51756931 L87.5829967,8.51756931 L87.5829967,16.0829794 C87.5829967,18.1320023 86.006925,19.4244447 83.7230272,19.4244447 C81.7286767,19.4244447 79.7828481,18.9200576 79.7828481,15.5944286 L79.7828481,8.51756931" id="Fill-29" fill="#3B3B3B"></path>
                <path d="M91.475248,8.51756931 L94.6596733,8.51756931 C95.3833433,8.51756931 99.2593547,8.51756931 99.2593547,13.8765829 C99.2593547,19.2352006 95.3833433,19.2352006 94.6596733,19.2352006 L91.475248,19.2352006 L91.475248,8.51756931 L91.475248,8.51756931 Z M94.0968189,18.0846913 C95.5924827,18.0846913 97.8440986,18.0532166 97.8440986,13.8765829 C97.8440986,9.73122593 95.5924827,9.66827653 94.0968189,9.66827653 L92.8261383,9.66827653 L92.8261383,18.0846913 L94.0968189,18.0846913 L94.0968189,18.0846913 Z" id="Fill-30" fill="#3B3B3B"></path>
                <path d="M109.070094,19.2352006 L107.960427,16.0515047 L103.955882,16.0515047 L102.813933,19.2352006 L101.398677,19.2352006 C102.685201,15.657576 104.084415,11.7802489 105.29073,8.50193093 L106.802436,8.50193093 C107.960427,11.7802489 109.311317,15.657576 110.549716,19.2352006 L109.070094,19.2352006 L109.070094,19.2352006 Z M106.786394,12.331947 C106.416439,11.2285508 106.207498,10.4878065 106.030442,9.95194476 L105.998358,9.95194476 C105.837543,10.4878065 105.612361,11.2285508 105.226364,12.331947 L104.309597,14.9483064 C104.840367,14.9324701 105.467588,14.9324701 105.982316,14.9324701 C106.496847,14.9324701 107.156349,14.9324701 107.654838,14.9483064 L106.786394,12.331947 L106.786394,12.331947 Z" id="Fill-31" fill="#3B3B3B"></path>
                <path d="M112.865121,8.51756931 L116.049546,8.51756931 C116.773216,8.51756931 120.649425,8.51756931 120.649425,13.8765829 C120.649425,19.2352006 116.773216,19.2352006 116.049546,19.2352006 L112.865121,19.2352006 L112.865121,8.51756931 L112.865121,8.51756931 Z M115.486692,18.0846913 C116.982355,18.0846913 119.233971,18.0532166 119.233971,13.8765829 C119.233971,9.73122593 116.982355,9.66827653 115.486692,9.66827653 L114.216209,9.66827653 L114.216209,18.0846913 L115.486692,18.0846913 L115.486692,18.0846913 Z" id="Fill-32" fill="#3B3B3B"></path>
                <path d="M130.294897,19.2352006 L129.18523,16.0515047 L125.180685,16.0515047 L124.038736,19.2352006 L122.62348,19.2352006 C123.910005,15.657576 125.309219,11.7802489 126.515534,8.50193093 L128.02724,8.50193093 C129.18523,11.7802489 130.536121,15.657576 131.774519,19.2352006 L130.294897,19.2352006 L130.294897,19.2352006 Z M128.011198,12.331947 C127.641243,11.2285508 127.432301,10.4878065 127.255246,9.95194476 L127.223162,9.95194476 C127.062346,10.4878065 126.837165,11.2285508 126.451168,12.331947 L125.5344,14.9483064 C126.065171,14.9324701 126.692391,14.9324701 127.20712,14.9324701 C127.72165,14.9324701 128.381153,14.9324701 128.879641,14.9483064 L128.011198,12.331947 L128.011198,12.331947 Z" id="Fill-33" fill="#3B3B3B"></path>
                <path d="M134.750201,8.51756931 L136.310231,8.51756931 L140.186044,15.0112558 C140.539957,15.5944286 140.958236,16.3824839 141.263627,17.1390645 L141.311951,17.1390645 C141.279867,15.9254079 141.263627,14.9324701 141.263627,13.8922213 L141.263627,8.51756931 L142.598674,8.51756931 L142.598674,19.2352006 L141.08677,19.2352006 L137.210758,12.7573504 C136.840803,12.1427029 136.50313,11.4492696 136.068809,10.5351176 L136.020684,10.5351176 C136.068809,11.7171015 136.068809,12.7573504 136.068809,13.7819608 L136.085049,19.2352006 L134.750201,19.2352006 L134.750201,8.51756931" id="Fill-34" fill="#3B3B3B"></path>
                <path d="M145.960154,13.7188135 C145.960154,10.9448826 147.343327,8.2497374 150.447344,8.2497374 C153.551362,8.2497374 154.966618,10.9448826 154.966618,13.7188135 C154.966618,16.477106 153.728219,19.4244447 150.447344,19.4244447 C147.182511,19.4244447 145.960154,16.477106 145.960154,13.7188135 L145.960154,13.7188135 Z M153.535122,13.7188135 C153.535122,11.8275599 152.779368,9.40024667 150.447344,9.40024667 C148.147404,9.40024667 147.375411,11.8275599 147.375411,13.7188135 C147.375411,15.5471176 148.083039,18.3054101 150.447344,18.3054101 C152.843734,18.3054101 153.535122,15.5471176 153.535122,13.7188135 L153.535122,13.7188135 Z" id="Fill-35" fill="#3B3B3B"></path>
                <polygon id="Fill-36" fill="#3B3B3B" points="65.3927145 24.6823037 66.7331081 24.6823037 66.7331081 35.399935 65.3927145 35.399935"></polygon>
                <path d="M69.6656154,24.6823037 L71.1951457,24.6823037 L74.9955024,31.1757923 C75.3424838,31.7589651 75.7524446,32.5470204 76.0518943,33.303601 L76.0992279,33.303601 C76.0677382,32.0899443 76.0518943,31.0970065 76.0518943,30.0567577 L76.0518943,24.6823037 L77.3607982,24.6823037 L77.3607982,35.399737 L75.8786016,35.399737 L72.0782449,28.9218868 C71.7156177,28.3072393 71.3844802,27.6138061 70.9586755,26.699654 L70.9113419,26.699654 C70.9586755,27.881638 70.9586755,28.9218868 70.9586755,29.9462993 L70.9745194,35.399737 L69.6656154,35.399737 L69.6656154,24.6823037" id="Fill-37" fill="#3B3B3B"></path>
                <path d="M82.6269135,25.8484514 C81.0185599,25.8799261 79.3943624,25.8799261 79.2367156,25.8799261 L79.2367156,24.6823037 L87.3260153,24.6823037 L87.3260153,25.8799261 C87.1683685,25.8799261 85.5756608,25.8799261 83.9514633,25.8484514 L83.9514633,35.399737 L82.6269135,35.399737 L82.6269135,25.8484514" id="Fill-38" fill="#3B3B3B"></path>
                <path d="M89.2334225,24.6823037 L95.4935443,24.6823037 L95.4935443,25.8957624 C95.3358975,25.8957624 92.2136595,25.8957624 90.5579723,25.8799261 C90.5579723,26.0376955 90.5579723,28.4648108 90.5421284,29.2528661 C92.0560127,29.2372277 94.7680918,29.2372277 94.9259367,29.2372277 L94.9259367,30.387737 C94.7680918,30.387737 92.0560127,30.387737 90.5421284,30.3719006 C90.5579723,32.0584696 90.5579723,34.0443452 90.5579723,34.2019167 C92.2768371,34.1860804 95.4935443,34.1860804 95.651191,34.1860804 L95.651191,35.399737 L89.2334225,35.399737 L89.2334225,24.6823037" id="Fill-39" fill="#3B3B3B"></path>
                <path d="M97.968559,24.6823037 L99.2931088,24.6823037 C99.2931088,24.8396772 99.277463,32.6887555 99.2616191,34.2175551 C100.980286,34.1860804 103.61374,34.1860804 103.771584,34.1860804 L103.771584,35.399737 L97.968559,35.399737 L97.968559,24.6823037" id="Fill-40" fill="#3B3B3B"></path>
                <polygon id="Fill-41" fill="#3B3B3B" points="105.678992 24.6823037 107.019385 24.6823037 107.019385 35.399935 105.678992 35.399935"></polygon>
                <path d="M114.587817,35.5258338 C111.134639,35.5258338 109.321107,33.2562899 109.321107,29.8833499 C109.321107,26.7942761 110.866482,24.4142738 114.130522,24.4142738 C115.139779,24.4142738 116.180525,24.6506311 117.095114,25.1235434 L116.543152,26.2111033 C115.896721,25.832813 114.903308,25.5962578 113.972876,25.5962578 C111.591934,25.5962578 110.708835,27.5350203 110.708835,29.8833499 C110.708835,32.4997093 111.844248,34.4067992 114.66664,34.4067992 C115.171268,34.4067992 115.628563,34.3753245 116.022878,34.1860804 C116.022878,34.0601816 116.022878,32.4997093 116.054368,30.3719006 C114.761307,30.4033753 114.43017,30.4033753 114.272523,30.4033753 L114.272523,29.2372277 L117.347428,29.2372277 L117.347428,35.0845941 C116.700799,35.352426 115.644407,35.5258338 114.587817,35.5258338" id="Fill-42" fill="#3B3B3B"></path>
                <path d="M120.15358,24.6823037 L126.413702,24.6823037 L126.413702,25.8957624 C126.256055,25.8957624 123.133817,25.8957624 121.47813,25.8799261 C121.47813,26.0376955 121.47813,28.4648108 121.462286,29.2528661 C122.97617,29.2372277 125.688447,29.2372277 125.846094,29.2372277 L125.846094,30.387737 C125.688447,30.387737 122.97617,30.387737 121.462286,30.3719006 C121.47813,32.0584696 121.47813,34.0443452 121.47813,34.2019167 C123.196994,34.1860804 126.413702,34.1860804 126.571348,34.1860804 L126.571348,35.399737 L120.15358,35.399737 L120.15358,24.6823037" id="Fill-43" fill="#3B3B3B"></path>
                <path d="M128.888914,24.6823037 L130.418445,24.6823037 L134.218603,31.1757923 C134.565585,31.7589651 134.975546,32.5470204 135.275193,33.303601 L135.322527,33.303601 C135.290839,32.0899443 135.275193,31.0970065 135.275193,30.0567577 L135.275193,24.6823037 L136.583899,24.6823037 L136.583899,35.399737 L135.101703,35.399737 L131.301346,28.9218868 C130.938719,28.3072393 130.607581,27.6138061 130.181776,26.699654 L130.134641,26.699654 C130.181776,27.881638 130.181776,28.9218868 130.181776,29.9462993 L130.19762,35.399737 L128.888914,35.399737 L128.888914,24.6823037" id="Fill-44" fill="#3B3B3B"></path>
                <path d="M141.850014,25.8484514 C140.241661,25.8799261 138.617463,25.8799261 138.459817,25.8799261 L138.459817,24.6823037 L146.549116,24.6823037 L146.549116,25.8799261 C146.391469,25.8799261 144.798762,25.8799261 143.174762,25.8484514 L143.174762,35.399737 L141.850014,35.399737 L141.850014,25.8484514" id="Fill-45" fill="#3B3B3B"></path>
                <path d="M148.456523,24.6823037 L154.716645,24.6823037 L154.716645,25.8957624 C154.558998,25.8957624 151.43676,25.8957624 149.781073,25.8799261 C149.781073,26.0376955 149.781073,28.4648108 149.765229,29.2528661 C151.279114,29.2372277 153.991391,29.2372277 154.149038,29.2372277 L154.149038,30.387737 C153.991391,30.387737 151.279114,30.387737 149.765229,30.3719006 C149.781073,32.0584696 149.781073,34.0443452 149.781073,34.2019167 C151.499938,34.1860804 154.716645,34.1860804 154.87449,34.1860804 L154.87449,35.399737 L148.456523,35.399737 L148.456523,24.6823037" id="Fill-46" fill="#3B3B3B"></path>
                <path d="M20.4982331,25.0905218 C20.3995383,25.0905218 20.2994451,25.1077824 20.2031477,25.1434803 C19.7590213,25.3045131 19.5318636,25.7891807 19.6972872,26.2242243 C19.865308,26.6853548 20.0842745,27.1296171 20.3364056,27.5450465 C21.774672,29.8993424 24.4058662,31.3631523 27.2002865,31.3631523 C27.6777773,31.3631523 28.0607689,30.9861668 28.0617678,30.5209173 C28.0617678,30.0554716 27.6777773,29.6792707 27.2002865,29.6792707 C24.9730614,29.6792707 22.9552131,28.5579252 21.8110332,26.6761361 C21.6096479,26.350736 21.4414273,26.0029758 21.3049728,25.6422701 C21.1779083,25.3015709 20.8484596,25.0905218 20.4982331,25.0905218" id="Fill-51" fill="#3A3A3A"></path>
                <path d="M19.9737559,22.6144835 C19.5171936,22.6144835 19.1480298,22.9848494 19.1480298,23.4393548 C19.1480298,23.8959494 19.5171936,24.2651757 19.9737559,24.2651757 C20.4293683,24.2651757 20.798722,23.8959494 20.798722,23.4393548 C20.798722,22.9848494 20.4293683,22.6144835 19.9737559,22.6144835" id="Fill-52" fill="#3A3A3A"></path>
                <path d="M29.5298643,7.42811502 L24.9523062,7.42811502 C22.3473306,7.42811502 21.7697038,9.09585058 21.7435112,10.4947878 L21.7433128,11.1468214 C21.7433128,12.5340975 20.810895,13.7000103 19.7308461,15.050722 C19.2587835,15.635556 18.8295817,16.1747338 18.4184368,16.767869 L18.3976018,16.767869 L17.9693921,17.4161473 C16.7968752,19.1929834 16.1767847,21.2850646 16.1767847,23.4656911 C16.1744035,29.5355923 21.13235,34.485237 27.2290803,34.4994675 L27.2356284,34.4994675 C33.3321603,34.485237 38.2934801,29.5359876 38.2960596,23.4660864 C38.2960596,21.2811117 37.6775565,19.1890305 36.5074208,17.4161473 L36.0700834,16.767869 L36.0571855,16.767869 C35.6329443,16.153981 35.1902493,15.6013633 34.7604521,15.0649525 L33.6309944,15.9626599 C34.0945245,16.5413669 34.5759132,17.1426055 35.0130522,17.7993826 L35.2908528,18.207126 L35.3001789,18.207126 C36.3177227,19.7485658 36.8510998,21.5548511 36.8510998,23.4660864 C36.8489171,28.7489619 32.5370554,33.0477589 27.2324536,33.0602105 C21.9308282,33.0477589 17.6197602,28.7489619 17.6219429,23.4660864 C17.6219429,21.5548511 18.159487,19.7485658 19.1768324,18.207126 L19.1911193,18.207126 L19.4619748,17.7993826 C19.9030824,17.1394432 20.386257,16.5358328 20.8569305,15.9523823 C22.0548463,14.4546221 23.1882726,13.0396756 23.1882726,11.1468214 L23.1882726,10.52147 C23.2106951,9.31484217 23.6887105,8.86737199 24.9523062,8.86737199 L29.5298643,8.86737199 C30.7944521,8.86737199 31.2724676,9.31484217 31.2919136,10.5040772 L31.2919136,11.1446473 C31.2919136,13.0396756 32.4251415,14.4546221 33.6244462,15.9545564 L33.6309944,15.9626599 L34.7501338,15.0519078 C33.6252399,13.6454601 32.7368734,12.5340975 32.7368734,11.1446473 L32.736675,10.4805573 C32.7043311,8.51220243 31.5653487,7.42811502 29.5298643,7.42811502" id="Fill-53" fill="#3A3A3A"></path>
                <path d="M30.876121,3.46645367 L23.4300709,3.46722974 C23.072276,3.46722974 22.7795527,3.8364431 22.7795527,4.2908297 C22.7795527,4.74657442 23.072276,5.1171459 23.4300709,5.1171459 L30.8753299,5.11636983 C31.2354982,5.11636983 31.5282215,4.74579835 31.5282215,4.2908297 C31.5282215,3.83566704 31.2354982,3.46645367 30.876121,3.46645367" id="Fill-54" fill="#3A3A3A"></path>
                <path d="M30.876121,0 L23.4300709,0.000776065927 C23.072276,0.000776065927 22.7795527,0.369795414 22.7795527,0.824182014 C22.7795527,1.27992673 23.072276,1.65069223 23.4300709,1.65069223 L30.8753299,1.64991616 C31.2354982,1.64991616 31.5282215,1.27915066 31.5282215,0.824182014 C31.5282215,0.369213365 31.2354982,0 30.876121,0" id="Fill-55" fill="#3A3A3A"></path>
            </g>
        </g>
    </g>
</svg>