<?xml version="1.0" encoding="UTF-8" standalone="no"?>
<svg width="176px" height="62px" viewBox="0 0 176 62" version="1.1" xmlns="http://www.w3.org/2000/svg" xmlns:xlink="http://www.w3.org/1999/xlink">
    <!-- Generator: Sketch 41.2 (35397) - http://www.bohemiancoding.com/sketch -->
    <title>logo-rectangular-blanco copy</title>
    <desc>Created with Sketch.</desc>
    <defs>
        <polygon id="path-1" points="0 55.5997609 171.930375 55.5997609 171.930375 0.000128735632 0 0.000128735632"></polygon>
    </defs>
    <g id="Page-1" stroke="none" stroke-width="1" fill="none" fill-rule="evenodd">
        <g id="logo-rectangular-blanco-copy">
            <g id="Page-1-Copy" transform="translate(2.000000, 3.000000)">
                <path d="M9.08692504,47.1937747 C8.07478111,46.5578207 7.77371664,45.2163954 8.40936882,44.2109701 C9.04631034,43.2042575 10.3788591,42.9055908 11.3852009,43.5473379 C12.3921874,44.1897287 12.6977646,45.5260046 12.0582444,46.5365793 C11.975081,46.671108 11.8745112,46.7992 11.7655607,46.9079816 C11.0686642,47.6070161 9.95401649,47.7486253 9.08692504,47.1937747 Z" id="Fill-1" fill="#73C5CE"></path>
                <path d="M2.8733928,37.8893425 C1.86253823,37.2521011 1.56147376,35.9106759 2.19712594,34.9058943 C2.83342279,33.8998253 4.16532684,33.6005149 5.17166867,34.2429057 C6.17865517,34.8852966 6.48423238,36.2215724 5.84471214,37.2321471 C5.76154873,37.3666759 5.66226837,37.4934805 5.55202849,37.6029057 C4.85448726,38.3025839 3.74048426,38.4441931 2.8733928,37.8893425" id="Fill-3" fill="#73C5CE"></path>
                <path d="M1.0102099,27.3447356 C-0.000644677661,26.7062069 -0.302998501,25.366069 0.332653673,24.3593563 C0.969595202,23.353931 2.30085457,23.0552644 3.30848576,23.6970115 C4.31547226,24.3394023 4.62104948,25.6750345 3.98023988,26.6862529 C3.89707646,26.8214253 3.7977961,26.9475862 3.68884558,27.0576552 C2.99065967,27.7566897 1.87730135,27.8982989 1.0102099,27.3447356" id="Fill-5" fill="#73C5CE"></path>
                <path d="M2.8733928,16.177177 C1.86253823,15.5405793 1.56147376,14.199154 2.19712594,13.1924414 C2.83342279,12.1876598 4.16532684,11.8883494 5.17166867,12.5307402 C6.17865517,13.1724874 6.48423238,14.5094069 5.84471214,15.5199816 C5.76154873,15.6545103 5.66226837,15.7813149 5.55202849,15.8907402 C4.85448726,16.5910621 3.74048426,16.7307402 2.8733928,16.177177" id="Fill-7" fill="#73C5CE"></path>
                <path d="M9.08692504,7.49318621 C8.07478111,6.85594483 7.77371664,5.51451954 8.40936882,4.5078069 C9.04631034,3.50366897 10.3788591,3.20371494 11.3852009,3.84546207 C12.3921874,4.48785287 12.6977646,5.82477241 12.0582444,6.8359908 C11.975081,6.96987586 11.8745112,7.09668046 11.7655607,7.20610575 C11.0686642,7.90514023 9.95401649,8.04674943 9.08692504,7.49318621" id="Fill-9" fill="#73C5CE"></path>
                <path d="M48.2293673,7.49318621 C47.2172234,6.85594483 46.9174483,5.51451954 47.5518111,4.5078069 C48.1887526,3.50366897 49.5213013,3.20371494 50.5282879,3.84546207 C51.5346297,4.48785287 51.8389175,5.82477241 51.200042,6.8359908 C51.1162339,6.96987586 51.0175982,7.09668046 50.908003,7.20610575 C50.2098171,7.90514023 49.0951694,8.04674943 48.2293673,7.49318621" id="Fill-11" fill="#73C5CE"></path>
                <path d="M54.4428996,16.7976184 C53.4307556,16.160377 53.1296912,14.8189517 53.7653433,13.8135264 C54.4009955,12.8081011 55.7348336,12.5081471 56.7398861,13.1511816 C57.7468726,13.7922851 58.0537391,15.1285609 57.4116402,16.1391356 C57.3304108,16.2749517 57.2298411,16.4024 57.1215352,16.5118253 C56.4233493,17.2108598 55.309991,17.352469 54.4428996,16.7976184" id="Fill-13" fill="#73C5CE"></path>
                <path d="M56.3060825,27.3447356 C55.2939385,26.7062069 54.9928741,25.366069 55.6298156,24.3593563 C56.2654678,23.353931 57.5980165,23.0552644 58.605003,23.6970115 C59.6100555,24.3394023 59.916922,25.6750345 59.2767571,26.6862529 C59.1942384,26.8214253 59.0943133,26.9475862 58.9860075,27.0576552 C58.2865322,27.7566897 57.1731739,27.8982989 56.3060825,27.3447356" id="Fill-15" fill="#73C5CE"></path>
                <path d="M54.4428996,37.8893425 C53.4307556,37.2521011 53.1296912,35.9106759 53.7653433,34.9058943 C54.4009955,33.8998253 55.7348336,33.6005149 56.7398861,34.2429057 C57.7468726,34.8852966 58.0537391,36.2215724 57.4116402,37.2321471 C57.3304108,37.3666759 57.2298411,37.4934805 57.1215352,37.6029057 C56.4233493,38.3025839 55.309991,38.4441931 54.4428996,37.8893425" id="Fill-17" fill="#73C5CE"></path>
                <path d="M48.8494828,47.1937747 C47.8392729,46.5578207 47.5382084,45.2163954 48.1745052,44.2109701 C48.8101574,43.2042575 50.1427061,42.9055908 51.149048,43.5473379 C52.1560345,44.1897287 52.4616117,45.5260046 51.8208021,46.5365793 C51.736994,46.671108 51.6383583,46.7992 51.5294078,46.9079816 C50.8312219,47.6070161 49.7172189,47.7486253 48.8494828,47.1937747" id="Fill-19" fill="#73C5CE"></path>
                <path d="M39.5318921,53.3986391 C38.5197481,52.760754 38.2173943,51.4199724 38.8543358,50.4126161 C39.489988,49.4078345 40.8225367,49.1085241 41.8288786,49.7509149 C42.8358651,50.3939494 43.1414423,51.7295816 42.501922,52.7408 C42.4187586,52.8759724 42.3181889,53.002777 42.2098831,53.1109149 C41.5123418,53.8112368 40.3970495,53.9522023 39.5318921,53.3986391" id="Fill-21" fill="#73C5CE"></path>
                <path d="M28.3473148,55.2592552 C27.3358156,54.6226575 27.0353958,53.2805885 27.671048,52.2745195 C28.3067001,51.2684506 29.6386042,50.9697839 30.6455907,51.6128184 C31.6519325,52.2539218 31.9594438,53.5901977 31.3186342,54.6007724 C31.2348261,54.7365885 31.134901,54.8633931 31.0253058,54.9734621 C30.3277646,55.6712092 29.215051,55.8141057 28.3473148,55.2592552" id="Fill-23" fill="#73C5CE"></path>
                <path d="M17.7847226,53.3986391 C16.7738681,52.760754 16.4728036,51.4199724 17.1084558,50.4126161 C17.7447526,49.4078345 19.0766567,49.1085241 20.0842879,49.7509149 C21.0893403,50.3939494 21.3955622,51.7295816 20.756042,52.7408 C20.6728786,52.8759724 20.5723088,53.002777 20.4633583,53.1109149 C19.7664618,53.8112368 18.6518141,53.9522023 17.7847226,53.3986391" id="Fill-25" fill="#73C5CE"></path>
                <path d="M14.6038186,41.5326897 C13.825048,41.0409195 13.592964,40.0091034 14.0816297,39.2334713 C14.57094,38.4578391 15.5992009,38.228046 16.3734588,38.7223908 C17.149006,39.2173793 17.3843133,40.2472644 16.8917796,41.0248276 C16.8279565,41.1297471 16.7512399,41.2275862 16.6674318,41.3106207 C16.1297706,41.850023 15.27106,41.9594483 14.6038186,41.5326897" id="Fill-27" fill="#F9B125"></path>
                <path d="M10.0441424,34.7055816 C9.26537181,34.2131678 9.03393253,33.1813517 9.52453223,32.4063632 C10.0138426,31.630731 11.0395247,31.3996506 11.815072,31.8952828 C12.5906192,32.3889839 12.8259265,33.418869 12.3333928,34.1977195 C12.2682804,34.3026391 12.1928531,34.3991908 12.109045,34.4848 C11.5713838,35.0229149 10.7126732,35.1310529 10.0441424,34.7055816" id="Fill-29" fill="#E8453B"></path>
                <path d="M8.67671664,26.9676046 C7.89794603,26.4751908 7.66650675,25.442731 8.15581709,24.6670989 C8.64512744,23.892754 9.67209895,23.6629609 10.4476462,24.1573057 C11.2231934,24.6522943 11.4572114,25.680892 10.9646777,26.4597425 C10.9008546,26.5633747 10.8254273,26.6612138 10.7409745,26.746823 C10.2026687,27.2849379 9.34524738,27.3930759 8.67671664,26.9676046" id="Fill-31" fill="#D3326F"></path>
                <path d="M10.0441424,18.7739034 C9.26537181,18.2821333 9.03393253,17.2503172 9.52453223,16.4759724 C10.0138426,15.7003402 11.0395247,15.4679724 11.815072,15.9636046 C12.5906192,16.4585931 12.8259265,17.4897655 12.3333928,18.2666851 C12.2682804,18.3709609 12.1928531,18.4700874 12.109045,18.5531218 C11.5713838,19.0912368 10.7126732,19.2019494 10.0441424,18.7739034" id="Fill-33" fill="#73C5CE"></path>
                <path d="M14.6038186,12.4024552 C13.825048,11.9093977 13.592964,10.8775816 14.0816297,10.1032368 C14.57094,9.3276046 15.5992009,9.09588046 16.3734588,9.59086897 C17.149006,10.0858575 17.3843133,11.1170299 16.8917796,11.8945931 C16.8279565,11.9995126 16.7512399,12.0973517 16.6674318,12.1803862 C16.1297706,12.7197885 15.27106,12.8292138 14.6038186,12.4024552" id="Fill-35" fill="#73C5CE"></path>
                <path d="M43.3240795,12.4024552 C42.5433748,11.9093977 42.3125802,10.8775816 42.8012459,10.1032368 C43.2918456,9.3276046 44.3181724,9.09588046 45.0937196,9.59086897 C45.8692669,10.0858575 46.1058636,11.1170299 45.6120405,11.8945931 C45.5488621,11.9995126 45.4727901,12.0973517 45.3864033,12.1803862 C44.8500315,12.7197885 43.9913208,12.8292138 43.3240795,12.4024552" id="Fill-37" fill="#F9B125"></path>
                <path d="M47.8824663,19.2289839 C47.1036957,18.7365701 46.8703223,17.704754 47.3615667,16.9291218 C47.8508771,16.1554207 48.8765592,15.9243402 49.6533958,16.4193287 C50.428943,16.9130299 50.662961,17.9435586 50.1704273,18.7224092 C50.1059595,18.8266851 50.0311769,18.9232368 49.9454348,19.008846 C49.409063,19.5463172 48.550997,19.6550989 47.8824663,19.2289839" id="Fill-39" fill="#E8453B"></path>
                <path d="M49.2498921,26.9676046 C48.4704768,26.4751908 48.2390375,25.442731 48.7283478,24.6670989 C49.2183028,23.892754 50.2446297,23.6629609 51.0195322,24.1573057 C51.7963688,24.6522943 52.0316762,25.680892 51.5391424,26.4597425 C51.4746747,26.5633747 51.3986027,26.6612138 51.3135052,26.746823 C50.7751994,27.2849379 49.9184228,27.3930759 49.2498921,26.9676046" id="Fill-41" fill="#D3326F"></path>
                <path d="M47.8824663,34.7055816 C47.1036957,34.2131678 46.8703223,33.1813517 47.3615667,32.4063632 C47.8508771,31.630731 48.8765592,31.3996506 49.6533958,31.8952828 C50.428943,32.3889839 50.662961,33.4201563 50.1704273,34.1990069 C50.1059595,34.3026391 50.0311769,34.3991908 49.9454348,34.4848 C49.409063,35.0229149 48.550997,35.1310529 47.8824663,34.7055816" id="Fill-43" fill="#73C5CE"></path>
                <path d="M43.778964,41.5326897 C43.0001934,41.0409195 42.7693988,40.0091034 43.2580645,39.2334713 C43.7486642,38.4578391 44.7743463,38.228046 45.5498936,38.7223908 C46.3254408,39.2173793 46.5601034,40.2472644 46.0675697,41.0248276 C46.0043913,41.1297471 45.9276747,41.2275862 45.8432219,41.3106207 C45.3055607,41.850023 44.4481394,41.9594483 43.778964,41.5326897" id="Fill-45" fill="#77B5BE"></path>
                <path d="M36.9411904,46.084331 C36.1611304,45.5919172 35.9303358,44.5594575 36.4190015,43.7838253 C36.9096012,43.0107678 37.9352834,42.7796874 38.7108306,43.2740322 C39.4876672,43.7677333 39.7229745,44.7989057 39.2291514,45.5777563 C39.1653283,45.6813885 39.089901,45.7779402 39.0041589,45.8635494 C38.4677871,46.4016644 37.6084318,46.5117333 36.9411904,46.084331" id="Fill-47" fill="#73C5CE"></path>
                <path d="M28.7347661,47.4502805 C27.9572849,46.957223 27.7252009,45.9247632 28.2138666,45.1504184 C28.7031769,44.3747862 29.7301484,44.1437057 30.5056957,44.6393379 C31.2812429,45.1336828 31.5165502,46.1642115 31.0233718,46.9417747 C30.9601934,47.0466943 30.8834768,47.1438897 30.7996687,47.2275678 C30.2613628,47.7676138 29.4020075,47.8757517 28.7347661,47.4502805" id="Fill-49" fill="#73C5CE"></path>
                <path d="M20.9863853,46.084331 C20.2063253,45.5919172 19.9742414,44.5594575 20.462907,43.7838253 C20.9547961,43.0107678 21.9817676,42.7796874 22.7560255,43.2740322 C23.5315727,43.7677333 23.7681694,44.7989057 23.2737016,45.5777563 C23.2092339,45.6813885 23.1338066,45.7779402 23.0493538,45.8635494 C22.5116927,46.4016644 21.6536267,46.5117333 20.9863853,46.084331" id="Fill-51" fill="#73C5CE"></path>
                <path d="M78.9868741,19.8337195 C78.0482234,20.682731 76.8794228,21.3592368 75.0904423,21.3592368 C71.6014468,21.3592368 70.2908171,18.1170299 70.2908171,15.0659954 C70.2908171,12.0490759 71.7787331,9.06691494 75.1084933,9.06691494 C76.6312219,9.06691494 77.6942954,9.44861609 78.6503523,10.0382253 L77.888988,11.1826851 C77.1276237,10.6452138 76.2418366,10.3677885 75.1968141,10.3677885 C72.6819265,10.3677885 71.8496477,13.0030069 71.8496477,15.0659954 C71.8496477,17.1116046 72.5936057,20.0763862 75.2503223,20.0763862 C76.3482084,20.0763862 77.3397226,19.6077885 78.1720015,18.8456736 L78.9868741,19.8337195 Z" id="Fill-53" fill="#FEFEFE"></path>
                <mask id="mask-2" fill="white">
                    <use xlink:href="#path-1"></use>
                </mask>
                <g id="Clip-56"></g>
                <polygon id="Fill-55" fill="#FEFEFE" mask="url(#mask-2)" points="82.44009 21.1507494 83.9454123 21.1507494 83.9454123 9.36178391 82.44009 9.36178391"></polygon>
                <path d="M88.2314873,9.36197701 L89.7194033,9.36197701 L89.7194033,17.1981149 C89.7194033,19.8854713 91.2421319,20.1287816 92.6230315,20.1287816 C94.6421619,20.1287816 95.333901,19.0184368 95.333901,17.8051034 L95.333901,9.36197701 L96.8211724,9.36197701 L96.8211724,17.684092 C96.8211724,19.9376092 95.0857001,21.3594943 92.5701679,21.3594943 C90.3743958,21.3594943 88.2314873,20.804 88.2314873,17.1466207 L88.2314873,9.36197701 Z" id="Fill-57" fill="#FEFEFE" mask="url(#mask-2)"></path>
                <path d="M103.99334,19.8852138 C105.641136,19.8852138 108.119922,19.8504552 108.119922,15.2565241 C108.119922,10.6973517 105.641136,10.6271908 103.99334,10.6271908 L102.59439,10.6271908 L102.59439,19.8852138 L103.99334,19.8852138 Z M101.106474,9.36171954 L104.61352,9.36171954 C105.410342,9.36171954 109.678108,9.36171954 109.678108,15.2565241 C109.678108,21.1513287 105.410342,21.1513287 104.61352,21.1513287 L101.106474,21.1513287 L101.106474,9.36171954 Z" id="Fill-58" fill="#FEFEFE" mask="url(#mask-2)"></path>
                <path d="M117.9666,13.5578575 C117.559163,12.3438805 117.329658,11.5296276 117.134321,10.9400184 L117.098864,10.9400184 C116.922222,11.5296276 116.674021,12.3438805 116.249178,13.5578575 L115.239613,16.4357425 C115.824336,16.4177195 116.514786,16.4177195 117.081457,16.4177195 C117.648129,16.4177195 118.374036,16.4177195 118.923301,16.4357425 L117.9666,13.5578575 Z M120.481487,21.1513287 L119.259823,17.6484322 L114.849583,17.6484322 L113.592462,21.1513287 L112.034276,21.1513287 C113.450633,17.2158805 114.991412,12.950869 116.319448,9.34498391 L117.984651,9.34498391 C119.259823,12.950869 120.747094,17.2158805 122.111232,21.1513287 L120.481487,21.1513287 Z" id="Fill-59" fill="#FEFEFE" mask="url(#mask-2)"></path>
                <path d="M128.274544,19.8852138 C129.921696,19.8852138 132.400481,19.8504552 132.400481,15.2565241 C132.400481,10.6973517 129.921696,10.6271908 128.274544,10.6271908 L126.874949,10.6271908 L126.874949,19.8852138 L128.274544,19.8852138 Z M125.387033,9.36171954 L128.894079,9.36171954 C129.690901,9.36171954 133.959312,9.36171954 133.959312,15.2565241 C133.959312,21.1513287 129.690901,21.1513287 128.894079,21.1513287 L125.387033,21.1513287 L125.387033,9.36171954 Z" id="Fill-60" fill="#FEFEFE" mask="url(#mask-2)"></path>
                <path d="M142.247804,13.5578575 C141.840367,12.3438805 141.610217,11.5296276 141.415525,10.9400184 L141.379423,10.9400184 C141.202781,11.5296276 140.95458,12.3438805 140.529738,13.5578575 L139.520172,16.4357425 C140.104895,16.4177195 140.795345,16.4177195 141.362016,16.4177195 C141.928688,16.4177195 142.65524,16.4177195 143.203861,16.4357425 L142.247804,13.5578575 Z M144.762046,21.1513287 L143.540382,17.6484322 L139.130142,17.6484322 L137.873021,21.1513287 L136.314835,21.1513287 C137.731192,17.2158805 139.272616,12.950869 140.600007,9.34498391 L142.26521,9.34498391 C143.540382,12.950869 145.027654,17.2158805 146.391792,21.1513287 L144.762046,21.1513287 Z" id="Fill-61" fill="#FEFEFE" mask="url(#mask-2)"></path>
                <path d="M149.66785,9.36197701 L151.385916,9.36197701 L155.654327,16.5048736 C156.044357,17.1466207 156.504012,18.0130115 156.841178,18.8452874 L156.894042,18.8452874 C156.858585,17.5102989 156.841178,16.417977 156.841178,15.2741609 L156.841178,9.36197701 L158.310399,9.36197701 L158.310399,21.1509425 L156.645841,21.1509425 L152.37743,14.0254253 C151.969994,13.3495632 151.59866,12.5868046 151.120309,11.5807356 L151.067445,11.5807356 C151.120309,12.8816092 151.120309,14.0254253 151.120309,15.1525057 L151.137715,21.1509425 L149.66785,21.1509425 L149.66785,9.36197701 Z" id="Fill-62" fill="#FEFEFE" mask="url(#mask-2)"></path>
                <path d="M170.353622,15.0834391 C170.353622,13.0030713 169.521343,10.3330943 166.953592,10.3330943 C164.420654,10.3330943 163.570969,13.0030713 163.570969,15.0834391 C163.570969,17.0942897 164.349739,20.1285885 166.953592,20.1285885 C169.592258,20.1285885 170.353622,17.0942897 170.353622,15.0834391 M162.012783,15.0834391 C162.012783,12.0317609 163.535511,9.06697931 166.953592,9.06697931 C170.371673,9.06697931 171.929859,12.0317609 171.929859,15.0834391 C171.929859,18.1170943 170.566366,21.3593011 166.953592,21.3593011 C163.35758,21.3593011 162.012783,18.1170943 162.012783,15.0834391" id="Fill-63" fill="#FEFEFE" mask="url(#mask-2)"></path>
                <polygon id="Fill-64" fill="#FEFEFE" mask="url(#mask-2)" points="71.8402999 39.1222437 73.3398201 39.1222437 73.3398201 27.1472552 71.8402999 27.1472552"></polygon>
                <path d="M76.6197466,27.1473839 L78.3307211,27.1473839 L82.5817256,34.4029241 C82.9698216,35.0543264 83.4281874,35.9348782 83.7634198,36.7806713 L83.8162834,36.7806713 C83.7808261,35.4244414 83.7634198,34.3153839 83.7634198,33.1522575 L83.7634198,27.1473839 L85.2274828,27.1473839 L85.2274828,39.1223724 L83.5693718,39.1223724 L79.3183673,31.8842115 C78.9128651,31.1980506 78.5421754,30.4230621 78.0664033,29.4015448 L78.0135397,29.4015448 C78.0664033,30.7223724 78.0664033,31.8842115 78.0664033,33.0293149 L78.0838096,39.1223724 L76.6197466,39.1223724 L76.6197466,27.1473839 Z" id="Fill-65" fill="#FEFEFE" mask="url(#mask-2)"></path>
                <path d="M91.1174513,28.450446 C89.3188006,28.4858483 87.502099,28.4858483 87.3254573,28.4858483 L87.3254573,27.1476414 L96.3735082,27.1476414 L96.3735082,28.4858483 C96.1975112,28.4858483 94.4156222,28.4858483 92.5995652,28.450446 L92.5995652,39.1226299 L91.1174513,39.1226299 L91.1174513,28.450446 Z" id="Fill-66" fill="#FEFEFE" mask="url(#mask-2)"></path>
                <path d="M98.5072624,27.1473839 L105.509106,27.1473839 L105.509106,28.5029701 C105.333109,28.5029701 101.840891,28.5029701 99.9887316,28.4855908 C99.9887316,28.6619586 99.9887316,31.3737747 99.9713253,32.2549701 C101.664249,32.2363034 104.698747,32.2363034 104.874744,32.2363034 L104.874744,33.5223724 C104.698747,33.5223724 101.664249,33.5223724 99.9713253,33.5049931 C99.9887316,35.3896828 99.9887316,37.6084414 99.9887316,37.7841655 C101.91116,37.7667862 105.509106,37.7667862 105.686393,37.7667862 L105.686393,39.1223724 L98.5072624,39.1223724 L98.5072624,27.1473839 Z" id="Fill-67" fill="#FEFEFE" mask="url(#mask-2)"></path>
                <path d="M108.27819,27.1473839 L109.75966,27.1473839 C109.75966,27.323108 109.742253,36.093223 109.724202,37.8021885 C111.647276,37.7667862 114.592808,37.7667862 114.768805,37.7667862 L114.768805,39.1223724 L108.27819,39.1223724 L108.27819,27.1473839 Z" id="Fill-68" fill="#FEFEFE" mask="url(#mask-2)"></path>
                <polygon id="Fill-69" fill="#FEFEFE" mask="url(#mask-2)" points="116.902624 39.1222437 118.401499 39.1222437 118.401499 27.1472552 116.902624 27.1472552"></polygon>
                <path d="M126.867471,39.2634667 C123.005207,39.2634667 120.976406,36.7280184 120.976406,32.9586391 C120.976406,29.5072368 122.704787,26.8482023 126.356241,26.8482023 C127.485072,26.8482023 128.64936,27.1121103 129.672463,27.6399264 L129.054862,28.8558345 C128.331534,28.4329379 127.220754,28.1690299 126.180244,28.1690299 C123.516436,28.1690299 122.52879,30.3350069 122.52879,32.9586391 C122.52879,35.8822253 123.798805,38.0134437 126.955792,38.0134437 C127.520529,38.0134437 128.031759,37.9780414 128.472718,37.7669149 C128.472718,37.6253057 128.472718,35.8822253 128.508175,33.5051218 C127.061519,33.5398805 126.691474,33.5398805 126.514832,33.5398805 L126.514832,32.2364322 L129.954187,32.2364322 L129.954187,38.7697655 C129.230859,39.0697195 128.049165,39.2634667 126.867471,39.2634667" id="Fill-70" fill="#FEFEFE" mask="url(#mask-2)"></path>
                <path d="M133.093252,27.1473839 L140.095096,27.1473839 L140.095096,28.5029701 C139.919099,28.5029701 136.42688,28.5029701 134.574721,28.4855908 C134.574721,28.6619586 134.574721,31.3737747 134.557315,32.2549701 C136.250238,32.2363034 139.284091,32.2363034 139.460088,32.2363034 L139.460088,33.5223724 C139.284091,33.5223724 136.250238,33.5223724 134.557315,33.5049931 C134.574721,35.3896828 134.574721,37.6084414 134.574721,37.7841655 C136.49715,37.7667862 140.095096,37.7667862 140.271738,37.7667862 L140.271738,39.1223724 L133.093252,39.1223724 L133.093252,27.1473839 Z" id="Fill-71" fill="#FEFEFE" mask="url(#mask-2)"></path>
                <path d="M142.864115,27.1473839 L144.574445,27.1473839 L148.82545,34.4029241 C149.213546,35.0543264 149.672556,35.9348782 150.007144,36.7806713 L150.060007,36.7806713 C150.02455,35.4244414 150.007144,34.3153839 150.007144,33.1522575 L150.007144,27.1473839 L151.471207,27.1473839 L151.471207,39.1223724 L149.813096,39.1223724 L145.562736,31.8842115 C145.157234,31.1980506 144.7859,30.4230621 144.310127,29.4015448 L144.257264,29.4015448 C144.310127,30.7223724 144.310127,31.8842115 144.310127,33.0293149 L144.328178,39.1223724 L142.864115,39.1223724 L142.864115,27.1473839 Z" id="Fill-72" fill="#FEFEFE" mask="url(#mask-2)"></path>
                <path d="M157.36182,28.450446 C155.562525,28.4858483 153.746468,28.4858483 153.569181,28.4858483 L153.569181,27.1476414 L162.617877,27.1476414 L162.617877,28.4858483 C162.441235,28.4858483 160.659991,28.4858483 158.843289,28.450446 L158.843289,39.1226299 L157.36182,39.1226299 L157.36182,28.450446 Z" id="Fill-73" fill="#FEFEFE" mask="url(#mask-2)"></path>
                <path d="M164.751051,27.1473839 L171.75354,27.1473839 L171.75354,28.5029701 C171.577543,28.5029701 168.085324,28.5029701 166.233165,28.4855908 C166.233165,28.6619586 166.233165,31.3737747 166.215114,32.2549701 C167.908037,32.2363034 170.942535,32.2363034 171.118532,32.2363034 L171.118532,33.5223724 C170.942535,33.5223724 167.908037,33.5223724 166.215114,33.5049931 C166.233165,35.3896828 166.233165,37.6084414 166.233165,37.7841655 C168.155594,37.7667862 171.75354,37.7667862 171.930181,37.7667862 L171.930181,39.1223724 L164.751051,39.1223724 L164.751051,27.1473839 Z" id="Fill-74" fill="#FEFEFE" mask="url(#mask-2)"></path>
                <path d="M22.3456237,27.595577 C22.7279175,27.595577 23.087003,27.8292322 23.2256087,28.2077149 C23.3751739,28.6080828 23.5582624,28.9949333 23.7787421,29.3560368 C25.0274828,31.4447724 27.2303463,32.689646 29.6614258,32.689646 C30.1823253,32.689646 30.6020105,33.1073931 30.6020105,33.623623 C30.6007211,34.1404966 30.1823253,34.5588874 29.6614258,34.5588874 C26.6114558,34.5588874 23.7387721,32.9342437 22.168982,30.3202667 C21.8937046,29.8593931 21.6545292,29.365692 21.4714408,28.8539678 C21.2902864,28.3712092 21.5384873,27.8330943 22.0232849,27.6541517 C22.1283673,27.6148874 22.2379625,27.595577 22.3456237,27.595577" id="Fill-75" fill="#FEFEFE" mask="url(#mask-2)"></path>
                <path d="M22.7517061,25.8329931 C22.7517061,26.3563034 22.3275082,26.7798437 21.8046747,26.7798437 C21.2805517,26.7798437 20.8569985,26.3563034 20.8569985,25.8329931 C20.8569985,25.3116138 21.2805517,24.8874299 21.8046747,24.8874299 C22.3275082,24.8874299 22.7517061,25.3116138 22.7517061,25.8329931" id="Fill-76" fill="#FEFEFE" mask="url(#mask-2)"></path>
                <path d="M39.9112204,19.1799356 L39.4302909,18.4654529 L39.4161079,18.4654529 C38.950006,17.7889471 38.4632744,17.1806713 37.9907256,16.589131 L36.7497211,17.5784644 C37.2590165,18.2157057 37.7889415,18.8774069 38.2685817,19.6015448 L38.5741589,20.0508322 L38.5844738,20.0508322 C39.7023448,21.7488552 40.2890015,23.739108 40.2890015,25.8445793 C40.2864228,31.6647172 35.5473973,36.4009011 29.7175772,36.4144184 C23.8909805,36.4009011 19.1525997,31.6647172 19.1551784,25.8445793 C19.1551784,23.739108 19.7457031,21.7488552 20.8642189,20.0508322 L20.8796912,20.0508322 L21.1768876,19.6015448 C21.6616852,18.8741885 22.1935442,18.209269 22.7105757,17.5668782 C24.0270075,15.917131 25.2725247,14.3581425 25.2725247,12.2726253 L25.2725247,11.583246 C25.2976672,10.2546943 25.8224348,9.7609931 27.2117151,9.7609931 L29.8594063,9.7609931 L32.2421349,9.7609931 C33.63206,9.7609931 34.1574723,10.2546943 34.1787466,11.5645793 L34.1787466,12.2700506 C34.1787466,14.3581425 35.4249085,15.917131 36.7426297,17.5688092 C36.7445637,17.5720276 36.7471424,17.575246 36.7497211,17.5784644 L37.9797661,16.5743264 C36.7432744,15.0249931 35.7672324,13.8013609 35.7672324,12.2700506 L35.7665877,11.5388322 C35.7317751,9.37028046 34.4798111,8.17561379 32.2421349,8.17561379 L27.2117151,8.17561379 C24.3487016,8.17561379 23.7136942,10.0133149 23.6853283,11.5536368 L23.6846837,12.2726253 C23.6846837,13.8013609 22.6602909,15.0854989 21.4727946,16.5730391 C20.9544738,17.2173609 20.4825697,17.8114759 20.0306507,18.4654529 L20.0074423,18.4654529 L19.5368276,19.1799356 C18.2481169,21.1367172 17.5666927,23.4417287 17.5666927,25.8445793 C17.5641139,32.531108 23.0135742,37.9843494 29.7137091,37.9997977 L29.7175772,37.9997977 L29.7208006,37.9997977 C36.4209355,37.9843494 41.8742639,32.5317517 41.8768426,25.8445793 C41.8768426,23.437223 41.1973523,21.1322115 39.9112204,19.1799356" id="Fill-77" fill="#FEFEFE" mask="url(#mask-2)"></path>
                <path d="M33.9148801,3.80709885 L25.70491,3.80838621 C25.3097226,3.80838621 24.9873838,4.22291494 24.9873838,4.73206437 C24.9873838,5.24378851 25.3097226,5.6596046 25.70491,5.6596046 L33.9142354,5.65896092 C34.3107121,5.65896092 34.6336957,5.24250115 34.6336957,4.73206437 C34.6336957,4.22227126 34.3107121,3.80709885 33.9148801,3.80709885" id="Fill-78" fill="#FEFEFE" mask="url(#mask-2)"></path>
                <path d="M33.9148801,-0.000257471264 L25.70491,0.00102988506 C25.3097226,0.00102988506 24.9873838,0.415558621 24.9873838,0.924708046 C24.9873838,1.43643218 25.3097226,1.85289195 25.70491,1.85289195 L33.9142354,1.8516046 C34.3107121,1.8516046 34.6336957,1.43578851 34.6336957,0.924708046 C34.6336957,0.414914943 34.3107121,-0.000257471264 33.9148801,-0.000257471264" id="Fill-79" fill="#FEFEFE" mask="url(#mask-2)"></path>
            </g>
        </g>
    </g>
</svg>