<?xml version="1.0" encoding="utf-8"?>
<!-- Generator: Adobe Illustrator 22.0.1, SVG Export Plug-In . SVG Version: 6.00 Build 0)  -->
<svg version="1.1" id="Capa_1" xmlns="http://www.w3.org/2000/svg" xmlns:xlink="http://www.w3.org/1999/xlink" x="0px" y="0px"
	 viewBox="0 0 155 51" style="enable-background:new 0 0 155 51;" xml:space="preserve">
<style type="text/css">
	.st0{fill:#111111;}
	.st1{fill:#17BBC2;}
	.st2{fill:#D3326F;}
	.st3{fill:#E8453B;}
	.st4{fill:#F8B126;}
</style>
<title>Group</title>
<desc>Created with Sketch.</desc>
<g id="logo-fci">
	<g id="logo-ci" transform="translate(52.000000, 35.000000)">
		<path id="Ciudadanía-Inteligen" class="st0" d="M0.5-29.6c1.2,0,2.2,0.3,3,0.9C4.3-28,4.8-27.1,5-26H2.6c-0.2-0.4-0.5-0.8-0.8-1
			c-0.4-0.2-0.8-0.4-1.3-0.4c-0.7,0-1.2,0.2-1.6,0.7s-0.6,1.1-0.6,2c0,0.8,0.2,1.5,0.6,2s0.9,0.7,1.6,0.7c0.5,0,0.9-0.1,1.3-0.4
			c0.4-0.2,0.7-0.6,0.8-1H5c-0.2,1.1-0.8,1.9-1.5,2.6c-0.8,0.6-1.8,1-3,1c-0.9,0-1.7-0.2-2.4-0.6c-0.7-0.4-1.2-1-1.6-1.7
			C-4-23-4.2-23.8-4.2-24.7c0-0.9,0.2-1.8,0.6-2.5C-3.2-28-2.7-28.5-2-29S-0.5-29.6,0.5-29.6z M6.3-29.6c0-0.3,0.1-0.6,0.4-0.9
			c0.2-0.2,0.6-0.3,1-0.3c0.4,0,0.8,0.1,1,0.3C8.9-30.2,9-29.9,9-29.6c0,0.3-0.1,0.6-0.4,0.8c-0.2,0.2-0.6,0.3-1,0.3
			c-0.4,0-0.8-0.1-1-0.3C6.4-29,6.3-29.2,6.3-29.6z M8.8-27.5v7.5H6.5v-7.5H8.8z M18-27.5v7.5h-2.3v-1.4c-0.2,0.4-0.5,0.8-1,1
			c-0.4,0.3-0.9,0.4-1.5,0.4c-0.8,0-1.6-0.3-2-0.8c-0.5-0.6-0.8-1.4-0.8-2.4v-4.4h2.3v4.1c0,0.5,0.1,0.9,0.4,1.2
			c0.3,0.3,0.6,0.4,1.1,0.4c0.5,0,0.8-0.1,1.1-0.4c0.3-0.3,0.4-0.7,0.4-1.3v-4H18z M22.6-27.5c0.6,0,1.1,0.1,1.5,0.4
			c0.4,0.3,0.7,0.6,0.9,1.1v-3.8h2.3v9.9H25v-1.4c-0.2,0.4-0.5,0.8-0.9,1.1c-0.4,0.3-0.9,0.4-1.5,0.4c-0.6,0-1.2-0.1-1.7-0.5
			s-0.9-0.8-1.2-1.3c-0.3-0.6-0.4-1.3-0.4-2c0-0.8,0.1-1.5,0.4-2c0.3-0.6,0.7-1,1.2-1.3C21.5-27.4,22-27.5,22.6-27.5z M23.3-25.6
			c-0.5,0-0.9,0.2-1.2,0.5c-0.3,0.3-0.5,0.8-0.5,1.3c0,0.6,0.1,1,0.5,1.3c0.3,0.3,0.7,0.5,1.2,0.5s0.9-0.2,1.2-0.5
			c0.3-0.3,0.5-0.8,0.5-1.3s-0.1-1-0.5-1.3C24.2-25.4,23.8-25.6,23.3-25.6z M31.9-27.5c0.6,0,1.1,0.1,1.5,0.4
			c0.4,0.3,0.7,0.6,0.9,1.1v-1.4h2.3v7.5h-2.3v-1.4c-0.2,0.4-0.5,0.8-0.9,1.1c-0.4,0.3-0.9,0.4-1.5,0.4c-0.6,0-1.2-0.1-1.7-0.5
			s-0.9-0.8-1.2-1.3c-0.3-0.6-0.4-1.3-0.4-2c0-0.8,0.1-1.5,0.4-2c0.3-0.6,0.7-1,1.2-1.3C30.7-27.4,31.3-27.5,31.9-27.5z M32.6-25.6
			c-0.5,0-0.9,0.2-1.2,0.5S31-24.3,31-23.7c0,0.6,0.1,1,0.5,1.3c0.3,0.3,0.7,0.5,1.2,0.5c0.5,0,0.9-0.2,1.2-0.5
			c0.3-0.3,0.5-0.8,0.5-1.3s-0.1-1-0.5-1.3C33.5-25.4,33.1-25.6,32.6-25.6z M41.2-27.5c0.6,0,1.1,0.1,1.5,0.4
			c0.4,0.3,0.7,0.6,0.9,1.1v-3.8h2.3v9.9h-2.3v-1.4c-0.2,0.4-0.5,0.8-0.9,1.1s-0.9,0.4-1.5,0.4c-0.6,0-1.2-0.1-1.7-0.5
			c-0.5-0.3-0.9-0.8-1.2-1.3c-0.3-0.6-0.4-1.3-0.4-2c0-0.8,0.1-1.5,0.4-2c0.3-0.6,0.7-1,1.2-1.3C40-27.4,40.6-27.5,41.2-27.5z
			 M41.9-25.6c-0.5,0-0.9,0.2-1.2,0.5s-0.5,0.8-0.5,1.3c0,0.6,0.1,1,0.5,1.3c0.3,0.3,0.7,0.5,1.2,0.5c0.5,0,0.9-0.2,1.2-0.5
			c0.3-0.3,0.5-0.8,0.5-1.3s-0.1-1-0.5-1.3C42.8-25.4,42.4-25.6,41.9-25.6z M50.5-27.5c0.6,0,1.1,0.1,1.5,0.4
			c0.4,0.3,0.7,0.6,0.9,1.1v-1.4h2.3v7.5h-2.3v-1.4c-0.2,0.4-0.5,0.8-0.9,1.1c-0.4,0.3-0.9,0.4-1.5,0.4c-0.6,0-1.2-0.1-1.7-0.5
			c-0.5-0.3-0.9-0.8-1.2-1.3c-0.3-0.6-0.4-1.3-0.4-2c0-0.8,0.1-1.5,0.4-2c0.3-0.6,0.7-1,1.2-1.3C49.3-27.4,49.9-27.5,50.5-27.5z
			 M51.2-25.6c-0.5,0-0.9,0.2-1.2,0.5s-0.5,0.8-0.5,1.3c0,0.6,0.1,1,0.5,1.3c0.3,0.3,0.7,0.5,1.2,0.5s0.9-0.2,1.2-0.5
			c0.3-0.3,0.5-0.8,0.5-1.3s-0.1-1-0.5-1.3C52.1-25.4,51.7-25.6,51.2-25.6z M61.7-27.5c0.8,0,1.6,0.3,2,0.8c0.5,0.6,0.8,1.4,0.8,2.4
			v4.3h-2.3v-4.1c0-0.5-0.1-0.9-0.4-1.2c-0.3-0.3-0.6-0.4-1-0.4c-0.5,0-0.8,0.1-1.1,0.4c-0.3,0.3-0.4,0.7-0.4,1.3v4h-2.3v-7.5h2.3
			v1.4c0.2-0.4,0.5-0.8,1-1.1C60.6-27.4,61.1-27.5,61.7-27.5z M68.7-27.5v7.5h-2.3v-7.5H68.7z M69.5-29.4L66.3-28v-1.6l3.2-1.6
			V-29.4z M73.6-27.5c0.6,0,1.1,0.1,1.5,0.4c0.4,0.3,0.7,0.6,0.9,1.1v-1.4h2.3v7.5H76v-1.4c-0.2,0.4-0.5,0.8-0.9,1.1
			c-0.4,0.3-0.9,0.4-1.5,0.4c-0.6,0-1.2-0.1-1.7-0.5s-0.9-0.8-1.2-1.3c-0.3-0.6-0.4-1.3-0.4-2c0-0.8,0.1-1.5,0.4-2
			c0.3-0.6,0.7-1,1.2-1.3C72.4-27.4,73-27.5,73.6-27.5z M74.3-25.6c-0.5,0-0.9,0.2-1.2,0.5c-0.3,0.3-0.5,0.8-0.5,1.3
			c0,0.6,0.1,1,0.5,1.3c0.3,0.3,0.7,0.5,1.2,0.5s0.9-0.2,1.2-0.5s0.5-0.8,0.5-1.3s-0.1-1-0.5-1.3S74.8-25.6,74.3-25.6z M-1.6-15.3
			v9.5h-2.3v-9.5C-3.9-15.3-1.6-15.3-1.6-15.3z M5-13.4c0.8,0,1.6,0.3,2,0.8c0.5,0.6,0.8,1.4,0.8,2.4v4.3H5.4v-4.1
			c0-0.5-0.1-0.9-0.4-1.2c-0.3-0.3-0.6-0.4-1-0.4c-0.5,0-0.8,0.1-1.1,0.4c-0.3,0.3-0.4,0.7-0.4,1.3v4H0.2v-7.5h2.3v1.4
			c0.2-0.4,0.5-0.8,1-1.1C3.9-13.3,4.4-13.4,5-13.4z M13.7-7.8v2h-1c-0.9,0-1.6-0.2-2-0.7c-0.5-0.4-0.7-1.1-0.7-2.2v-2.7h-1v-1.9h1
			v-1.8h2.3v1.8h1.5v1.9h-1.5v2.8c0,0.3,0,0.5,0.2,0.6c0.1,0.1,0.3,0.2,0.6,0.2L13.7-7.8L13.7-7.8z M22.3-9.8c0,0.2,0,0.4-0.1,0.6
			H17c0,0.6,0.2,1,0.4,1.2c0.3,0.2,0.6,0.4,1,0.4c0.3,0,0.6-0.1,0.8-0.3c0.2-0.2,0.4-0.4,0.4-0.7h2.4c-0.1,0.5-0.3,1-0.7,1.4
			c-0.3,0.4-0.8,0.8-1.3,1c-0.5,0.2-1.1,0.4-1.7,0.4c-0.7,0-1.4-0.1-1.9-0.5c-0.6-0.3-1-0.8-1.3-1.3s-0.5-1.3-0.5-2s0.2-1.5,0.5-2
			c0.3-0.6,0.8-1,1.3-1.3s1.2-0.5,2-0.5c0.8,0,1.4,0.1,2,0.5c0.6,0.3,1,0.7,1.3,1.3C22.1-11.1,22.3-10.5,22.3-9.8z M20-10.1
			c0-0.5-0.1-0.8-0.4-1.1c-0.3-0.2-0.6-0.4-1-0.4c-0.4,0-0.8,0.1-1,0.4c-0.3,0.2-0.4,0.6-0.5,1.1L20-10.1L20-10.1z M26-15.7v9.9
			h-2.3v-9.9H26z M27.5-15.4c0-0.3,0.1-0.6,0.4-0.9c0.2-0.2,0.6-0.3,1-0.3c0.4,0,0.8,0.1,1,0.3c0.2,0.2,0.4,0.5,0.4,0.9
			c0,0.3-0.1,0.6-0.4,0.8c-0.2,0.2-0.6,0.3-1,0.3c-0.4,0-0.8-0.1-1-0.3C27.6-14.8,27.5-15.1,27.5-15.4z M30-13.3v7.5h-2.3v-7.5H30z
			 M34.7-13.4c0.6,0,1.1,0.1,1.5,0.4c0.4,0.3,0.7,0.6,0.9,1.1v-1.4h2.3v7.5c0,0.7-0.1,1.3-0.4,1.9c-0.3,0.6-0.7,1-1.2,1.3
			c-0.6,0.3-1.2,0.5-2.1,0.5c-1.1,0-2-0.3-2.7-0.8c-0.7-0.5-1.1-1.3-1.2-2.2H34c0.1,0.3,0.2,0.5,0.5,0.7c0.3,0.2,0.6,0.3,1,0.3
			c0.5,0,0.8-0.1,1.1-0.4C36.9-4.8,37-5.2,37-5.8v-1.3c-0.2,0.4-0.5,0.8-0.9,1.1c-0.4,0.3-0.9,0.4-1.5,0.4c-0.6,0-1.2-0.1-1.7-0.5
			c-0.5-0.3-0.9-0.8-1.2-1.3c-0.3-0.6-0.4-1.3-0.4-2s0.1-1.5,0.4-2c0.3-0.6,0.7-1,1.2-1.3C33.5-13.2,34.1-13.4,34.7-13.4z
			 M35.4-11.4c-0.5,0-0.9,0.2-1.2,0.5c-0.3,0.3-0.5,0.8-0.5,1.3s0.1,1,0.5,1.3c0.3,0.3,0.7,0.5,1.2,0.5c0.5,0,0.9-0.2,1.2-0.5
			C36.9-8.5,37-9,37-9.6s-0.1-1-0.5-1.3C36.3-11.2,35.9-11.4,35.4-11.4z M48.2-9.8c0,0.2,0,0.4-0.1,0.6H43c0,0.6,0.2,1,0.4,1.2
			c0.3,0.2,0.6,0.4,1,0.4c0.3,0,0.6-0.1,0.8-0.3c0.2-0.2,0.4-0.4,0.4-0.7h2.4c-0.1,0.5-0.3,1-0.7,1.4c-0.3,0.4-0.8,0.8-1.3,1
			c-0.5,0.2-1.1,0.4-1.7,0.4c-0.7,0-1.4-0.1-1.9-0.5c-0.6-0.3-1-0.8-1.3-1.3c-0.3-0.6-0.5-1.3-0.5-2s0.2-1.5,0.5-2
			c0.3-0.6,0.8-1,1.3-1.3s1.2-0.5,2-0.5c0.8,0,1.4,0.1,2,0.5c0.6,0.3,1,0.7,1.3,1.3C48.1-11.1,48.2-10.5,48.2-9.8z M45.9-10.1
			c0-0.5-0.1-0.8-0.4-1.1c-0.3-0.2-0.6-0.4-1-0.4s-0.8,0.1-1,0.4C43.2-11,43-10.6,43-10.1L45.9-10.1L45.9-10.1z M54.3-13.4
			c0.8,0,1.6,0.3,2,0.8c0.5,0.6,0.8,1.4,0.8,2.4v4.3h-2.3v-4.1c0-0.5-0.1-0.9-0.4-1.2c-0.3-0.3-0.6-0.4-1-0.4
			c-0.5,0-0.8,0.1-1.1,0.4c-0.3,0.3-0.4,0.7-0.4,1.3v4h-2.3v-7.5h2.3v1.4c0.2-0.4,0.5-0.8,1-1.1C53.3-13.3,53.8-13.4,54.3-13.4z
			 M63.1-7.8v2h-1c-0.9,0-1.6-0.2-2-0.7c-0.5-0.4-0.7-1.1-0.7-2.2v-2.7h-1v-1.9h1v-1.8h2.3v1.8h1.5v1.9h-1.5v2.8
			c0,0.3,0,0.5,0.2,0.6c0.1,0.1,0.3,0.2,0.6,0.2L63.1-7.8L63.1-7.8z M71.7-9.8c0,0.2,0,0.4-0.1,0.6h-5.2c0,0.6,0.2,1,0.4,1.2
			c0.3,0.2,0.6,0.4,1,0.4c0.3,0,0.6-0.1,0.8-0.3s0.4-0.4,0.4-0.7h2.4c-0.1,0.5-0.3,1-0.7,1.4c-0.3,0.4-0.8,0.8-1.3,1
			c-0.5,0.2-1.1,0.4-1.7,0.4c-0.7,0-1.4-0.1-1.9-0.5c-0.6-0.3-1-0.8-1.3-1.3s-0.5-1.3-0.5-2s0.2-1.5,0.5-2c0.3-0.6,0.8-1,1.3-1.3
			s1.2-0.5,2-0.5c0.8,0,1.4,0.1,2,0.5c0.6,0.3,1,0.7,1.3,1.3C71.5-11.1,71.7-10.5,71.7-9.8z M69.4-10.1c0-0.5-0.1-0.8-0.4-1.1
			c-0.3-0.2-0.6-0.4-1-0.4c-0.4,0-0.8,0.1-1,0.4s-0.4,0.6-0.5,1.1L69.4-10.1L69.4-10.1z"/>
	</g>
</g>
<g>
	<path class="st1" d="M12.1,5.4c0.1-0.1,0.2-0.3,0.3-0.4c0.7-1.1,0.4-2.6-0.7-3.3c-0.4-0.2-0.8-0.4-1.3-0.4l0,0
		c-0.8,0-1.6,0.4-2,1.1C8,3.1,7.9,3.7,8.1,4.3s0.5,1.2,1.1,1.5C9.5,6,9.9,6.1,10.4,6.1C11,6.1,11.6,5.8,12.1,5.4z"/>
	<path class="st1" d="M5.9,10.3C5.5,10,5,9.9,4.6,9.9c-0.8,0-1.6,0.4-2,1.1c-0.3,0.6-0.5,1.2-0.3,1.8c0.1,0.6,0.5,1.2,1.1,1.5
		c0.4,0.2,0.8,0.4,1.3,0.4c0.6,0,1.2-0.2,1.7-0.7c0.1-0.1,0.2-0.3,0.3-0.4C7.3,12.5,7,11,5.9,10.3z"/>
	<path class="st1" d="M16.3,7.2c-0.4-0.3-0.9-0.4-1.4-0.2s-0.9,0.4-1.2,0.8c-0.3,0.4-0.4,0.9-0.2,1.4c0.1,0.5,0.4,0.9,0.8,1.2
		c0.3,0.2,0.7,0.3,1,0.3c0.5,0,1-0.2,1.3-0.6c0.1-0.1,0.2-0.2,0.2-0.3C17.4,8.9,17.1,7.7,16.3,7.2z"/>
	<path class="st1" d="M12.1,13.3c-0.4-0.3-0.9-0.4-1.4-0.2c-0.5,0.1-0.9,0.4-1.2,0.8c-0.3,0.4-0.4,0.9-0.2,1.4
		c0.1,0.5,0.4,0.9,0.8,1.2c0.3,0.2,0.7,0.3,1,0.3c0.5,0,1-0.2,1.3-0.6c0.1-0.1,0.2-0.2,0.2-0.3C13.2,15,12.9,13.9,12.1,13.3z"/>
	<path class="st2" d="M10.7,20.9c-0.4-0.3-0.9-0.4-1.4-0.2c-0.5,0.1-0.9,0.4-1.2,0.8c-0.3,0.4-0.4,0.9-0.2,1.4s0.4,0.9,0.8,1.2
		c0.3,0.2,0.7,0.3,1,0.3c0.5,0,1-0.2,1.3-0.6c0.1-0.1,0.2-0.2,0.2-0.3C11.8,22.6,11.5,21.4,10.7,20.9z"/>
	<path class="st3" d="M12.1,28.1c-0.4-0.3-0.9-0.4-1.4-0.2c-0.5,0.1-0.9,0.4-1.2,0.8c-0.3,0.4-0.4,0.9-0.2,1.4
		c0.1,0.5,0.4,0.9,0.8,1.2c0.3,0.2,0.7,0.3,1,0.3c0.5,0,1-0.2,1.3-0.6c0.1-0.1,0.2-0.2,0.2-0.3C13.2,29.8,12.9,28.6,12.1,28.1z"/>
	<path class="st1" d="M5.9,30.3C5.5,30.1,5,30,4.6,30c-0.8,0-1.6,0.4-2,1.1c-0.3,0.6-0.5,1.2-0.3,1.8c0.1,0.6,0.5,1.2,1.1,1.5
		c0.4,0.2,0.8,0.4,1.3,0.4c0.6,0,1.2-0.2,1.7-0.7c0.1-0.1,0.2-0.3,0.3-0.4C7.3,32.5,7,31,5.9,30.3z"/>
	<path class="st1" d="M4.6,24.1c0.1-0.1,0.2-0.3,0.3-0.4c0.7-1.1,0.4-2.6-0.7-3.3c-0.4-0.2-0.8-0.4-1.3-0.4l0,0
		c-0.8,0-1.6,0.4-2,1.1c-0.3,0.6-0.5,1.2-0.3,1.8s0.5,1.2,1.1,1.5c0.4,0.2,0.8,0.4,1.3,0.4C3.5,24.8,4.1,24.6,4.6,24.1z"/>
	<path class="st1" d="M40,44.5c-0.4-0.2-0.8-0.4-1.3-0.4c-0.8,0-1.6,0.4-2,1.1l0,0c-0.3,0.6-0.5,1.2-0.3,1.8
		c0.1,0.6,0.5,1.2,1.1,1.5c0.4,0.2,0.8,0.4,1.3,0.4c0.6,0,1.2-0.2,1.7-0.7c0.1-0.1,0.2-0.3,0.3-0.4C41.4,46.7,41.1,45.2,40,44.5z"/>
	<path class="st1" d="M19.6,44.5c-0.4-0.2-0.8-0.4-1.3-0.4l0,0c-0.8,0-1.6,0.4-2,1.1C16,45.8,15.9,46.4,16,47
		c0.1,0.6,0.5,1.2,1.1,1.5c0.4,0.2,0.8,0.4,1.3,0.4c0.6,0,1.2-0.2,1.7-0.7c0.1-0.1,0.2-0.3,0.3-0.4C21.1,46.7,20.7,45.2,19.6,44.5z"
		/>
	<g id="_xF672_-copy_2_">
		<path class="st0" d="M28.5,29.9c0.3,0,0.6-0.1,0.8-0.3c0.2-0.2,0.3-0.5,0.3-0.8s-0.1-0.6-0.3-0.8c-0.2-0.2-0.5-0.3-0.8-0.3
			c-1.5,0-2.7-0.5-3.7-1.6c-1-1-1.6-2.3-1.6-3.7c0-0.3-0.1-0.6-0.3-0.8c-0.2-0.2-0.5-0.3-0.8-0.3s-0.6,0.1-0.8,0.3
			c-0.2,0.2-0.3,0.5-0.3,0.8c0,1.3,0.3,2.5,1,3.7c0.7,1.2,1.6,2.1,2.7,2.7C25.9,29.6,27.2,29.9,28.5,29.9z M28.5,34.1
			c2.1,0,4.1-0.5,5.9-1.6c1.8-1,3.2-2.5,4.2-4.3c1-1.8,1.6-3.8,1.6-5.9c0-1.5-0.2-2.9-0.8-4.2c-0.5-1.3-1.2-2.5-2.2-3.6
			c-0.8-0.9-1.6-2-2.3-3.4c-0.7-1.2-1.1-2.2-1.2-2.7H23.2c-0.1,0.6-0.5,1.5-1.1,2.7c-0.8,1.4-1.5,2.5-2.3,3.4
			c-0.9,1.1-1.7,2.3-2.2,3.6c-0.5,1.3-0.8,2.7-0.8,4.2c0,2,0.5,4,1.5,5.8c1,1.8,2.4,3.3,4.2,4.3C24.3,33.6,26.3,34.1,28.5,34.1z
			 M35.8,16c0.8,0.9,1.4,1.9,1.8,3c0.4,1.1,0.6,2.2,0.6,3.4c0,1.7-0.4,3.3-1.3,4.8c-0.8,1.5-2,2.6-3.5,3.5c-1.5,0.9-3.1,1.3-4.9,1.3
			s-3.4-0.4-4.9-1.3c-1.5-0.9-2.6-2-3.4-3.5C19.4,25.6,19,24,19,22.4c0-2.4,0.8-4.5,2.4-6.4c0.6-0.6,1.1-1.3,1.7-2.3
			c0.7-1.1,1.2-2.1,1.7-3.1h7.7c0.5,1,1,2.1,1.7,3.1C34.7,14.6,35.3,15.4,35.8,16z"/>
	</g>
	<g id="Rectangle-Copy-2_2_">
		<path class="st0" d="M25.1,0h7c0.9,0,1.7,0.8,1.7,1.7v0.7H23.4V1.7C23.4,0.8,24.1,0,25.1,0z"/>
	</g>
	<g id="Rectangle-Copy_2_">
		<rect x="23.4" y="4.4" class="st0" width="10.4" height="2.4"/>
	</g>
	<path class="st1" d="M29.8,46.2c-0.4-0.2-0.8-0.4-1.3-0.4l0,0c-0.8,0-1.6,0.4-2,1.1c-0.3,0.6-0.5,1.2-0.3,1.8
		c0.1,0.6,0.5,1.2,1.1,1.5c0.4,0.2,0.8,0.4,1.3,0.4c0.6,0,1.2-0.2,1.7-0.7c0.1-0.1,0.2-0.3,0.3-0.4C31.2,48.4,30.9,46.9,29.8,46.2z"
		/>
	<path class="st1" d="M27.5,42.9c0.3,0.2,0.7,0.3,1,0.3c0.5,0,1-0.2,1.3-0.6c0.1-0.1,0.2-0.2,0.2-0.3c0.6-0.9,0.3-2-0.6-2.6
		c-0.4-0.3-0.9-0.4-1.4-0.2s-0.9,0.4-1.2,0.8c-0.3,0.4-0.4,0.9-0.2,1.4C26.8,42.3,27.1,42.7,27.5,42.9z"/>
	<path class="st1" d="M37.5,41.2c0.6-0.9,0.3-2-0.6-2.6c-0.4-0.3-0.9-0.4-1.4-0.2c-0.5,0.1-0.9,0.4-1.2,0.8
		c-0.3,0.4-0.4,0.9-0.2,1.4c0.1,0.5,0.4,0.9,0.8,1.2c0.3,0.2,0.7,0.3,1,0.3c0.5,0,1-0.2,1.3-0.6C37.3,41.4,37.4,41.3,37.5,41.2z"/>
	<path class="st1" d="M22.2,38.6c-0.4-0.3-0.9-0.4-1.4-0.2c-0.5,0.1-0.9,0.4-1.2,0.8c-0.3,0.4-0.4,0.9-0.2,1.4
		c0.1,0.5,0.4,0.9,0.8,1.2c0.3,0.2,0.7,0.3,1,0.3c0.5,0,1-0.2,1.3-0.6c0.1-0.1,0.2-0.2,0.2-0.3c0.3-0.4,0.4-0.9,0.2-1.4
		S22.6,38.8,22.2,38.6z"/>
	<path class="st1" d="M11.4,38.9c-0.4-0.2-0.8-0.4-1.3-0.4c-0.8,0-1.6,0.4-2,1.1c-0.3,0.6-0.5,1.2-0.3,1.8c0.1,0.6,0.5,1.2,1.1,1.5
		c0.4,0.2,0.8,0.4,1.3,0.4c0.6,0,1.2-0.2,1.7-0.7c0.1-0.1,0.2-0.3,0.3-0.4C12.8,41.1,12.5,39.6,11.4,38.9z"/>
	<path class="st1" d="M48.2,38.9c-0.4-0.2-0.8-0.4-1.3-0.4c-0.8,0-1.6,0.4-2,1.1c-0.3,0.6-0.5,1.2-0.3,1.8c0.1,0.6,0.5,1.2,1.1,1.5
		c0.4,0.2,0.8,0.4,1.3,0.4c0.6,0,1.2-0.2,1.7-0.7c0.1-0.1,0.2-0.3,0.3-0.4C49.6,41.1,49.3,39.6,48.2,38.9z"/>
	<path class="st4" d="M16.1,34.4c-0.4-0.3-0.9-0.4-1.4-0.2c-0.5,0.1-0.9,0.4-1.2,0.8c-0.3,0.4-0.4,0.9-0.2,1.4
		c0.1,0.5,0.4,0.9,0.8,1.2c0.3,0.2,0.7,0.3,1,0.3c0.5,0,1-0.2,1.3-0.6c0.1-0.1,0.2-0.2,0.2-0.3C17.2,36.1,17,35,16.1,34.4z"/>
	<path class="st1" d="M43,34.4c-0.4-0.3-0.9-0.4-1.4-0.2c-0.5,0.1-0.9,0.4-1.2,0.8c-0.3,0.4-0.4,0.9-0.2,1.4
		c0.1,0.5,0.4,0.9,0.8,1.2c0.3,0.2,0.7,0.3,1,0.3c0.5,0,1-0.2,1.3-0.6c0.1-0.1,0.2-0.2,0.2-0.3C44.1,36.1,43.8,35,43,34.4z"/>
</g>
</svg>
