<?xml version="1.0" encoding="utf-8"?>
<!-- Generator: Adobe Illustrator 22.0.1, SVG Export Plug-In . SVG Version: 6.00 Build 0)  -->
<svg version="1.1" id="Capa_1" xmlns="http://www.w3.org/2000/svg" xmlns:xlink="http://www.w3.org/1999/xlink" x="0px" y="0px"
	 viewBox="0 0 155 51" style="enable-background:new 0 0 155 51;" xml:space="preserve">
<style type="text/css">
	.st0{fill:#111111;}
	.st1{fill:#17BBC2;}
	.st2{fill:#D3326F;}
	.st3{fill:#E8453B;}
	.st4{fill:#F8B126;}
</style>
<title>Group</title>
<desc>Created with Sketch.</desc>
<g id="logo-fci">
	<g id="logo-ci" transform="translate(52.000000, 35.000000)">
		<path id="Ciudadanía-Inteligen" class="st0" d="M3-29.6c1.2,0,2.2,0.3,3,0.9C6.8-28,7.3-27.1,7.6-26H5.1c-0.2-0.4-0.5-0.8-0.8-1
			C4-27.3,3.5-27.5,3-27.5c-0.7,0-1.2,0.2-1.6,0.7s-0.6,1.1-0.6,2c0,0.8,0.2,1.5,0.6,2s0.9,0.7,1.6,0.7c0.5,0,0.9-0.1,1.3-0.4
			c0.4-0.2,0.7-0.6,0.8-1h2.4c-0.2,1.1-0.8,1.9-1.5,2.6c-0.8,0.6-1.8,1-3,1c-0.9,0-1.7-0.2-2.4-0.6c-0.7-0.4-1.2-1-1.6-1.7
			c-0.4-0.7-0.6-1.6-0.6-2.5c0-0.9,0.2-1.8,0.6-2.5c0.4-0.7,0.9-1.3,1.6-1.7S2.1-29.6,3-29.6z M8.8-29.6c0-0.3,0.1-0.6,0.4-0.9
			c0.2-0.2,0.6-0.3,1-0.3s0.8,0.1,1,0.3c0.2,0.2,0.4,0.5,0.4,0.9c0,0.3-0.1,0.6-0.4,0.8c-0.2,0.2-0.6,0.3-1,0.3s-0.8-0.1-1-0.3
			C9-29,8.8-29.2,8.8-29.6z M11.4-27.5v7.5H9v-7.5H11.4z M20.6-27.5v7.5h-2.3v-1.4c-0.2,0.4-0.5,0.8-1,1c-0.4,0.3-0.9,0.4-1.5,0.4
			c-0.8,0-1.6-0.3-2-0.8c-0.5-0.6-0.8-1.4-0.8-2.4v-4.4h2.3v4.1c0,0.5,0.1,0.9,0.4,1.2c0.3,0.3,0.6,0.4,1.1,0.4
			c0.5,0,0.8-0.1,1.1-0.4c0.3-0.3,0.4-0.7,0.4-1.3v-4H20.6z M25.2-27.5c0.6,0,1.1,0.1,1.5,0.4c0.4,0.3,0.7,0.6,0.9,1.1v-3.8h2.3v9.9
			h-2.3v-1.4c-0.2,0.4-0.5,0.8-0.9,1.1c-0.4,0.3-0.9,0.4-1.5,0.4c-0.6,0-1.2-0.1-1.7-0.5s-0.9-0.8-1.2-1.3c-0.3-0.6-0.4-1.3-0.4-2
			c0-0.8,0.1-1.5,0.4-2c0.3-0.6,0.7-1,1.2-1.3C24-27.4,24.6-27.5,25.2-27.5z M25.9-25.6c-0.5,0-0.9,0.2-1.2,0.5
			c-0.3,0.3-0.5,0.8-0.5,1.3c0,0.6,0.1,1,0.5,1.3c0.3,0.3,0.7,0.5,1.2,0.5s0.9-0.2,1.2-0.5s0.5-0.8,0.5-1.3s-0.1-1-0.5-1.3
			S26.4-25.6,25.9-25.6z M34.5-27.5c0.6,0,1.1,0.1,1.5,0.4c0.4,0.3,0.7,0.6,0.9,1.1v-1.4h2.3v7.5h-2.3v-1.4
			c-0.2,0.4-0.5,0.8-0.9,1.1c-0.4,0.3-0.9,0.4-1.5,0.4c-0.6,0-1.2-0.1-1.7-0.5c-0.5-0.3-0.9-0.8-1.2-1.3c-0.3-0.6-0.4-1.3-0.4-2
			c0-0.8,0.1-1.5,0.4-2c0.3-0.6,0.7-1,1.2-1.3C33.3-27.4,33.9-27.5,34.5-27.5z M35.2-25.6c-0.5,0-0.9,0.2-1.2,0.5
			c-0.3,0.3-0.5,0.8-0.5,1.3c0,0.6,0.1,1,0.5,1.3c0.3,0.3,0.7,0.5,1.2,0.5c0.5,0,0.9-0.2,1.2-0.5c0.3-0.3,0.5-0.8,0.5-1.3
			s-0.1-1-0.5-1.3S35.7-25.6,35.2-25.6z M43.8-27.5c0.6,0,1.1,0.1,1.5,0.4c0.4,0.3,0.7,0.6,0.9,1.1v-3.8h2.3v9.9h-2.3v-1.4
			c-0.2,0.4-0.5,0.8-0.9,1.1s-0.9,0.4-1.5,0.4c-0.6,0-1.2-0.1-1.7-0.5c-0.5-0.3-0.9-0.8-1.2-1.3c-0.3-0.6-0.4-1.3-0.4-2
			c0-0.8,0.1-1.5,0.4-2c0.3-0.6,0.7-1,1.2-1.3C42.6-27.4,43.1-27.5,43.8-27.5z M44.5-25.6c-0.5,0-0.9,0.2-1.2,0.5
			c-0.3,0.3-0.5,0.8-0.5,1.3c0,0.6,0.1,1,0.5,1.3c0.3,0.3,0.7,0.5,1.2,0.5c0.5,0,0.9-0.2,1.2-0.5c0.3-0.3,0.5-0.8,0.5-1.3
			s-0.1-1-0.5-1.3C45.4-25.4,45-25.6,44.5-25.6z M53-27.5c0.6,0,1.1,0.1,1.5,0.4c0.4,0.3,0.7,0.6,0.9,1.1v-1.4h2.3v7.5h-2.3v-1.4
			c-0.2,0.4-0.5,0.8-0.9,1.1c-0.4,0.3-0.9,0.4-1.5,0.4c-0.6,0-1.2-0.1-1.7-0.5c-0.5-0.3-0.9-0.8-1.2-1.3c-0.3-0.6-0.4-1.3-0.4-2
			c0-0.8,0.1-1.5,0.4-2c0.3-0.6,0.7-1,1.2-1.3C51.9-27.4,52.4-27.5,53-27.5z M53.8-25.6c-0.5,0-0.9,0.2-1.2,0.5s-0.5,0.8-0.5,1.3
			c0,0.6,0.1,1,0.5,1.3c0.3,0.3,0.7,0.5,1.2,0.5c0.5,0,0.9-0.2,1.2-0.5c0.3-0.3,0.5-0.8,0.5-1.3s-0.1-1-0.5-1.3
			C54.6-25.4,54.3-25.6,53.8-25.6z M64.2-27.5c0.8,0,1.6,0.3,2,0.8c0.5,0.6,0.8,1.4,0.8,2.4v4.3h-2.3v-4.1c0-0.5-0.1-0.9-0.4-1.2
			c-0.3-0.3-0.6-0.4-1-0.4c-0.5,0-0.8,0.1-1.1,0.4c-0.3,0.3-0.4,0.7-0.4,1.3v4h-2.3v-7.5h2.3v1.4c0.2-0.4,0.5-0.8,1-1.1
			C63.2-27.4,63.7-27.5,64.2-27.5z M71.3-27.5v7.5H69v-7.5H71.3z M72.1-29.4L68.8-28v-1.6l3.2-1.6V-29.4z M76.2-27.5
			c0.6,0,1.1,0.1,1.5,0.4c0.4,0.3,0.7,0.6,0.9,1.1v-1.4h2.3v7.5h-2.3v-1.4c-0.2,0.4-0.5,0.8-0.9,1.1c-0.4,0.3-0.9,0.4-1.5,0.4
			c-0.6,0-1.2-0.1-1.7-0.5c-0.5-0.3-0.9-0.8-1.2-1.3c-0.3-0.6-0.4-1.3-0.4-2c0-0.8,0.1-1.5,0.4-2c0.3-0.6,0.7-1,1.2-1.3
			C75-27.4,75.6-27.5,76.2-27.5z M76.9-25.6c-0.5,0-0.9,0.2-1.2,0.5c-0.3,0.3-0.5,0.8-0.5,1.3c0,0.6,0.1,1,0.5,1.3
			c0.3,0.3,0.7,0.5,1.2,0.5s0.9-0.2,1.2-0.5c0.3-0.3,0.5-0.8,0.5-1.3s-0.1-1-0.5-1.3C77.8-25.4,77.4-25.6,76.9-25.6z M1-15.3v9.5
			h-2.3v-9.5C-1.3-15.3,1-15.3,1-15.3z M7.5-13.4c0.8,0,1.6,0.3,2,0.8c0.5,0.6,0.8,1.4,0.8,2.4v4.3H8v-4.1c0-0.5-0.1-0.9-0.4-1.2
			c-0.3-0.3-0.6-0.4-1-0.4c-0.5,0-0.8,0.1-1.1,0.4C5.2-10.8,5-10.3,5-9.8v4H2.7v-7.5H5v1.4c0.2-0.4,0.5-0.8,1-1.1
			C6.5-13.3,6.9-13.4,7.5-13.4z M16.3-7.8v2h-1c-0.9,0-1.6-0.2-2-0.7c-0.5-0.4-0.7-1.1-0.7-2.2v-2.7h-1v-1.9h1v-1.8h2.3v1.8h1.5v1.9
			h-1.5v2.8c0,0.3,0,0.5,0.2,0.6c0.1,0.1,0.3,0.2,0.6,0.2L16.3-7.8L16.3-7.8z M24.9-9.8c0,0.2,0,0.4-0.1,0.6h-5.2
			c0,0.6,0.2,1,0.4,1.2c0.3,0.2,0.6,0.4,1,0.4c0.3,0,0.6-0.1,0.8-0.3c0.2-0.2,0.4-0.4,0.4-0.7h2.4c-0.1,0.5-0.3,1-0.7,1.4
			c-0.3,0.4-0.8,0.8-1.3,1c-0.5,0.2-1.1,0.4-1.7,0.4c-0.7,0-1.4-0.1-1.9-0.5c-0.6-0.3-1-0.8-1.3-1.3s-0.5-1.3-0.5-2s0.2-1.5,0.5-2
			c0.3-0.6,0.8-1,1.3-1.3s1.2-0.5,2-0.5c0.8,0,1.4,0.1,2,0.5c0.6,0.3,1,0.7,1.3,1.3C24.7-11.1,24.9-10.5,24.9-9.8z M22.5-10.1
			c0-0.5-0.1-0.8-0.4-1.1c-0.3-0.2-0.6-0.4-1-0.4c-0.4,0-0.8,0.1-1,0.4c-0.3,0.2-0.4,0.6-0.5,1.1L22.5-10.1L22.5-10.1z M28.5-15.7
			v9.9h-2.3v-9.9H28.5z M30.1-15.4c0-0.3,0.1-0.6,0.4-0.9c0.2-0.2,0.6-0.3,1-0.3c0.4,0,0.8,0.1,1,0.3c0.2,0.2,0.4,0.5,0.4,0.9
			c0,0.3-0.1,0.6-0.4,0.8c-0.2,0.2-0.6,0.3-1,0.3c-0.4,0-0.8-0.1-1-0.3C30.2-14.8,30.1-15.1,30.1-15.4z M32.6-13.3v7.5h-2.3v-7.5
			H32.6z M37.2-13.4c0.6,0,1.1,0.1,1.5,0.4c0.4,0.3,0.7,0.6,0.9,1.1v-1.4h2.3v7.5c0,0.7-0.1,1.3-0.4,1.9c-0.3,0.6-0.7,1-1.2,1.3
			c-0.6,0.3-1.2,0.5-2.1,0.5c-1.1,0-2-0.3-2.7-0.8c-0.7-0.5-1.1-1.3-1.2-2.2h2.3c0.1,0.3,0.2,0.5,0.5,0.7c0.3,0.2,0.6,0.3,1,0.3
			c0.5,0,0.8-0.1,1.1-0.4c0.3-0.3,0.4-0.7,0.4-1.3v-1.3c-0.2,0.4-0.5,0.8-0.9,1.1c-0.4,0.3-0.9,0.4-1.5,0.4c-0.6,0-1.2-0.1-1.7-0.5
			c-0.5-0.3-0.9-0.8-1.2-1.3c-0.3-0.6-0.4-1.3-0.4-2s0.1-1.5,0.4-2c0.3-0.6,0.7-1,1.2-1.3C36.1-13.2,36.6-13.4,37.2-13.4z M38-11.4
			c-0.5,0-0.9,0.2-1.2,0.5c-0.3,0.3-0.5,0.8-0.5,1.3s0.1,1,0.5,1.3c0.3,0.3,0.7,0.5,1.2,0.5c0.5,0,0.9-0.2,1.2-0.5
			c0.3-0.3,0.5-0.8,0.5-1.3s-0.1-1-0.5-1.3C38.8-11.2,38.4-11.4,38-11.4z M50.8-9.8c0,0.2,0,0.4-0.1,0.6h-5.2c0,0.6,0.2,1,0.4,1.2
			c0.3,0.2,0.6,0.4,1,0.4c0.3,0,0.6-0.1,0.8-0.3C48-8,48.2-8.2,48.2-8.5h2.4c-0.1,0.5-0.3,1-0.7,1.4c-0.3,0.4-0.8,0.8-1.3,1
			c-0.5,0.2-1.1,0.4-1.7,0.4c-0.7,0-1.4-0.1-1.9-0.5c-0.6-0.3-1-0.8-1.3-1.3c-0.3-0.6-0.5-1.3-0.5-2s0.2-1.5,0.5-2
			c0.3-0.6,0.8-1,1.3-1.3s1.2-0.5,2-0.5c0.8,0,1.4,0.1,2,0.5s1,0.7,1.3,1.3S50.8-10.5,50.8-9.8z M48.5-10.1c0-0.5-0.1-0.8-0.4-1.1
			c-0.3-0.2-0.6-0.4-1-0.4c-0.4,0-0.8,0.1-1,0.4c-0.3,0.2-0.4,0.6-0.5,1.1L48.5-10.1L48.5-10.1z M56.9-13.4c0.8,0,1.6,0.3,2,0.8
			c0.5,0.6,0.8,1.4,0.8,2.4v4.3h-2.3v-4.1c0-0.5-0.1-0.9-0.4-1.2c-0.3-0.3-0.6-0.4-1-0.4c-0.5,0-0.8,0.1-1.1,0.4
			c-0.3,0.3-0.4,0.7-0.4,1.3v4h-2.3v-7.5h2.3v1.4c0.2-0.4,0.5-0.8,1-1.1C55.8-13.3,56.3-13.4,56.9-13.4z M65.7-7.8v2h-1
			c-0.9,0-1.6-0.2-2-0.7c-0.5-0.4-0.7-1.1-0.7-2.2v-2.7h-1v-1.9h1v-1.8h2.3v1.8h1.5v1.9h-1.5v2.8c0,0.3,0,0.5,0.2,0.6
			c0.1,0.1,0.3,0.2,0.6,0.2L65.7-7.8L65.7-7.8z M74.3-9.8c0,0.2,0,0.4-0.1,0.6H69c0,0.6,0.2,1,0.4,1.2c0.3,0.2,0.6,0.4,1,0.4
			c0.3,0,0.6-0.1,0.8-0.3s0.4-0.4,0.4-0.7h2.4c-0.1,0.5-0.3,1-0.7,1.4c-0.3,0.4-0.8,0.8-1.3,1c-0.5,0.2-1.1,0.4-1.7,0.4
			c-0.7,0-1.4-0.1-1.9-0.5c-0.6-0.3-1-0.8-1.3-1.3s-0.5-1.3-0.5-2s0.2-1.5,0.5-2c0.3-0.6,0.8-1,1.3-1.3s1.2-0.5,2-0.5
			c0.8,0,1.4,0.1,2,0.5c0.6,0.3,1,0.7,1.3,1.3C74.1-11.1,74.3-10.5,74.3-9.8z M71.9-10.1c0-0.5-0.1-0.8-0.4-1.1
			c-0.3-0.2-0.6-0.4-1-0.4c-0.4,0-0.8,0.1-1,0.4S69-10.6,69-10.1L71.9-10.1L71.9-10.1z"/>
	</g>
</g>
<g>
	<path class="st1" d="M14.6,5.4C14.7,5.3,14.9,5.2,15,5c0.7-1.1,0.4-2.6-0.7-3.3c-0.4-0.2-0.8-0.4-1.3-0.4l0,0c-0.8,0-1.6,0.4-2,1.1
		c-0.3,0.6-0.5,1.2-0.3,1.8s0.5,1.2,1.1,1.5C12.1,6,12.5,6.1,13,6.1C13.6,6.1,14.2,5.8,14.6,5.4z"/>
	<path class="st1" d="M8.4,10.3C8,10,7.6,9.9,7.1,9.9c-0.8,0-1.6,0.4-2,1.1c-0.3,0.6-0.5,1.2-0.3,1.8C5,13.4,5.3,14,5.9,14.3
		c0.4,0.2,0.8,0.4,1.3,0.4c0.6,0,1.2-0.2,1.7-0.7c0.1-0.1,0.2-0.3,0.3-0.4C9.9,12.5,9.5,11,8.4,10.3z"/>
	<path class="st1" d="M18.8,7.2c-0.4-0.3-0.9-0.4-1.4-0.2c-0.5,0.1-0.9,0.4-1.2,0.8C16,8.2,15.9,8.7,16,9.1c0.1,0.5,0.4,0.9,0.8,1.2
		c0.3,0.2,0.7,0.3,1,0.3c0.5,0,1-0.2,1.3-0.6c0.1-0.1,0.2-0.2,0.2-0.3C19.9,8.9,19.7,7.7,18.8,7.2z"/>
	<path class="st1" d="M14.6,13.3c-0.4-0.3-0.9-0.4-1.4-0.2c-0.5,0.1-0.9,0.4-1.2,0.8c-0.3,0.4-0.4,0.9-0.2,1.4
		c0.1,0.5,0.4,0.9,0.8,1.2c0.3,0.2,0.7,0.3,1,0.3c0.5,0,1-0.2,1.3-0.6c0.1-0.1,0.2-0.2,0.2-0.3C15.7,15,15.5,13.9,14.6,13.3z"/>
	<path class="st2" d="M13.2,20.9c-0.4-0.3-0.9-0.4-1.4-0.2s-0.9,0.4-1.2,0.8c-0.3,0.4-0.4,0.9-0.2,1.4c0.1,0.5,0.4,0.9,0.8,1.2
		c0.3,0.2,0.7,0.3,1,0.3c0.5,0,1-0.2,1.3-0.6c0.1-0.1,0.2-0.2,0.2-0.3C14.4,22.6,14.1,21.4,13.2,20.9z"/>
	<path class="st3" d="M14.6,28.1c-0.4-0.3-0.9-0.4-1.4-0.2c-0.5,0.1-0.9,0.4-1.2,0.8c-0.3,0.4-0.4,0.9-0.2,1.4
		c0.1,0.5,0.4,0.9,0.8,1.2c0.3,0.2,0.7,0.3,1,0.3c0.5,0,1-0.2,1.3-0.6c0.1-0.1,0.2-0.2,0.2-0.3C15.7,29.8,15.5,28.6,14.6,28.1z"/>
	<path class="st1" d="M8.4,30.3C8,30.1,7.6,30,7.1,30c-0.8,0-1.6,0.4-2,1.1c-0.3,0.6-0.5,1.2-0.3,1.8s0.5,1.2,1.1,1.5
		c0.4,0.2,0.8,0.4,1.3,0.4c0.6,0,1.2-0.2,1.7-0.7c0.1-0.1,0.2-0.3,0.3-0.4C9.9,32.5,9.5,31,8.4,30.3z"/>
	<path class="st1" d="M7.1,24.1c0.1-0.1,0.2-0.3,0.3-0.4c0.7-1.1,0.4-2.6-0.7-3.3c-0.4-0.2-0.8-0.4-1.3-0.4l0,0
		c-0.8,0-1.6,0.4-2,1.1C3.1,21.7,3,22.4,3.1,23c0.1,0.6,0.5,1.2,1.1,1.5c0.4,0.2,0.8,0.4,1.3,0.4C6.1,24.8,6.7,24.6,7.1,24.1z"/>
	<path class="st1" d="M42.5,44.5c-0.4-0.2-0.8-0.4-1.3-0.4c-0.8,0-1.6,0.4-2,1.1l0,0c-0.3,0.6-0.5,1.2-0.3,1.8
		c0.1,0.6,0.5,1.2,1.1,1.5c0.4,0.2,0.8,0.4,1.3,0.4c0.6,0,1.2-0.2,1.7-0.7c0.1-0.1,0.2-0.3,0.3-0.4C44,46.7,43.6,45.2,42.5,44.5z"/>
	<path class="st1" d="M22.2,44.5c-0.4-0.2-0.8-0.4-1.3-0.4l0,0c-0.8,0-1.6,0.4-2,1.1c-0.3,0.6-0.5,1.2-0.3,1.8
		c0.1,0.6,0.5,1.2,1.1,1.5c0.4,0.2,0.8,0.4,1.3,0.4c0.6,0,1.2-0.2,1.7-0.7c0.1-0.1,0.2-0.3,0.3-0.4C23.6,46.7,23.3,45.2,22.2,44.5z"
		/>
	<g id="_xF672_-copy_2_">
		<path class="st0" d="M31.1,29.9c0.3,0,0.6-0.1,0.8-0.3c0.2-0.2,0.3-0.5,0.3-0.8s-0.1-0.6-0.3-0.8c-0.2-0.2-0.5-0.3-0.8-0.3
			c-1.5,0-2.7-0.5-3.7-1.6c-1-1-1.6-2.3-1.6-3.7c0-0.3-0.1-0.6-0.3-0.8c-0.2-0.2-0.5-0.3-0.8-0.3s-0.6,0.1-0.8,0.3
			c-0.2,0.2-0.3,0.5-0.3,0.8c0,1.3,0.3,2.5,1,3.7c0.7,1.2,1.6,2.1,2.7,2.7C28.5,29.6,29.7,29.9,31.1,29.9z M31.1,34.1
			c2.1,0,4.1-0.5,5.9-1.6c1.8-1,3.2-2.5,4.2-4.3c1-1.8,1.6-3.8,1.6-5.9c0-1.5-0.2-2.9-0.8-4.2c-0.5-1.3-1.2-2.5-2.2-3.6
			c-0.8-0.9-1.6-2-2.3-3.4c-0.7-1.2-1.1-2.2-1.2-2.7H25.8c-0.1,0.6-0.5,1.5-1.1,2.7c-0.8,1.4-1.5,2.5-2.3,3.4
			c-0.9,1.1-1.7,2.3-2.2,3.6c-0.5,1.3-0.8,2.7-0.8,4.2c0,2,0.5,4,1.5,5.8c1,1.8,2.4,3.3,4.2,4.3C26.9,33.6,28.9,34.1,31.1,34.1z
			 M38.3,16c0.8,0.9,1.4,1.9,1.8,3s0.6,2.2,0.6,3.4c0,1.7-0.4,3.3-1.3,4.8c-0.8,1.5-2,2.6-3.5,3.5c-1.5,0.9-3.1,1.3-4.9,1.3
			c-1.7,0-3.4-0.4-4.9-1.3c-1.5-0.9-2.6-2-3.4-3.5c-0.8-1.5-1.2-3.1-1.2-4.8c0-2.4,0.8-4.5,2.4-6.4c0.6-0.6,1.1-1.3,1.7-2.3
			c0.7-1.1,1.2-2.1,1.7-3.1h7.7c0.5,1,1,2.1,1.7,3.1C37.3,14.6,37.8,15.4,38.3,16z"/>
	</g>
	<g id="Rectangle-Copy-2_2_">
		<path class="st0" d="M27.6,0h7c0.9,0,1.7,0.8,1.7,1.7v0.7H25.9V1.7C25.9,0.8,26.7,0,27.6,0z"/>
	</g>
	<g id="Rectangle-Copy_2_">
		<rect x="25.9" y="4.4" class="st0" width="10.4" height="2.4"/>
	</g>
	<path class="st1" d="M32.4,46.2c-0.4-0.2-0.8-0.4-1.3-0.4l0,0c-0.8,0-1.6,0.4-2,1.1c-0.3,0.6-0.5,1.2-0.3,1.8
		c0.1,0.6,0.5,1.2,1.1,1.5c0.4,0.2,0.8,0.4,1.3,0.4c0.6,0,1.2-0.2,1.7-0.7c0.1-0.1,0.2-0.3,0.3-0.4C33.8,48.4,33.5,46.9,32.4,46.2z"
		/>
	<path class="st1" d="M30.1,42.9c0.3,0.2,0.7,0.3,1,0.3c0.5,0,1-0.2,1.3-0.6c0.1-0.1,0.2-0.2,0.2-0.3c0.6-0.9,0.3-2-0.6-2.6
		c-0.4-0.3-0.9-0.4-1.4-0.2s-0.9,0.4-1.2,0.8c-0.3,0.4-0.4,0.9-0.2,1.4C29.4,42.3,29.7,42.7,30.1,42.9z"/>
	<path class="st1" d="M40,41.2c0.6-0.9,0.3-2-0.6-2.6c-0.4-0.3-0.9-0.4-1.4-0.2c-0.5,0.1-0.9,0.4-1.2,0.8c-0.3,0.4-0.4,0.9-0.2,1.4
		c0.1,0.5,0.4,0.9,0.8,1.2c0.3,0.2,0.7,0.3,1,0.3c0.5,0,1-0.2,1.3-0.6C39.9,41.4,40,41.3,40,41.2z"/>
	<path class="st1" d="M24.7,38.6c-0.4-0.3-0.9-0.4-1.4-0.2c-0.5,0.1-0.9,0.4-1.2,0.8c-0.3,0.4-0.4,0.9-0.2,1.4
		c0.1,0.5,0.4,0.9,0.8,1.2c0.3,0.2,0.7,0.3,1,0.3c0.5,0,1-0.2,1.3-0.6c0.1-0.1,0.2-0.2,0.2-0.3c0.3-0.4,0.4-0.9,0.2-1.4
		S25.1,38.8,24.7,38.6z"/>
	<path class="st1" d="M14,38.9c-0.4-0.2-0.8-0.4-1.3-0.4c-0.8,0-1.6,0.4-2,1.1c-0.3,0.6-0.5,1.2-0.3,1.8c0.1,0.6,0.5,1.2,1.1,1.5
		c0.4,0.2,0.8,0.4,1.3,0.4c0.6,0,1.2-0.2,1.7-0.7c0.1-0.1,0.2-0.3,0.3-0.4C15.4,41.1,15.1,39.6,14,38.9z"/>
	<path class="st1" d="M50.8,38.9c-0.4-0.2-0.8-0.4-1.3-0.4c-0.8,0-1.6,0.4-2,1.1c-0.3,0.6-0.5,1.2-0.3,1.8c0.1,0.6,0.5,1.2,1.1,1.5
		c0.4,0.2,0.8,0.4,1.3,0.4c0.6,0,1.2-0.2,1.7-0.7c0.1-0.1,0.2-0.3,0.3-0.4C52.2,41.1,51.8,39.6,50.8,38.9z"/>
	<path class="st4" d="M18.6,34.4c-0.4-0.3-0.9-0.4-1.4-0.2s-0.9,0.4-1.2,0.8c-0.3,0.4-0.4,0.9-0.2,1.4c0.1,0.5,0.4,0.9,0.8,1.2
		c0.3,0.2,0.7,0.3,1,0.3c0.5,0,1-0.2,1.3-0.6c0.1-0.1,0.2-0.2,0.2-0.3C19.8,36.1,19.5,35,18.6,34.4z"/>
	<path class="st1" d="M45.5,34.4c-0.4-0.3-0.9-0.4-1.4-0.2c-0.5,0.1-0.9,0.4-1.2,0.8c-0.3,0.4-0.4,0.9-0.2,1.4
		c0.1,0.5,0.4,0.9,0.8,1.2c0.3,0.2,0.7,0.3,1,0.3c0.5,0,1-0.2,1.3-0.6c0.1-0.1,0.2-0.2,0.2-0.3C46.7,36.1,46.4,35,45.5,34.4z"/>
</g>
</svg>
