<?xml version="1.0" encoding="utf-8"?>
<!-- Generator: Adobe Illustrator 22.1.0, SVG Export Plug-In . SVG Version: 6.00 Build 0)  -->
<svg version="1.1" id="Layer_1" xmlns="http://www.w3.org/2000/svg" xmlns:xlink="http://www.w3.org/1999/xlink" x="0px" y="0px"
	 viewBox="0 0 155 51" style="enable-background:new 0 0 155 51;" xml:space="preserve">
<style type="text/css">
	.st0{fill:#111111;}
	.st1{fill:#17BBC2;}
	.st2{fill:#D3326F;}
	.st3{fill:#E8453B;}
	.st4{fill:#F8B126;}
</style>
<title>Group</title>
<desc>Created with Sketch.</desc>
<g>
	<g id="logo-fci">
		<g id="logo-ci" transform="translate(52.000000, 35.000000)">
			<path id="Ciudadanía-Inteligen" class="st0" d="M15.1-27.3c1.1,0,2,0.3,2.7,0.9c0.7,0.6,1.2,1.4,1.4,2.3H17
				c-0.2-0.4-0.4-0.7-0.8-0.9c-0.3-0.2-0.7-0.3-1.2-0.3c-0.6,0-1.1,0.2-1.5,0.7c-0.4,0.4-0.6,1-0.6,1.8c0,0.8,0.2,1.3,0.6,1.8
				c0.4,0.4,0.9,0.7,1.5,0.7c0.5,0,0.9-0.1,1.2-0.3c0.3-0.2,0.6-0.5,0.8-0.9h2.2c-0.2,1-0.7,1.8-1.4,2.3c-0.7,0.6-1.6,0.9-2.7,0.9
				c-0.8,0-1.6-0.2-2.2-0.6c-0.6-0.4-1.1-0.9-1.5-1.6c-0.4-0.7-0.5-1.4-0.5-2.3c0-0.8,0.2-1.6,0.5-2.3c0.4-0.7,0.8-1.2,1.5-1.6
				C13.5-27.1,14.2-27.3,15.1-27.3z M20.3-27.3c0-0.3,0.1-0.6,0.3-0.8c0.2-0.2,0.5-0.3,0.9-0.3c0.4,0,0.7,0.1,0.9,0.3
				s0.3,0.5,0.3,0.8c0,0.3-0.1,0.6-0.3,0.8c-0.2,0.2-0.5,0.3-0.9,0.3c-0.4,0-0.7-0.1-0.9-0.3C20.5-26.8,20.3-27,20.3-27.3z
				 M22.6-25.4v6.8h-2.1v-6.8H22.6z M31-25.4v6.8h-2.1v-1.2c-0.2,0.4-0.5,0.7-0.9,0.9c-0.4,0.2-0.8,0.4-1.3,0.4
				c-0.8,0-1.4-0.3-1.9-0.8c-0.5-0.5-0.7-1.2-0.7-2.1v-4h2.1v3.7c0,0.5,0.1,0.8,0.4,1.1c0.2,0.3,0.6,0.4,1,0.4c0.4,0,0.8-0.1,1-0.4
				c0.2-0.3,0.4-0.6,0.4-1.1v-3.6H31z M35.2-25.5c0.5,0,1,0.1,1.3,0.4s0.6,0.6,0.8,1v-3.5h2.1v9h-2.1v-1.2c-0.2,0.4-0.4,0.7-0.8,1
				s-0.8,0.4-1.3,0.4c-0.6,0-1.1-0.1-1.5-0.4c-0.4-0.3-0.8-0.7-1.1-1.2s-0.4-1.1-0.4-1.9s0.1-1.3,0.4-1.9c0.3-0.5,0.6-0.9,1.1-1.2
				C34.2-25.3,34.7-25.5,35.2-25.5z M35.9-23.7c-0.4,0-0.8,0.2-1.1,0.4c-0.3,0.3-0.4,0.7-0.4,1.2c0,0.5,0.1,0.9,0.4,1.2
				c0.3,0.3,0.6,0.4,1.1,0.4s0.8-0.2,1.1-0.4c0.3-0.3,0.4-0.7,0.4-1.2c0-0.5-0.1-0.9-0.4-1.2C36.7-23.5,36.3-23.7,35.9-23.7z
				 M43.7-25.5c0.5,0,1,0.1,1.3,0.4s0.6,0.6,0.8,1v-1.3H48v6.8h-2.1v-1.2c-0.2,0.4-0.5,0.7-0.8,1c-0.4,0.2-0.8,0.4-1.3,0.4
				c-0.6,0-1.1-0.1-1.5-0.4c-0.4-0.3-0.8-0.7-1.1-1.2c-0.3-0.5-0.4-1.1-0.4-1.9s0.1-1.3,0.4-1.9c0.3-0.5,0.6-0.9,1.1-1.2
				C42.6-25.3,43.1-25.5,43.7-25.5z M44.4-23.7c-0.4,0-0.8,0.2-1.1,0.4s-0.4,0.7-0.4,1.2c0,0.5,0.1,0.9,0.4,1.2
				c0.3,0.3,0.6,0.4,1.1,0.4c0.4,0,0.8-0.2,1.1-0.4c0.3-0.3,0.4-0.7,0.4-1.2c0-0.5-0.1-0.9-0.4-1.2C45.1-23.5,44.8-23.7,44.4-23.7z
				 M52.1-25.5c0.5,0,1,0.1,1.3,0.4c0.4,0.2,0.6,0.6,0.8,1v-3.5h2.1v9h-2.1v-1.2c-0.2,0.4-0.4,0.7-0.8,1c-0.4,0.2-0.8,0.4-1.3,0.4
				c-0.6,0-1.1-0.1-1.5-0.4c-0.4-0.3-0.8-0.7-1.1-1.2c-0.3-0.5-0.4-1.1-0.4-1.9s0.1-1.3,0.4-1.9c0.3-0.5,0.6-0.9,1.1-1.2
				C51.1-25.3,51.6-25.5,52.1-25.5z M52.8-23.7c-0.4,0-0.8,0.2-1.1,0.4s-0.4,0.7-0.4,1.2c0,0.5,0.1,0.9,0.4,1.2
				c0.3,0.3,0.6,0.4,1.1,0.4c0.4,0,0.8-0.2,1.1-0.4c0.3-0.3,0.4-0.7,0.4-1.2c0-0.5-0.1-0.9-0.4-1.2C53.6-23.5,53.3-23.7,52.8-23.7z
				 M60.6-25.5c0.5,0,1,0.1,1.3,0.4s0.6,0.6,0.8,1v-1.3h2.1v6.8h-2.1v-1.2c-0.2,0.4-0.5,0.7-0.8,1c-0.4,0.2-0.8,0.4-1.3,0.4
				c-0.6,0-1.1-0.1-1.5-0.4s-0.8-0.7-1.1-1.2c-0.3-0.5-0.4-1.1-0.4-1.9s0.1-1.3,0.4-1.9c0.3-0.5,0.6-0.9,1.1-1.2
				C59.5-25.3,60-25.5,60.6-25.5z M61.2-23.7c-0.4,0-0.8,0.2-1.1,0.4c-0.3,0.3-0.4,0.7-0.4,1.2c0,0.5,0.1,0.9,0.4,1.2
				c0.3,0.3,0.6,0.4,1.1,0.4c0.4,0,0.8-0.2,1.1-0.4c0.3-0.3,0.4-0.7,0.4-1.2c0-0.5-0.1-0.9-0.4-1.2C62-23.5,61.7-23.7,61.2-23.7z
				 M70.8-25.5c0.8,0,1.4,0.3,1.9,0.8s0.7,1.2,0.7,2.1v4h-2.1v-3.7c0-0.5-0.1-0.8-0.4-1.1c-0.2-0.3-0.6-0.4-0.9-0.4
				c-0.4,0-0.8,0.1-1,0.4c-0.2,0.3-0.4,0.6-0.4,1.1v3.6h-2.1v-6.8h2.1v1.2c0.2-0.4,0.5-0.7,0.9-1C69.8-25.4,70.3-25.5,70.8-25.5z
				 M77.2-25.4v6.8h-2.1v-6.8H77.2z M77.9-27.2L75-25.9v-1.4l2.9-1.4V-27.2z M81.6-25.5c0.5,0,1,0.1,1.3,0.4c0.4,0.2,0.6,0.6,0.8,1
				v-1.3h2.1v6.8h-2.1v-1.2c-0.2,0.4-0.5,0.7-0.8,1s-0.8,0.4-1.3,0.4c-0.6,0-1.1-0.1-1.5-0.4s-0.8-0.7-1.1-1.2
				c-0.3-0.5-0.4-1.1-0.4-1.9s0.1-1.3,0.4-1.9c0.3-0.5,0.6-0.9,1.1-1.2C80.6-25.3,81.1-25.5,81.6-25.5z M82.3-23.7
				c-0.4,0-0.8,0.2-1.1,0.4c-0.3,0.3-0.4,0.7-0.4,1.2c0,0.5,0.1,0.9,0.4,1.2c0.3,0.3,0.6,0.4,1.1,0.4c0.4,0,0.8-0.2,1.1-0.4
				c0.3-0.3,0.4-0.7,0.4-1.2c0-0.5-0.1-0.9-0.4-1.2S82.7-23.7,82.3-23.7z M13.2-14.3v8.6h-2.1v-8.6C11.1-14.3,13.2-14.3,13.2-14.3z
				 M19.2-12.6c0.8,0,1.4,0.3,1.9,0.8c0.5,0.5,0.7,1.2,0.7,2.1v4h-2.1v-3.7c0-0.5-0.1-0.8-0.4-1.1c-0.2-0.2-0.6-0.4-0.9-0.4
				c-0.4,0-0.8,0.1-1,0.4c-0.2,0.3-0.4,0.6-0.4,1.1v3.6h-2.1v-6.8h2.1v1.2c0.2-0.4,0.5-0.7,0.9-1C18.2-12.5,18.6-12.6,19.2-12.6z
				 M27.1-7.5v1.8h-0.9c-0.8,0-1.4-0.2-1.9-0.6c-0.4-0.4-0.7-1-0.7-2v-2.5h-0.9v-1.8h0.9v-1.7h2.1v1.7h1.4v1.8h-1.4v2.5
				c0,0.3,0,0.5,0.2,0.6c0.1,0.1,0.3,0.2,0.6,0.2L27.1-7.5L27.1-7.5z M34.9-9.3c0,0.2,0,0.4-0.1,0.6h-4.7c0,0.5,0.2,0.9,0.4,1.1
				c0.2,0.2,0.5,0.3,0.9,0.3c0.3,0,0.6-0.1,0.8-0.2c0.2-0.2,0.3-0.4,0.4-0.6h2.2c-0.1,0.5-0.3,0.9-0.6,1.3c-0.3,0.4-0.7,0.7-1.1,0.9
				c-0.5,0.2-1,0.3-1.5,0.3c-0.7,0-1.3-0.1-1.8-0.4c-0.5-0.3-0.9-0.7-1.2-1.2c-0.3-0.5-0.4-1.1-0.4-1.9s0.2-1.3,0.4-1.9
				c0.3-0.5,0.7-0.9,1.2-1.2c0.5-0.3,1.1-0.4,1.8-0.4c0.7,0,1.3,0.1,1.8,0.4c0.5,0.3,0.9,0.7,1.2,1.2C34.8-10.5,34.9-9.9,34.9-9.3z
				 M32.8-9.6c0-0.4-0.1-0.8-0.4-1c-0.2-0.2-0.6-0.3-0.9-0.3c-0.4,0-0.7,0.1-0.9,0.3c-0.2,0.2-0.4,0.6-0.4,1L32.8-9.6L32.8-9.6z
				 M38.3-14.7v9h-2.1v-9H38.3z M39.7-14.4c0-0.3,0.1-0.6,0.3-0.8c0.2-0.2,0.5-0.3,0.9-0.3c0.4,0,0.7,0.1,0.9,0.3
				c0.2,0.2,0.3,0.5,0.3,0.8c0,0.3-0.1,0.6-0.3,0.8c-0.2,0.2-0.5,0.3-0.9,0.3c-0.4,0-0.7-0.1-0.9-0.3C39.8-13.9,39.7-14.1,39.7-14.4
				z M42-12.5v6.8h-2.1v-6.8H42z M46.2-12.6c0.5,0,1,0.1,1.3,0.4c0.4,0.2,0.6,0.6,0.8,1v-1.2h2.1v6.8c0,0.6-0.1,1.2-0.4,1.7
				c-0.2,0.5-0.6,0.9-1.1,1.2c-0.5,0.3-1.1,0.4-1.9,0.4c-1,0-1.9-0.2-2.5-0.7c-0.6-0.5-1-1.1-1.1-2h2.1c0.1,0.3,0.2,0.5,0.4,0.6
				c0.2,0.2,0.5,0.2,0.9,0.2c0.4,0,0.8-0.1,1-0.4c0.3-0.2,0.4-0.6,0.4-1.2v-1.2c-0.2,0.4-0.5,0.7-0.8,1c-0.4,0.2-0.8,0.4-1.3,0.4
				c-0.6,0-1.1-0.1-1.5-0.4c-0.4-0.3-0.8-0.7-1.1-1.2c-0.3-0.5-0.4-1.1-0.4-1.9c0-0.7,0.1-1.3,0.4-1.9c0.3-0.5,0.6-0.9,1.1-1.2
				C45.1-12.5,45.6-12.6,46.2-12.6z M46.8-10.8c-0.4,0-0.8,0.2-1.1,0.4c-0.3,0.3-0.4,0.7-0.4,1.2c0,0.5,0.1,0.9,0.4,1.2
				c0.3,0.3,0.6,0.4,1.1,0.4c0.4,0,0.8-0.2,1.1-0.4c0.3-0.3,0.4-0.7,0.4-1.2c0-0.5-0.1-0.9-0.4-1.2C47.6-10.6,47.3-10.8,46.8-10.8z
				 M58.5-9.3c0,0.2,0,0.4-0.1,0.6h-4.7c0,0.5,0.2,0.9,0.4,1.1c0.2,0.2,0.5,0.3,0.9,0.3c0.3,0,0.6-0.1,0.8-0.2
				c0.2-0.2,0.3-0.4,0.4-0.6h2.2c-0.1,0.5-0.3,0.9-0.6,1.3c-0.3,0.4-0.7,0.7-1.1,0.9c-0.5,0.2-1,0.3-1.5,0.3c-0.7,0-1.3-0.1-1.8-0.4
				c-0.5-0.3-0.9-0.7-1.2-1.2c-0.3-0.5-0.4-1.1-0.4-1.9s0.2-1.3,0.4-1.9c0.3-0.5,0.7-0.9,1.2-1.2c0.5-0.3,1.1-0.4,1.8-0.4
				c0.7,0,1.3,0.1,1.8,0.4c0.5,0.3,0.9,0.7,1.2,1.2C58.4-10.5,58.5-9.9,58.5-9.3z M56.4-9.6c0-0.4-0.1-0.8-0.4-1
				c-0.2-0.2-0.6-0.3-0.9-0.3s-0.7,0.1-0.9,0.3c-0.2,0.2-0.4,0.6-0.4,1L56.4-9.6L56.4-9.6z M64.1-12.6c0.8,0,1.4,0.3,1.9,0.8
				c0.5,0.5,0.7,1.2,0.7,2.1v4h-2.1v-3.7c0-0.5-0.1-0.8-0.4-1.1c-0.2-0.3-0.6-0.4-0.9-0.4c-0.4,0-0.8,0.1-1,0.4
				c-0.2,0.3-0.4,0.6-0.4,1.1v3.6h-2.1v-6.8h2.1v1.2c0.2-0.4,0.5-0.7,0.9-1C63.1-12.5,63.6-12.6,64.1-12.6z M72.1-7.5v1.8h-0.9
				c-0.8,0-1.4-0.2-1.9-0.6c-0.4-0.4-0.7-1-0.7-2v-2.5h-0.9v-1.8h0.9v-1.7h2.1v1.7h1.4v1.8h-1.4v2.5c0,0.3,0,0.5,0.2,0.6
				c0.1,0.1,0.3,0.2,0.6,0.2L72.1-7.5L72.1-7.5z M79.9-9.3c0,0.2,0,0.4-0.1,0.6h-4.7c0,0.5,0.2,0.9,0.4,1.1c0.2,0.2,0.5,0.3,0.9,0.3
				c0.3,0,0.6-0.1,0.8-0.2c0.2-0.2,0.3-0.4,0.4-0.6h2.2c-0.1,0.5-0.3,0.9-0.6,1.3C78.9-6.5,78.5-6.2,78-6c-0.5,0.2-1,0.3-1.5,0.3
				c-0.7,0-1.3-0.1-1.8-0.4c-0.5-0.3-0.9-0.7-1.2-1.2c-0.3-0.5-0.4-1.1-0.4-1.9s0.2-1.3,0.4-1.9c0.3-0.5,0.7-0.9,1.2-1.2
				c0.5-0.3,1.1-0.4,1.8-0.4c0.7,0,1.3,0.1,1.8,0.4c0.5,0.3,0.9,0.7,1.2,1.2C79.8-10.5,79.9-9.9,79.9-9.3z M77.8-9.6
				c0-0.4-0.1-0.8-0.4-1c-0.2-0.2-0.6-0.3-0.9-0.3c-0.4,0-0.7,0.1-0.9,0.3c-0.2,0.2-0.4,0.6-0.4,1L77.8-9.6L77.8-9.6z"/>
		</g>
	</g>
	<g>
		<path class="st1" d="M30.3,7.7c0.1-0.1,0.2-0.2,0.3-0.4c0.6-1,0.3-2.3-0.7-3C29.6,4.1,29.2,4,28.8,4l0,0c-0.8,0-1.4,0.4-1.8,1
			c-0.3,0.5-0.4,1.1-0.3,1.6s0.5,1.1,1,1.3c0.4,0.2,0.8,0.3,1.2,0.3C29.3,8.3,29.9,8.1,30.3,7.7z"/>
		<path class="st1" d="M24.7,12.1c-0.4-0.2-0.8-0.3-1.2-0.3c-0.8,0-1.4,0.4-1.8,1c-0.3,0.5-0.4,1.1-0.3,1.6c0.1,0.6,0.5,1.1,1,1.3
			c0.4,0.2,0.8,0.3,1.2,0.3c0.6,0,1.1-0.2,1.5-0.6c0.1-0.1,0.2-0.2,0.3-0.4C26,14.1,25.7,12.7,24.7,12.1z"/>
		<path class="st1" d="M34.1,9.3C33.7,9,33.3,8.9,32.8,9c-0.4,0.1-0.8,0.4-1.1,0.8c-0.2,0.4-0.3,0.8-0.2,1.3
			c0.1,0.4,0.4,0.8,0.8,1.1c0.3,0.2,0.6,0.3,0.9,0.3c0.4,0,0.9-0.2,1.2-0.5c0.1-0.1,0.2-0.2,0.2-0.3C35.1,10.8,34.9,9.8,34.1,9.3z"
			/>
		<path class="st1" d="M30.3,14.8c-0.4-0.2-0.8-0.3-1.3-0.2c-0.4,0.1-0.8,0.4-1.1,0.8c-0.2,0.4-0.3,0.8-0.2,1.3
			c0.1,0.4,0.4,0.8,0.8,1.1c0.3,0.2,0.6,0.3,0.9,0.3c0.4,0,0.9-0.2,1.2-0.5c0.1-0.1,0.2-0.2,0.2-0.3C31.3,16.4,31.1,15.4,30.3,14.8z
			"/>
		<path class="st2" d="M29,21.7c-0.4-0.2-0.8-0.3-1.3-0.2s-0.8,0.4-1.1,0.8c-0.2,0.4-0.3,0.8-0.2,1.3s0.4,0.8,0.8,1.1
			c0.3,0.2,0.6,0.3,0.9,0.3c0.4,0,0.9-0.2,1.2-0.5c0.1-0.1,0.2-0.2,0.2-0.3C30.1,23.3,29.8,22.2,29,21.7z"/>
		<path class="st3" d="M30.3,28.3C29.9,28,29.5,27.9,29,28c-0.4,0.1-0.8,0.4-1.1,0.8c-0.2,0.4-0.3,0.8-0.2,1.3
			c0.1,0.4,0.4,0.8,0.8,1.1c0.3,0.2,0.6,0.3,0.9,0.3c0.4,0,0.9-0.2,1.2-0.5c0.1-0.1,0.2-0.2,0.2-0.3C31.3,29.8,31.1,28.8,30.3,28.3z
			"/>
		<path class="st1" d="M24.7,30.3c-0.4-0.2-0.8-0.3-1.2-0.3c-0.8,0-1.4,0.4-1.8,1c-0.3,0.5-0.4,1.1-0.3,1.6c0.1,0.6,0.5,1.1,1,1.3
			c0.4,0.2,0.8,0.3,1.2,0.3c0.6,0,1.1-0.2,1.5-0.6c0.1-0.1,0.2-0.2,0.3-0.4C26,32.3,25.7,31,24.7,30.3z"/>
		<path class="st1" d="M23.5,24.7c0.1-0.1,0.2-0.2,0.3-0.4c0.6-1,0.3-2.3-0.7-3C22.8,21.1,22.4,21,22,21l0,0c-0.8,0-1.4,0.4-1.8,1
			c-0.3,0.5-0.4,1.1-0.3,1.6c0.1,0.6,0.5,1.1,1,1.3c0.4,0.2,0.8,0.3,1.2,0.3C22.5,25.3,23.1,25.1,23.5,24.7z"/>
		<path class="st1" d="M55.7,43.2c-0.4-0.2-0.8-0.3-1.2-0.3c-0.8,0-1.4,0.4-1.8,1l0,0c-0.3,0.5-0.4,1.1-0.3,1.6
			c0.1,0.6,0.5,1.1,1,1.3c0.4,0.2,0.8,0.3,1.2,0.3c0.6,0,1.1-0.2,1.5-0.6c0.1-0.1,0.2-0.2,0.3-0.4C57,45.2,56.7,43.9,55.7,43.2z"/>
		<path class="st1" d="M37.2,43.2c-0.4-0.2-0.8-0.3-1.2-0.3l0,0c-0.8,0-1.4,0.4-1.8,1c-0.3,0.5-0.4,1.1-0.3,1.6s0.5,1.1,1,1.3
			c0.4,0.2,0.8,0.3,1.2,0.3c0.6,0,1.1-0.2,1.5-0.6c0.1-0.1,0.2-0.2,0.3-0.4C38.5,45.2,38.2,43.9,37.2,43.2z"/>
		<g id="_xF672_-copy_2_">
			<path class="st0" d="M45.3,29.9c0.3,0,0.5-0.1,0.7-0.3c0.2-0.2,0.3-0.4,0.3-0.7c0-0.3-0.1-0.5-0.3-0.7c-0.2-0.2-0.4-0.3-0.7-0.3
				c-1.3,0-2.5-0.5-3.4-1.4c-0.9-0.9-1.4-2.1-1.4-3.4c0-0.3-0.1-0.5-0.3-0.7c-0.2-0.2-0.4-0.3-0.7-0.3s-0.5,0.1-0.7,0.3
				c-0.2,0.2-0.3,0.4-0.3,0.7c0,1.2,0.3,2.3,0.9,3.4c0.6,1.1,1.4,1.9,2.5,2.5C42.9,29.7,44,29.9,45.3,29.9z M45.3,33.8
				c1.9,0,3.7-0.5,5.4-1.4c1.6-0.9,2.9-2.2,3.9-3.9c0.9-1.6,1.4-3.4,1.4-5.4c0-1.3-0.2-2.6-0.7-3.8c-0.5-1.2-1.1-2.3-2-3.3
				c-0.7-0.8-1.4-1.9-2.1-3.1c-0.6-1.1-1-2-1.1-2.5h-9.7c-0.1,0.5-0.4,1.3-1,2.5c-0.7,1.2-1.4,2.3-2.1,3.1c-0.9,1-1.5,2.1-2,3.3
				c-0.5,1.2-0.7,2.5-0.7,3.8c0,1.9,0.4,3.6,1.3,5.3c0.9,1.6,2.2,3,3.8,3.9C41.4,33.3,43.3,33.8,45.3,33.8z M51.9,17.3
				c0.7,0.8,1.3,1.7,1.6,2.7c0.4,1,0.6,2,0.6,3.1c0,1.6-0.4,3-1.2,4.4c-0.8,1.3-1.9,2.4-3.2,3.2c-1.3,0.8-2.8,1.2-4.4,1.2
				s-3.1-0.4-4.4-1.2c-1.3-0.8-2.4-1.9-3.1-3.2c-0.8-1.3-1.1-2.8-1.1-4.3c0-2.2,0.7-4.1,2.2-5.8c0.5-0.5,1-1.2,1.5-2.1
				c0.6-1,1.1-1.9,1.5-2.8h7c0.4,0.9,0.9,1.9,1.5,2.8C50.9,16.1,51.4,16.7,51.9,17.3z"/>
		</g>
		<g id="Rectangle-Copy-2_2_">
			<path class="st0" d="M42.1,2.7h6.3c0.9,0,1.5,0.7,1.5,1.5v0.6h-9.4V4.3C40.6,3.4,41.3,2.7,42.1,2.7z"/>
		</g>
		<g id="Rectangle-Copy_2_">
			<rect x="40.6" y="6.7" class="st0" width="9.4" height="2.2"/>
		</g>
		<path class="st1" d="M46.4,44.8c-0.4-0.2-0.8-0.3-1.2-0.3l0,0c-0.8,0-1.4,0.4-1.8,1c-0.3,0.5-0.4,1.1-0.3,1.6
			c0.1,0.6,0.5,1.1,1,1.3c0.4,0.2,0.8,0.3,1.2,0.3c0.6,0,1.1-0.2,1.5-0.6c0.1-0.1,0.2-0.2,0.3-0.4C47.7,46.8,47.4,45.4,46.4,44.8z"
			/>
		<path class="st1" d="M44.4,41.8c0.3,0.2,0.6,0.3,0.9,0.3c0.4,0,0.9-0.2,1.2-0.5c0.1-0.1,0.2-0.2,0.2-0.3c0.5-0.8,0.3-1.9-0.5-2.3
			c-0.4-0.2-0.8-0.3-1.3-0.2c-0.4,0.1-0.8,0.4-1.1,0.8c-0.2,0.4-0.3,0.8-0.2,1.3C43.7,41.2,44,41.6,44.4,41.8z"/>
		<path class="st1" d="M53.4,40.2c0.5-0.8,0.3-1.9-0.5-2.3c-0.4-0.2-0.8-0.3-1.3-0.2c-0.4,0.1-0.8,0.4-1.1,0.8
			c-0.2,0.4-0.3,0.8-0.2,1.3s0.4,0.8,0.8,1.1c0.3,0.2,0.6,0.3,0.9,0.3c0.4,0,0.9-0.2,1.2-0.5C53.3,40.4,53.4,40.3,53.4,40.2z"/>
		<path class="st1" d="M39.5,37.9c-0.4-0.2-0.8-0.3-1.3-0.2s-0.8,0.4-1.1,0.8c-0.2,0.4-0.3,0.8-0.2,1.3c0.1,0.4,0.4,0.8,0.8,1.1
			c0.3,0.2,0.6,0.3,0.9,0.3c0.4,0,0.9-0.2,1.2-0.5c0.1-0.1,0.2-0.2,0.2-0.3c0.2-0.4,0.3-0.8,0.2-1.3C40.1,38.5,39.9,38.1,39.5,37.9z
			"/>
		<path class="st1" d="M29.7,38.1c-0.4-0.2-0.8-0.3-1.2-0.3c-0.8,0-1.4,0.4-1.8,1c-0.3,0.5-0.4,1.1-0.3,1.6c0.1,0.6,0.5,1.1,1,1.3
			c0.4,0.2,0.8,0.3,1.2,0.3c0.6,0,1.1-0.2,1.5-0.6c0.1-0.1,0.2-0.2,0.3-0.4C31,40.1,30.7,38.8,29.7,38.1z"/>
		<path class="st1" d="M63.2,38.1c-0.4-0.2-0.8-0.3-1.2-0.3c-0.8,0-1.4,0.4-1.8,1c-0.3,0.5-0.4,1.1-0.3,1.6c0.1,0.6,0.5,1.1,1,1.3
			c0.4,0.2,0.8,0.3,1.2,0.3c0.6,0,1.1-0.2,1.5-0.6c0.1-0.1,0.2-0.2,0.3-0.4C64.5,40.1,64.2,38.8,63.2,38.1z"/>
		<path class="st4" d="M33.9,34.1c-0.4-0.2-0.8-0.3-1.3-0.2s-0.8,0.4-1.1,0.8c-0.2,0.4-0.3,0.8-0.2,1.3s0.4,0.8,0.8,1.1
			c0.3,0.2,0.6,0.3,0.9,0.3c0.4,0,0.9-0.2,1.2-0.5c0.1-0.1,0.2-0.2,0.2-0.3C35,35.6,34.8,34.6,33.9,34.1z"/>
		<path class="st1" d="M58.4,34.1c-0.4-0.2-0.8-0.3-1.3-0.2c-0.4,0.1-0.8,0.4-1.1,0.8c-0.2,0.4-0.3,0.8-0.2,1.3s0.4,0.8,0.8,1.1
			c0.3,0.2,0.6,0.3,0.9,0.3c0.4,0,0.9-0.2,1.2-0.5c0.1-0.1,0.2-0.2,0.2-0.3C59.5,35.6,59.2,34.6,58.4,34.1z"/>
	</g>
</g>
</svg>
