<?xml version="1.0" encoding="utf-8"?>
<!-- Generator: Adobe Illustrator 22.0.1, SVG Export Plug-In . SVG Version: 6.00 Build 0)  -->
<svg version="1.1" id="Capa_1" xmlns="http://www.w3.org/2000/svg" xmlns:xlink="http://www.w3.org/1999/xlink" x="0px" y="0px"
	 viewBox="0 0 176 62" style="enable-background:new 0 0 176 62;" xml:space="preserve">
<style type="text/css">
	.st0{fill:#FFFFFF;}
</style>
<title>logo-rectangular-blanco copy 2</title>
<desc>Created with Sketch.</desc>
<g id="logo-fci">
	<g id="logo-ci" transform="translate(52.000000, 35.000000)">
		<path id="Ciudadanía-Inteligen" class="st0" d="M11.2-27c1.4,0,2.6,0.4,3.5,1.1c0.9,0.7,1.5,1.7,1.8,3h-2.8
			c-0.2-0.5-0.5-0.9-1-1.2c-0.4-0.3-0.9-0.4-1.5-0.4c-0.8,0-1.4,0.3-1.9,0.8s-0.7,1.3-0.7,2.3c0,1,0.2,1.7,0.7,2.3
			c0.5,0.6,1.1,0.8,1.9,0.8c0.6,0,1.1-0.1,1.5-0.4c0.4-0.3,0.8-0.7,1-1.2h2.8c-0.3,1.2-0.9,2.2-1.8,3c-0.9,0.7-2.1,1.1-3.5,1.1
			c-1.1,0-2-0.2-2.8-0.7c-0.8-0.5-1.4-1.1-1.9-2c-0.4-0.8-0.7-1.8-0.7-2.9c0-1.1,0.2-2.1,0.7-2.9c0.4-0.8,1.1-1.5,1.9-2
			C9.2-26.8,10.1-27,11.2-27z M17.9-27c0-0.4,0.1-0.7,0.4-1c0.3-0.3,0.7-0.4,1.2-0.4c0.5,0,0.9,0.1,1.2,0.4c0.3,0.3,0.4,0.6,0.4,1
			c0,0.4-0.1,0.7-0.4,1c-0.3,0.3-0.7,0.4-1.2,0.4c-0.5,0-0.9-0.1-1.2-0.4C18.1-26.3,17.9-26.6,17.9-27z M20.9-24.6v8.7h-2.7v-8.7
			H20.9z M31.5-24.6v8.7h-2.7v-1.6c-0.3,0.5-0.6,0.9-1.1,1.2c-0.5,0.3-1.1,0.4-1.7,0.4c-1,0-1.8-0.3-2.4-1c-0.6-0.7-0.9-1.6-0.9-2.7
			v-5.1h2.6v4.7c0,0.6,0.1,1,0.4,1.4c0.3,0.3,0.7,0.5,1.2,0.5c0.5,0,1-0.2,1.3-0.5c0.3-0.3,0.5-0.8,0.5-1.5v-4.6H31.5z M36.9-24.7
			c0.7,0,1.2,0.1,1.7,0.4c0.5,0.3,0.8,0.7,1,1.2v-4.4h2.7v11.5h-2.7v-1.6c-0.2,0.5-0.6,0.9-1,1.2c-0.5,0.3-1,0.4-1.7,0.4
			c-0.7,0-1.3-0.2-1.9-0.5c-0.6-0.4-1-0.9-1.3-1.5s-0.5-1.5-0.5-2.4c0-0.9,0.2-1.7,0.5-2.4c0.3-0.7,0.8-1.2,1.3-1.5
			C35.5-24.5,36.2-24.7,36.9-24.7z M37.7-22.3c-0.6,0-1,0.2-1.4,0.6c-0.3,0.4-0.5,0.9-0.5,1.5c0,0.7,0.2,1.2,0.5,1.5
			c0.3,0.4,0.8,0.6,1.4,0.6c0.6,0,1-0.2,1.4-0.6c0.4-0.4,0.5-0.9,0.5-1.5s-0.2-1.2-0.5-1.5C38.7-22.2,38.3-22.3,37.7-22.3z
			 M47.7-24.7c0.7,0,1.2,0.1,1.7,0.4c0.5,0.3,0.8,0.7,1.1,1.2v-1.6h2.6v8.7h-2.6v-1.6c-0.2,0.5-0.6,0.9-1.1,1.2
			c-0.5,0.3-1,0.4-1.7,0.4c-0.7,0-1.3-0.2-1.9-0.5c-0.6-0.4-1-0.9-1.3-1.5c-0.3-0.7-0.5-1.5-0.5-2.4c0-0.9,0.2-1.7,0.5-2.4
			c0.3-0.7,0.8-1.2,1.3-1.5C46.3-24.5,46.9-24.7,47.7-24.7z M48.5-22.3c-0.6,0-1,0.2-1.4,0.6c-0.3,0.4-0.5,0.9-0.5,1.5
			c0,0.7,0.2,1.2,0.5,1.5c0.3,0.4,0.8,0.6,1.4,0.6c0.6,0,1-0.2,1.4-0.6c0.4-0.4,0.5-0.9,0.5-1.5s-0.2-1.2-0.5-1.5
			C49.5-22.2,49.1-22.3,48.5-22.3z M58.4-24.7c0.7,0,1.2,0.1,1.7,0.4c0.5,0.3,0.8,0.7,1,1.2v-4.4h2.7v11.5h-2.7v-1.6
			c-0.2,0.5-0.6,0.9-1,1.2c-0.5,0.3-1,0.4-1.7,0.4c-0.7,0-1.3-0.2-1.9-0.5c-0.6-0.4-1-0.9-1.3-1.5c-0.3-0.7-0.5-1.5-0.5-2.4
			c0-0.9,0.2-1.7,0.5-2.4c0.3-0.7,0.8-1.2,1.3-1.5C57-24.5,57.7-24.7,58.4-24.7z M59.3-22.3c-0.6,0-1,0.2-1.4,0.6
			c-0.3,0.4-0.5,0.9-0.5,1.5c0,0.7,0.2,1.2,0.5,1.5c0.3,0.4,0.8,0.6,1.4,0.6c0.6,0,1-0.2,1.4-0.6c0.4-0.4,0.5-0.9,0.5-1.5
			s-0.2-1.2-0.5-1.5C60.3-22.2,59.8-22.3,59.3-22.3z M69.2-24.7c0.7,0,1.2,0.1,1.7,0.4c0.5,0.3,0.8,0.7,1.1,1.2v-1.6h2.6v8.7h-2.6
			v-1.6c-0.2,0.5-0.6,0.9-1.1,1.2c-0.5,0.3-1,0.4-1.7,0.4c-0.7,0-1.3-0.2-1.9-0.5c-0.6-0.4-1-0.9-1.3-1.5c-0.3-0.7-0.5-1.5-0.5-2.4
			c0-0.9,0.2-1.7,0.5-2.4c0.3-0.7,0.8-1.2,1.3-1.5C67.8-24.5,68.5-24.7,69.2-24.7z M70-22.3c-0.6,0-1,0.2-1.4,0.6
			c-0.3,0.4-0.5,0.9-0.5,1.5c0,0.7,0.2,1.2,0.5,1.5c0.3,0.4,0.8,0.6,1.4,0.6c0.6,0,1-0.2,1.4-0.6c0.4-0.4,0.5-0.9,0.5-1.5
			s-0.2-1.2-0.5-1.5C71-22.2,70.6-22.3,70-22.3z M82.1-24.7c1,0,1.8,0.3,2.4,1s0.9,1.6,0.9,2.7v5h-2.7v-4.7c0-0.6-0.1-1-0.4-1.3
			c-0.3-0.3-0.7-0.5-1.2-0.5c-0.5,0-1,0.2-1.3,0.5c-0.3,0.3-0.5,0.8-0.5,1.5v4.6h-2.7v-8.7h2.7v1.6c0.3-0.5,0.6-0.9,1.1-1.2
			C80.9-24.5,81.5-24.7,82.1-24.7z M90.3-24.6v8.7h-2.7v-8.7H90.3z M91.2-26.8l-3.7,1.6V-27l3.7-1.8V-26.8z M96-24.7
			c0.7,0,1.2,0.1,1.7,0.4c0.5,0.3,0.8,0.7,1.1,1.2v-1.6h2.6v8.7h-2.6v-1.6c-0.2,0.5-0.6,0.9-1.1,1.2c-0.5,0.3-1,0.4-1.7,0.4
			c-0.7,0-1.3-0.2-1.9-0.5c-0.6-0.4-1-0.9-1.3-1.5s-0.5-1.5-0.5-2.4c0-0.9,0.2-1.7,0.5-2.4c0.3-0.7,0.8-1.2,1.3-1.5
			C94.6-24.5,95.3-24.7,96-24.7z M96.8-22.3c-0.6,0-1,0.2-1.4,0.6c-0.3,0.4-0.5,0.9-0.5,1.5c0,0.7,0.2,1.2,0.5,1.5
			c0.3,0.4,0.8,0.6,1.4,0.6c0.6,0,1-0.2,1.4-0.6c0.4-0.4,0.5-0.9,0.5-1.5s-0.2-1.2-0.5-1.5C97.8-22.2,97.4-22.3,96.8-22.3z
			 M8.8-10.5v11H6.2v-11C6.2-10.5,8.8-10.5,8.8-10.5z M16.4-8.2c1,0,1.8,0.3,2.4,1c0.6,0.7,0.9,1.6,0.9,2.7v5H17v-4.7
			c0-0.6-0.1-1-0.4-1.3C16.2-5.9,15.8-6,15.3-6c-0.5,0-1,0.2-1.3,0.5c-0.3,0.3-0.5,0.8-0.5,1.5v4.6h-2.7v-8.7h2.7v1.6
			c0.3-0.5,0.6-0.9,1.1-1.2C15.2-8.1,15.7-8.2,16.4-8.2z M26.6-1.7v2.3h-1.2c-1,0-1.8-0.3-2.4-0.8c-0.6-0.5-0.8-1.3-0.8-2.5v-3.2H21
			v-2.2h1.2v-2.1h2.7v2.1h1.7v2.2h-1.7v3.2c0,0.3,0.1,0.6,0.2,0.7c0.1,0.1,0.4,0.2,0.7,0.2L26.6-1.7L26.6-1.7z M36.5-4
			c0,0.2,0,0.4-0.1,0.7h-6c0,0.6,0.2,1.1,0.5,1.4c0.3,0.3,0.7,0.4,1.2,0.4c0.4,0,0.7-0.1,1-0.3c0.3-0.2,0.4-0.4,0.5-0.8h2.8
			C36.3-2,36-1.4,35.6-0.9c-0.4,0.5-0.9,0.9-1.5,1.1c-0.6,0.3-1.2,0.4-2,0.4c-0.8,0-1.6-0.2-2.2-0.5c-0.6-0.4-1.2-0.9-1.5-1.5
			c-0.4-0.7-0.6-1.5-0.6-2.4s0.2-1.7,0.6-2.4c0.4-0.7,0.9-1.2,1.5-1.5c0.7-0.4,1.4-0.5,2.3-0.5c0.9,0,1.6,0.2,2.3,0.5
			c0.6,0.4,1.2,0.8,1.5,1.5C36.3-5.6,36.5-4.9,36.5-4z M33.8-4.4c0-0.6-0.1-1-0.4-1.3c-0.3-0.3-0.7-0.4-1.2-0.4S31.3-6,31-5.7
			c-0.3,0.3-0.5,0.7-0.5,1.3L33.8-4.4L33.8-4.4z M40.8-11V0.5h-2.7V-11H40.8z M42.6-10.6c0-0.4,0.1-0.7,0.4-1
			c0.3-0.3,0.7-0.4,1.2-0.4s0.9,0.1,1.2,0.4c0.3,0.3,0.4,0.6,0.4,1c0,0.4-0.1,0.7-0.4,1c-0.3,0.3-0.7,0.4-1.2,0.4S43.3-9.3,43-9.6
			C42.7-9.9,42.6-10.2,42.6-10.6z M45.5-8.1v8.7h-2.7v-8.7H45.5z M50.8-8.2c0.7,0,1.2,0.1,1.7,0.4s0.8,0.7,1.1,1.2v-1.6h2.6v8.6
			c0,0.8-0.2,1.5-0.5,2.2c-0.3,0.6-0.8,1.2-1.4,1.5c-0.6,0.4-1.4,0.6-2.4,0.6c-1.3,0-2.4-0.3-3.1-0.9c-0.8-0.6-1.3-1.5-1.4-2.5H50
			c0.1,0.4,0.3,0.6,0.6,0.8c0.3,0.2,0.7,0.3,1.2,0.3c0.6,0,1-0.2,1.3-0.5c0.3-0.3,0.5-0.8,0.5-1.5V-1c-0.2,0.5-0.6,0.9-1.1,1.2
			c-0.5,0.3-1,0.4-1.7,0.4c-0.7,0-1.3-0.2-1.9-0.5c-0.6-0.4-1-0.9-1.3-1.5c-0.3-0.7-0.5-1.5-0.5-2.4s0.2-1.7,0.5-2.4
			c0.3-0.7,0.8-1.2,1.3-1.5C49.5-8.1,50.1-8.2,50.8-8.2z M51.7-5.9c-0.6,0-1,0.2-1.4,0.6C50-5,49.8-4.5,49.8-3.8s0.2,1.2,0.5,1.5
			c0.4,0.4,0.8,0.6,1.4,0.6s1-0.2,1.4-0.6c0.4-0.4,0.5-0.9,0.5-1.5S53.4-5,53.1-5.4C52.7-5.7,52.2-5.9,51.7-5.9z M66.5-4
			c0,0.2,0,0.4-0.1,0.7h-6c0,0.6,0.2,1.1,0.5,1.4c0.3,0.3,0.7,0.4,1.2,0.4c0.4,0,0.7-0.1,1-0.3c0.3-0.2,0.4-0.4,0.5-0.8h2.8
			C66.3-2,66-1.4,65.6-0.9c-0.4,0.5-0.9,0.9-1.5,1.1c-0.6,0.3-1.2,0.4-2,0.4c-0.8,0-1.6-0.2-2.2-0.5c-0.6-0.4-1.2-0.9-1.5-1.5
			s-0.6-1.5-0.6-2.4s0.2-1.7,0.6-2.4c0.4-0.7,0.9-1.2,1.5-1.5c0.7-0.4,1.4-0.5,2.3-0.5c0.9,0,1.6,0.2,2.3,0.5
			c0.6,0.4,1.2,0.8,1.5,1.5S66.5-4.9,66.5-4z M63.8-4.4c0-0.6-0.1-1-0.4-1.3c-0.3-0.3-0.7-0.4-1.2-0.4S61.3-6,61-5.7
			c-0.3,0.3-0.5,0.7-0.5,1.3L63.8-4.4L63.8-4.4z M73.6-8.2c1,0,1.8,0.3,2.4,1c0.6,0.7,0.9,1.6,0.9,2.7v5h-2.7v-4.7
			c0-0.6-0.1-1-0.4-1.3C73.4-5.9,73-6,72.5-6c-0.5,0-1,0.2-1.3,0.5c-0.3,0.3-0.5,0.8-0.5,1.5v4.6h-2.7v-8.7h2.7v1.6
			c0.3-0.5,0.6-0.9,1.1-1.2C72.4-8.1,73-8.2,73.6-8.2z M83.8-1.7v2.3h-1.2c-1,0-1.8-0.3-2.4-0.8s-0.8-1.3-0.8-2.5v-3.2h-1.2v-2.2
			h1.2v-2.1H82v2.1h1.7v2.2H82v3.2c0,0.3,0.1,0.6,0.2,0.7c0.1,0.1,0.4,0.2,0.7,0.2L83.8-1.7L83.8-1.7z M93.7-4c0,0.2,0,0.4-0.1,0.7
			h-6c0,0.6,0.2,1.1,0.5,1.4c0.3,0.3,0.7,0.4,1.2,0.4c0.4,0,0.7-0.1,1-0.3c0.3-0.2,0.4-0.4,0.5-0.8h2.8c-0.1,0.6-0.4,1.2-0.8,1.6
			c-0.4,0.5-0.9,0.9-1.5,1.1c-0.6,0.3-1.2,0.4-2,0.4c-0.8,0-1.6-0.2-2.2-0.5c-0.6-0.4-1.2-0.9-1.5-1.5C85.2-2.2,85-2.9,85-3.8
			s0.2-1.7,0.6-2.4c0.4-0.7,0.9-1.2,1.5-1.5c0.7-0.4,1.4-0.5,2.3-0.5c0.9,0,1.6,0.2,2.3,0.5c0.6,0.4,1.2,0.8,1.5,1.5
			C93.6-5.6,93.7-4.9,93.7-4z M91-4.4c0-0.6-0.1-1-0.4-1.3c-0.3-0.3-0.7-0.4-1.2-0.4S88.5-6,88.2-5.7c-0.3,0.3-0.5,0.7-0.5,1.3
			L91-4.4L91-4.4z"/>
	</g>
</g>
<g>
	<path class="st0" d="M16.4,8c0.1-0.1,0.3-0.3,0.4-0.4c0.8-1.3,0.4-3-0.8-3.8c-0.4-0.3-1-0.4-1.5-0.4l0,0c-1,0-1.8,0.5-2.3,1.3
		c-0.4,0.6-0.5,1.4-0.4,2.1C11.9,7.4,12.3,8,13,8.4c0.4,0.3,1,0.4,1.5,0.4C15.2,8.8,15.9,8.5,16.4,8z"/>
	<path class="st0" d="M9.2,13.6c-0.4-0.3-1-0.4-1.5-0.4c-1,0-1.8,0.5-2.3,1.3C5,15.1,4.9,15.9,5,16.6c0.2,0.7,0.6,1.3,1.2,1.7
		c0.4,0.3,1,0.4,1.5,0.4c0.7,0,1.4-0.3,1.9-0.8c0.1-0.1,0.3-0.3,0.4-0.4C10.9,16.1,10.5,14.5,9.2,13.6z"/>
	<path class="st0" d="M21.3,10c-0.5-0.3-1.1-0.4-1.6-0.3s-1.1,0.4-1.3,1c-0.3,0.5-0.4,1.1-0.3,1.6c0.1,0.6,0.4,1.1,1,1.4
		c0.4,0.2,0.8,0.4,1.2,0.4c0.6,0,1.1-0.2,1.5-0.6c0.1-0.1,0.2-0.3,0.3-0.4C22.6,12,22.2,10.7,21.3,10z"/>
	<path class="st0" d="M16.4,17.1c-0.5-0.3-1.1-0.4-1.6-0.3c-0.6,0.1-1.1,0.4-1.3,1c-0.3,0.5-0.4,1.1-0.3,1.6c0.1,0.6,0.4,1.1,1,1.4
		c0.4,0.2,0.8,0.4,1.2,0.4c0.6,0,1.1-0.2,1.5-0.6c0.1-0.1,0.2-0.3,0.3-0.4C17.7,19.1,17.4,17.8,16.4,17.1z"/>
	<path class="st0" d="M14.8,25.9c-0.5-0.3-1.1-0.4-1.6-0.3c-0.6,0.1-1.1,0.4-1.3,1c-0.3,0.5-0.4,1.1-0.3,1.6c0.1,0.6,0.4,1.1,1,1.3
		c0.4,0.2,0.8,0.4,1.2,0.4c0.6,0,1.1-0.2,1.5-0.6c0.1-0.1,0.2-0.3,0.3-0.4C16.1,27.9,15.8,26.5,14.8,25.9z"/>
	<path class="st0" d="M16.4,34.2c-0.5-0.3-1.1-0.4-1.6-0.3c-0.6,0.1-1.1,0.4-1.3,1c-0.3,0.5-0.4,1.1-0.3,1.6c0.1,0.6,0.4,1.1,1,1.3
		c0.4,0.2,0.8,0.4,1.2,0.4c0.6,0,1.1-0.2,1.5-0.6c0.1-0.1,0.2-0.3,0.3-0.4C17.7,36.2,17.4,34.9,16.4,34.2z"/>
	<path class="st0" d="M9.2,36.9c-0.4-0.3-1-0.4-1.5-0.4c-1,0-1.8,0.5-2.3,1.3C5,38.4,4.9,39.1,5,39.8s0.6,1.3,1.2,1.7
		c0.4,0.3,1,0.4,1.5,0.4c0.7,0,1.4-0.3,1.9-0.8c0.1-0.1,0.3-0.3,0.4-0.4C10.9,39.4,10.5,37.7,9.2,36.9z"/>
	<path class="st0" d="M7.7,29.6c0.1-0.1,0.3-0.3,0.4-0.4c0.8-1.3,0.4-3-0.8-3.8c-0.4-0.3-1-0.4-1.5-0.4l0,0c-1,0-1.8,0.5-2.3,1.3
		c-0.4,0.6-0.5,1.4-0.4,2.1s0.6,1.3,1.2,1.7c0.4,0.3,1,0.4,1.5,0.4C6.5,30.5,7.2,30.2,7.7,29.6z"/>
	<path class="st0" d="M48.7,53.3c-0.4-0.3-1-0.4-1.5-0.4c-1,0-1.8,0.5-2.3,1.3l0,0c-0.4,0.6-0.5,1.4-0.4,2.1
		c0.2,0.7,0.6,1.3,1.2,1.7c0.4,0.3,1,0.4,1.5,0.4c0.7,0,1.4-0.3,1.9-0.8c0.1-0.1,0.3-0.3,0.4-0.4C50.4,55.8,50,54.1,48.7,53.3z"/>
	<path class="st0" d="M25.2,53.3c-0.4-0.3-1-0.4-1.5-0.4l0,0c-1,0-1.8,0.5-2.3,1.3c-0.4,0.6-0.5,1.4-0.4,2.1
		c0.2,0.7,0.6,1.3,1.2,1.7c0.4,0.3,1,0.4,1.5,0.4c0.7,0,1.4-0.3,1.9-0.8c0.1-0.1,0.3-0.3,0.4-0.4C26.8,55.8,26.4,54.1,25.2,53.3z"/>
	<g id="_xF672_-copy_2_">
		<path class="st0" d="M35.4,36.4c0.4,0,0.7-0.1,0.9-0.4c0.3-0.3,0.4-0.5,0.4-0.9s-0.1-0.7-0.4-0.9c-0.3-0.3-0.5-0.4-0.9-0.4
			c-1.7,0-3.1-0.6-4.3-1.8c-1.2-1.2-1.8-2.6-1.8-4.3c0-0.4-0.1-0.7-0.4-0.9c-0.3-0.3-0.5-0.4-0.9-0.4c-0.3,0-0.7,0.1-0.9,0.4
			c-0.3,0.3-0.4,0.5-0.4,0.9c0,1.5,0.4,3,1.2,4.3c0.8,1.3,1.8,2.4,3.1,3.2C32.4,36,33.9,36.4,35.4,36.4z M35.5,41.2
			c2.5,0,4.8-0.6,6.8-1.8c2.1-1.2,3.7-2.8,4.9-4.9c1.2-2.1,1.8-4.4,1.8-6.9c0-1.7-0.3-3.3-0.9-4.8c-0.6-1.5-1.4-2.9-2.5-4.2
			c-0.9-1-1.8-2.4-2.6-3.9c-0.8-1.4-1.3-2.5-1.4-3.2H29.3c-0.1,0.6-0.5,1.7-1.3,3.2c-0.9,1.6-1.8,2.9-2.7,3.9
			c-1.1,1.2-1.9,2.6-2.5,4.2c-0.6,1.5-0.9,3.1-0.9,4.8c0,2.4,0.6,4.6,1.7,6.7c1.2,2.1,2.8,3.8,4.8,5C30.6,40.6,32.9,41.2,35.5,41.2z
			 M43.9,20.2c0.9,1,1.6,2.2,2.1,3.5c0.4,1.3,0.7,2.6,0.7,3.9c0,2-0.5,3.9-1.5,5.6c-1,1.7-2.4,3.1-4,4.1s-3.6,1.5-5.6,1.5
			s-3.9-0.5-5.6-1.5c-1.7-1-3-2.4-4-4.1c-1-1.7-1.4-3.6-1.4-5.5c0-2.8,0.9-5.2,2.8-7.4c0.6-0.7,1.3-1.5,1.9-2.6
			c0.8-1.2,1.4-2.5,1.9-3.6h9c0.5,1.2,1.2,2.4,1.9,3.6C42.7,18.7,43.3,19.5,43.9,20.2z"/>
	</g>
	<g id="Rectangle-Copy-2_2_">
		<path class="st0" d="M31.5,1.7h8.1c1.1,0,2,0.9,2,2v0.8h-12V3.7C29.5,2.6,30.4,1.7,31.5,1.7z"/>
	</g>
	<g id="Rectangle-Copy_2_">
		<rect x="29.5" y="6.8" class="st0" width="12" height="2.8"/>
	</g>
	<path class="st0" d="M36.9,55.2c-0.4-0.3-1-0.4-1.5-0.4l0,0c-1,0-1.8,0.5-2.3,1.3c-0.4,0.6-0.5,1.4-0.4,2.1s0.6,1.3,1.2,1.7
		c0.4,0.3,1,0.4,1.5,0.4c0.7,0,1.4-0.3,1.9-0.8c0.1-0.1,0.3-0.3,0.4-0.4C38.6,57.8,38.2,56,36.9,55.2z"/>
	<path class="st0" d="M34.3,51.5c0.4,0.2,0.8,0.4,1.2,0.4c0.6,0,1.1-0.2,1.5-0.6c0.1-0.1,0.2-0.3,0.3-0.4c0.6-1,0.4-2.4-0.7-3
		c-0.5-0.3-1.1-0.4-1.6-0.3c-0.6,0.1-1.1,0.4-1.3,1c-0.3,0.5-0.4,1.1-0.3,1.6C33.5,50.7,33.8,51.2,34.3,51.5z"/>
	<path class="st0" d="M45.8,49.4c0.6-1,0.4-2.4-0.7-3c-0.5-0.3-1.1-0.4-1.6-0.3c-0.6,0.1-1.1,0.4-1.3,1c-0.3,0.5-0.4,1.1-0.3,1.6
		c0.1,0.6,0.4,1.1,1,1.3c0.4,0.2,0.8,0.4,1.2,0.4c0.6,0,1.1-0.2,1.5-0.6C45.7,49.7,45.8,49.5,45.8,49.4z"/>
	<path class="st0" d="M28.1,46.4c-0.5-0.3-1.1-0.4-1.6-0.3c-0.6,0.1-1.1,0.4-1.3,1c-0.3,0.5-0.4,1.1-0.3,1.6c0.1,0.6,0.4,1.1,1,1.3
		c0.4,0.2,0.8,0.4,1.2,0.4c0.6,0,1.1-0.2,1.5-0.6c0.1-0.1,0.2-0.3,0.3-0.4c0.3-0.5,0.4-1.1,0.3-1.6C28.9,47.2,28.6,46.7,28.1,46.4z"
		/>
	<path class="st0" d="M15.6,46.8c-0.4-0.3-1-0.4-1.5-0.4c-1,0-1.8,0.5-2.3,1.3c-0.4,0.6-0.5,1.4-0.4,2.1c0.2,0.7,0.6,1.3,1.2,1.7
		c0.4,0.3,1,0.4,1.5,0.4c0.7,0,1.4-0.3,1.9-0.8c0.1-0.1,0.3-0.3,0.4-0.4C17.3,49.3,16.9,47.6,15.6,46.8z"/>
	<path class="st0" d="M58.3,46.8c-0.4-0.3-1-0.4-1.5-0.4c-1,0-1.8,0.5-2.3,1.3c-0.4,0.6-0.5,1.4-0.4,2.1s0.6,1.3,1.2,1.7
		c0.4,0.3,1,0.4,1.5,0.4c0.7,0,1.4-0.3,1.9-0.8c0.1-0.1,0.3-0.3,0.4-0.4C59.9,49.3,59.5,47.6,58.3,46.8z"/>
	<path class="st0" d="M21,41.6c-0.5-0.3-1.1-0.4-1.6-0.3c-0.6,0.1-1.1,0.4-1.3,1c-0.3,0.5-0.4,1.1-0.3,1.6c0.1,0.6,0.4,1.1,1,1.3
		c0.4,0.2,0.8,0.4,1.2,0.4c0.6,0,1.1-0.2,1.5-0.6c0.1-0.1,0.2-0.3,0.3-0.4C22.4,43.6,22.1,42.2,21,41.6z"/>
	<path class="st0" d="M52.2,41.6c-0.5-0.3-1.1-0.4-1.6-0.3c-0.6,0.1-1.1,0.4-1.3,1c-0.3,0.5-0.4,1.1-0.3,1.6c0.1,0.6,0.4,1.1,1,1.3
		c0.4,0.2,0.8,0.4,1.2,0.4c0.6,0,1.1-0.2,1.5-0.6c0.1-0.1,0.2-0.3,0.3-0.4C53.5,43.6,53.2,42.2,52.2,41.6z"/>
</g>
</svg>
