<?xml version="1.0" encoding="UTF-8"?>
<svg width="400px" height="400px" viewBox="0 0 400 400" version="1.1" xmlns="http://www.w3.org/2000/svg" xmlns:xlink="http://www.w3.org/1999/xlink">
    <!-- Generator: Sketch 52.5 (67469) - http://www.bohemiancoding.com/sketch -->
    <title>Artboard</title>
    <desc>Created with Sketch.</desc>
    <defs>
        <polygon id="path-1" points="0 0.116028249 31.5775695 0.116028249 31.5775695 44.5398701 0 44.5398701"></polygon>
        <polygon id="path-3" points="0 86.3739887 351.976508 86.3739887 351.976508 0 0 0"></polygon>
    </defs>
    <g id="Artboard" stroke="none" stroke-width="1" fill="none" fill-rule="evenodd">
        <rect fill="#FFFFFF" x="0" y="0" width="400" height="400"></rect>
        <g id="Group-39" transform="translate(24.000000, 157.000000)">
            <path d="M345.850304,11.1674983 C342.233728,7.50741921 337.625536,5.57266215 331.565716,5.57266215 C318.756993,5.57266215 310.15114,14.9523684 310.15114,28.9124249 C310.15114,42.6334644 318.721321,51.5003345 331.984462,51.5003345 C342.033242,51.5003345 349.561841,46.1775774 351.633569,37.6100068 L351.730394,37.2079164 L341.040632,37.2079164 L340.966428,37.430278 C339.737287,41.1183232 336.602349,43.0670011 331.900812,43.0670011 C325.426722,43.0670011 321.564044,39.1844362 320.71375,31.8328316 L351.863886,31.8328316 L351.888247,31.5345266 C351.891728,31.4935096 351.973762,30.5008994 351.973762,29.0841989 C352.063626,21.5084927 349.94653,15.3134418 345.850304,11.1674983 Z M320.981479,24.4035435 C322.072654,17.7366734 325.915072,13.9230915 331.565716,13.9230915 C337.472903,13.9230915 341.023976,17.6398486 341.593615,24.4035435 L320.981479,24.4035435 Z" id="Fill-1" fill="#1D1D1B"></path>
            <g id="Group-5" transform="translate(0.000000, 5.955910)">
                <mask id="mask-2" fill="white">
                    <use xlink:href="#path-1"></use>
                </mask>
                <g id="Clip-4"></g>
                <polygon id="Fill-3" fill="#1D1D1B" mask="url(#mask-2)" points="-1.24293785e-05 0.116028249 -1.24293785e-05 44.5398701 31.5775695 44.5398701 31.5775695 34.5896554 11.1112305 34.5896554 11.1112305 0.116028249"></polygon>
            </g>
            <path d="M137.736755,5.5728113 C131.665625,5.5728113 126.700585,8.24115028 123.692924,13.1032746 C120.998359,8.24115028 116.200868,5.5728113 110.119297,5.5728113 C104.665783,5.5728113 100.158642,7.76137627 97.3046079,11.7635119 L97.3046079,6.57772655 L87.5322576,6.57772655 L87.5322576,50.4955684 L98.1419751,50.4955684 L98.1419751,24.5615458 C98.1419751,18.6570938 101.595354,14.8435119 106.938868,14.8435119 C112.317433,14.8435119 115.400913,18.5986757 115.400913,25.1469695 L115.400913,50.4955684 L126.010631,50.4955684 L126.010631,24.5615458 C126.010631,18.6570938 129.463885,14.8435119 134.807647,14.8435119 C140.13289,14.8435119 143.186789,18.5986757 143.186789,25.1469695 L143.186789,50.4955684 L153.795512,50.4955684 L153.795512,23.3055571 C153.795512,12.3679525 147.642348,5.5728113 137.736755,5.5728113" id="Fill-6" fill="#1D1D1B"></path>
            <mask id="mask-4" fill="white">
                <use xlink:href="#path-3"></use>
            </mask>
            <g id="Clip-9"></g>
            <polygon id="Fill-8" fill="#1D1D1B" mask="url(#mask-4)" points="164.482565 50.4960904 175.091412 50.4960904 175.091412 6.57737853 164.482565 6.57737853"></polygon>
            <path d="M208.736062,5.5728113 C202.906684,5.5728113 198.516379,7.67151186 195.670175,11.8132294 L195.670175,6.57772655 L185.898819,6.57772655 L185.898819,50.4955684 L196.507418,50.4955684 L196.507418,25.3981672 C196.507418,18.7844949 200.03848,14.6759638 205.723181,14.6759638 C211.368729,14.6759638 214.35352,18.3544384 214.35352,25.3135232 L214.35352,50.4955684 L224.962367,50.4955684 L224.962367,23.138009 C224.962367,12.1393763 218.896458,5.5728113 208.736062,5.5728113" id="Fill-10" fill="#1D1D1B" mask="url(#mask-4)"></path>
            <path d="M253.389698,5.5728113 C242.083936,5.5728113 235.163258,10.7551164 233.902794,20.1652746 L233.853077,20.5334328 L244.540354,20.5334328 L244.587461,20.2647096 C245.376851,15.7655232 248.174331,13.6711729 253.389698,13.6711729 C257.097755,13.6711729 261.517642,14.9507774 261.517642,21.0462689 L261.517642,23.2619299 L248.418568,24.5729808 C238.318331,25.6144384 232.979043,30.3571164 232.979043,38.2861898 C232.979043,45.9430599 239.627642,51.5004836 248.786602,51.5004836 C254.51406,51.5004836 259.074399,49.4836927 262.355009,45.5060429 L262.355009,50.4955684 L272.042591,50.4955684 L272.042591,21.5479186 C272.042591,11.0970486 265.592116,5.5728113 253.389698,5.5728113 Z M261.433992,30.1189695 L261.433992,33.2653424 C261.433992,39.8746644 257.613201,43.8199977 251.213314,43.8199977 C246.803122,43.8199977 243.838964,41.3941559 243.838964,37.7836701 C243.838964,34.1882237 246.228263,32.0144497 250.752806,31.4953989 L261.433992,30.1189695 Z" id="Fill-11" fill="#1D1D1B" mask="url(#mask-4)"></path>
            <path d="M295.34079,-1.24293785e-05 L284.732067,-1.24293785e-05 L284.732067,1.03883503 C284.732067,2.07519661 284.486089,3.87037175 283.272733,5.16041695 C282.094304,6.41217966 280.061852,6.57699322 279.303038,6.57699322 L277.786157,6.57786328 L277.786157,15.512722 L284.732067,15.512722 L284.732067,36.4459085 C284.732067,45.9659424 289.474745,50.9982249 298.447016,50.9982249 C300.772553,50.9982249 302.247547,50.8482023 304.29044,50.4041006 L304.546858,50.349287 L304.546858,41.4954678 L304.163908,41.566191 C303.241151,41.7327446 302.142892,41.8112983 300.70618,41.8112983 C297.095818,41.8112983 295.34079,39.8643605 295.34079,35.8596147 L295.34079,15.512722 L304.546858,15.512722 L304.546858,6.57786328 L295.34079,6.57786328 L295.34079,-1.24293785e-05 Z" id="Fill-12" fill="#1D1D1B" mask="url(#mask-4)"></path>
            <path d="M66.8268395,32.1772124 C66.8268395,38.4367718 63.1431446,42.4806701 57.4436531,42.4806701 C52.5257209,42.4806701 49.8181051,39.4756192 49.8181051,34.0186249 L49.8181051,6.57741582 L39.2093819,6.57741582 L39.2093819,35.2738678 C39.2093819,45.586026 44.8487153,51.5000486 54.6820938,51.5000486 C60.2778,51.5000486 64.7717661,49.2530655 67.7471107,44.9875514 L67.7471107,50.4961277 L77.4355627,50.4961277 L77.4355627,6.57741582 L66.8268395,6.57741582 L66.8268395,32.1772124 Z" id="Fill-13" fill="#1D1D1B" mask="url(#mask-4)"></path>
            <path d="M9.89379774,77.149165 C9.89379774,75.5118429 8.67149266,74.8658881 6.80310847,74.8658881 L2.85976384,74.8658881 L2.85976384,79.5244192 L6.78011412,79.5244192 C8.71760565,79.5244192 9.89379774,78.8557186 9.89379774,77.149165 Z M2.85976384,68.3394701 L2.85976384,72.6520915 L6.54954915,72.6520915 C8.25610282,72.6520915 9.20172994,71.7986904 9.20172994,70.4610407 C9.20172994,69.0080463 8.14075819,68.3394701 6.36509718,68.3394701 L2.85976384,68.3394701 Z M12.7531763,77.2645096 C12.7531763,79.8705774 11.0697412,81.7615831 7.19550395,81.7615831 L1.24293785e-05,81.7615831 L1.24293785e-05,66.1023062 L6.78011412,66.1023062 C10.4010407,66.1023062 12.0844757,67.7398768 12.0844757,70.2534701 C12.0844757,71.7986904 11.1619672,73.0901028 9.50152655,73.5513571 C11.7386904,74.0358542 12.7531763,75.3042723 12.7531763,77.2645096 Z" id="Fill-14" fill="#1D1D1B" mask="url(#mask-4)"></path>
            <path d="M24.813713,69.8384655 L24.813713,81.7615955 L22.3228655,81.7615955 L22.3228655,80.0319232 C21.5385718,81.3234599 20.2701537,82.0382734 18.6327073,82.0382734 C16.0038938,82.0382734 14.4587977,80.4931774 14.4587977,77.6564203 L14.4587977,69.8384655 L17.2029559,69.8384655 L17.2029559,77.310635 C17.2029559,78.8557311 17.9641311,79.7322508 19.3940068,79.7322508 C21.0313288,79.7322508 22.0691819,78.5790531 22.0691819,76.8033921 L22.0691819,69.8384655 L24.813713,69.8384655 Z" id="Fill-15" fill="#1D1D1B" mask="url(#mask-4)"></path>
            <path d="M27.2340113,81.7615706 L29.9785424,81.7615706 L29.9785424,69.8384407 L27.2340113,69.8384407 L27.2340113,81.7615706 Z M26.9113446,66.356226 C26.9113446,65.4104746 27.6260339,64.6954124 28.6178983,64.6954124 C29.5865198,64.6954124 30.3013333,65.4104746 30.3013333,66.356226 C30.3013333,67.2784859 29.5865198,68.0166667 28.6178983,68.0166667 C27.6260339,68.0166667 26.9113446,67.2784859 26.9113446,66.356226 Z" id="Fill-16" fill="#1D1D1B" mask="url(#mask-4)"></path>
            <polygon id="Fill-17" fill="#1D1D1B" mask="url(#mask-4)" points="32.4456497 81.7615706 35.1898079 81.7615706 35.1898079 65.1569153 32.4456497 65.1569153"></polygon>
            <path d="M46.0285616,75.8115525 C46.0285616,73.4129311 44.7140305,71.7986034 42.8921322,71.7986034 C40.9777593,71.7986034 39.7557028,73.3899367 39.7557028,75.8115525 C39.7557028,78.2331684 41.0468667,79.8013831 42.8921322,79.8013831 C44.7140305,79.8013831 46.0285616,78.3024 46.0285616,75.8115525 Z M48.7730927,65.1568407 L48.7730927,81.7616203 L46.2822452,81.7616203 L46.2822452,79.6630441 C45.5210701,81.1851458 44.1836689,82.0382983 42.315409,82.0382983 C39.4556576,82.0382983 36.9651831,79.7321514 36.9651831,75.8115525 C36.9651831,71.867835 39.340313,69.5618124 42.2000644,69.5618124 C43.9527311,69.5618124 45.2212734,70.2535073 46.0285616,71.4528181 L46.0285616,65.1568407 L48.7730927,65.1568407 Z" id="Fill-18" fill="#1D1D1B" mask="url(#mask-4)"></path>
            <path d="M51.2164972,81.7615706 L53.9606554,81.7615706 L53.9606554,69.8384407 L51.2164972,69.8384407 L51.2164972,81.7615706 Z M50.8933333,66.356226 C50.8933333,65.4104746 51.6083955,64.6954124 52.6001356,64.6954124 C53.5686328,64.6954124 54.2836949,65.4104746 54.2836949,66.356226 C54.2836949,67.2784859 53.5686328,68.0166667 52.6001356,68.0166667 C51.6083955,68.0166667 50.8933333,67.2784859 50.8933333,66.356226 Z" id="Fill-19" fill="#1D1D1B" mask="url(#mask-4)"></path>
            <path d="M66.9670927,74.3124949 L66.9670927,81.7615458 L64.2225616,81.7615458 L64.2225616,74.9119638 C64.2225616,72.8365062 63.2773073,71.8908791 61.7552056,71.8908791 C60.2560983,71.8908791 59.1260192,72.9057379 59.1260192,74.9350825 L59.1260192,81.7615458 L56.3814881,81.7615458 L56.3814881,69.8384158 L58.8954542,69.8384158 L58.8954542,71.4988565 C59.6563808,70.2073198 60.9018045,69.5617379 62.5852395,69.5617379 C65.1222,69.5617379 66.9670927,71.1068339 66.9670927,74.3124949" id="Fill-20" fill="#1D1D1B" mask="url(#mask-4)"></path>
            <path d="M77.666861,75.3734915 C77.666861,73.1824407 76.3062169,71.798678 74.5304316,71.798678 C72.6621718,71.798678 71.3480136,73.1824407 71.3480136,75.3966102 C71.3480136,77.5872881 72.7314034,78.9710508 74.5304316,78.9710508 C76.3292113,78.9710508 77.666861,77.5180565 77.666861,75.3734915 Z M80.4113921,69.8384407 L80.4113921,81.185096 C80.4113921,84.0449718 78.7509514,86.3739887 74.6226576,86.3739887 C70.4022621,86.3739887 69.0184994,84.529096 68.7879345,82.1535932 L71.6706802,82.1535932 C71.7860249,83.4912429 72.6391774,84.3216497 74.5996633,84.3216497 C76.5597763,84.3216497 77.666861,83.2836723 77.666861,81.3004407 L77.666861,79.2938418 C76.8364542,80.6083729 75.5450418,81.2082147 73.9075955,81.2082147 C70.9787367,81.2082147 68.6034825,78.9710508 68.6034825,75.3966102 C68.6034825,71.798678 70.9556181,69.5617627 73.9075955,69.5617627 C75.6833808,69.5617627 77.0440249,70.3226893 77.8744316,71.6833333 L77.8744316,69.8384407 L80.4113921,69.8384407 Z" id="Fill-21" fill="#1D1D1B" mask="url(#mask-4)"></path>
            <path d="M87.1440136,78.2793435 L89.8420588,78.2793435 C90.095991,79.4551627 90.9721379,80.0550045 92.5403525,80.0550045 C94.1546802,80.0550045 94.9158554,79.4551627 94.9158554,78.5790158 C94.9158554,77.8178407 94.5008384,77.2876034 93.2785333,77.0800328 L90.7415729,76.6189028 C88.3891887,76.1574 87.3745785,75.0503153 87.3745785,73.2285412 C87.3745785,71.268304 89.0350192,69.5617503 92.1945672,69.5617503 C95.3309966,69.5617503 97.0836633,71.083852 97.4528158,73.5052192 L94.754522,73.5052192 C94.5470757,72.1909367 93.6705559,71.5449819 92.1714486,71.5449819 C90.7185785,71.5449819 89.957652,72.2140554 89.957652,73.0670836 C89.957652,73.7591514 90.3496746,74.2432757 91.6412113,74.4508463 L94.1546802,74.8889819 C96.6916407,75.3273661 97.6603864,76.5494226 97.6603864,78.3715695 C97.6603864,80.3548011 96.0921718,82.0382362 92.5634712,82.0382362 C89.0811322,82.0382362 87.5360362,80.5162588 87.1440136,78.2793435" id="Fill-22" fill="#1D1D1B" mask="url(#mask-4)"></path>
            <path d="M102.940797,72.1214565 L102.940797,77.8178407 C102.940797,79.0171514 103.494153,79.5477616 104.509011,79.5477616 C104.924028,79.5477616 105.223825,79.5243944 105.477384,79.4782814 L105.477384,81.7385638 C104.947147,81.8537842 104.555124,81.8998972 103.886051,81.8998972 C101.372209,81.8998972 100.196266,80.4700215 100.196266,77.979174 L100.196266,72.1214565 L98.2820169,72.1214565 L98.2820169,69.8384282 L100.196266,69.8384282 L100.196266,66.4714339 L102.940797,66.4714339 L102.940797,69.8384282 L105.477384,69.8384282 L105.477384,72.1214565 L102.940797,72.1214565 Z" id="Fill-23" fill="#1D1D1B" mask="url(#mask-4)"></path>
            <path d="M113.548675,69.815409 L113.548675,72.2370249 C113.364223,72.2140305 113.133658,72.2140305 112.856607,72.2140305 C110.942607,72.2140305 109.973861,73.1131718 109.973861,75.0043017 L109.973861,81.7615333 L107.229703,81.7615333 L107.229703,69.8385277 L109.743296,69.8385277 L109.743296,71.7986407 C110.297025,70.460991 111.380742,69.7231831 112.764381,69.7231831 C112.994946,69.7231831 113.294991,69.7461774 113.548675,69.815409" id="Fill-24" fill="#1D1D1B" mask="url(#mask-4)"></path>
            <path d="M123.18818,75.8115525 C123.18818,73.4129311 121.942756,71.821722 120.028756,71.821722 C118.091264,71.821722 116.846214,73.4129311 116.846214,75.8346712 C116.846214,78.1870554 118.114383,79.7783887 120.028756,79.7783887 C121.942756,79.7783887 123.18818,78.1870554 123.18818,75.8115525 M114.101807,75.8346712 C114.101807,72.006174 116.569163,69.5618124 120.028756,69.5618124 C123.487976,69.5618124 125.955705,72.006174 125.955705,75.8115525 C125.955705,79.5939367 123.487976,82.0382983 120.05175,82.0382983 C116.569163,82.0382983 114.101807,79.6169311 114.101807,75.8346712" id="Fill-25" fill="#1D1D1B" mask="url(#mask-4)"></path>
            <path d="M138.154544,74.3124949 L138.154544,81.7615458 L135.410137,81.7615458 L135.410137,74.9119638 C135.410137,72.8365062 134.46451,71.8908791 132.942284,71.8908791 C131.443301,71.8908791 130.313221,72.9057379 130.313221,74.9350825 L130.313221,81.7615458 L127.569063,81.7615458 L127.569063,69.8384158 L130.082656,69.8384158 L130.082656,71.4988565 C130.843832,70.2073198 132.089255,69.5617379 133.772815,69.5617379 C136.309651,69.5617379 138.154544,71.1068339 138.154544,74.3124949" id="Fill-26" fill="#1D1D1B" mask="url(#mask-4)"></path>
            <path d="M148.854374,75.3734915 C148.854374,73.1824407 147.49373,71.798678 145.717945,71.798678 C143.849685,71.798678 142.535402,73.1824407 142.535402,75.3966102 C142.535402,77.5872881 143.918916,78.9710508 145.717945,78.9710508 C147.516724,78.9710508 148.854374,77.5180565 148.854374,75.3734915 Z M151.598905,69.8384407 L151.598905,81.185096 C151.598905,84.0449718 149.938464,86.3739887 145.810171,86.3739887 C141.589775,86.3739887 140.206012,84.529096 139.975447,82.1535932 L142.858193,82.1535932 C142.973538,83.4912429 143.82669,84.3216497 145.787176,84.3216497 C147.747289,84.3216497 148.854374,83.2836723 148.854374,81.3004407 L148.854374,79.2938418 C148.023967,80.6083729 146.732555,81.2082147 145.095108,81.2082147 C142.166125,81.2082147 139.790995,78.9710508 139.790995,75.3966102 C139.790995,71.798678 142.143131,69.5617627 145.095108,69.5617627 C146.870894,69.5617627 148.231538,70.3226893 149.061945,71.6833333 L149.061945,69.8384407 L151.598905,69.8384407 Z" id="Fill-27" fill="#1D1D1B" mask="url(#mask-4)"></path>
            <path d="M161.883308,74.7506181 C161.744969,72.7212734 160.683998,71.683296 159.023557,71.683296 C157.478461,71.683296 156.302145,72.6981548 156.002472,74.7506181 L161.883308,74.7506181 Z M164.696947,75.9499288 C164.696947,76.3418271 164.673828,76.618878 164.673828,76.618878 L155.933241,76.618878 C156.163806,78.9017819 157.409229,79.8936463 159.115783,79.8936463 C160.545659,79.8936463 161.376066,79.2476915 161.698856,78.2793186 L164.466382,78.2793186 C163.958766,80.3777706 162.113873,82.0382113 159.138777,82.0382113 C155.379885,82.0382113 153.211828,79.5243695 153.211828,75.9038158 C153.211828,72.0523243 155.61045,69.5617254 159.023557,69.5617254 C162.690597,69.5617254 164.74306,72.0984373 164.696947,75.9499288 Z" id="Fill-28" fill="#1D1D1B" mask="url(#mask-4)"></path>
            <path d="M172.882886,69.815409 L172.882886,72.2370249 C172.698434,72.2140305 172.467869,72.2140305 172.191191,72.2140305 C170.277067,72.2140305 169.308321,73.1131718 169.308321,75.0043017 L169.308321,81.7615333 L166.563914,81.7615333 L166.563914,69.8385277 L169.077756,69.8385277 L169.077756,71.7986407 C169.631112,70.460991 170.715202,69.7231831 172.098965,69.7231831 C172.32953,69.7231831 172.629202,69.7461774 172.882886,69.815409" id="Fill-29" fill="#1D1D1B" mask="url(#mask-4)"></path>
            <path d="M178.094487,78.2793435 L180.792408,78.2793435 C181.04634,79.4551627 181.922611,80.0550045 183.490826,80.0550045 C185.105029,80.0550045 185.866329,79.4551627 185.866329,78.5790158 C185.866329,77.8178407 185.451063,77.2876034 184.228882,77.0800328 L181.691922,76.6189028 C179.339538,76.1574 178.324928,75.0503153 178.324928,73.2285412 C178.324928,71.268304 179.985493,69.5617503 183.144916,69.5617503 C186.281346,69.5617503 188.034012,71.083852 188.403041,73.5052192 L185.704871,73.5052192 C185.497176,72.1909367 184.620905,71.5449819 183.121798,71.5449819 C181.668928,71.5449819 180.908125,72.2140554 180.908125,73.0670836 C180.908125,73.7591514 181.300024,74.2432757 182.59156,74.4508463 L185.105029,74.8889819 C187.64199,75.3273661 188.610363,76.5494226 188.610363,78.3715695 C188.610363,80.3548011 187.042148,82.0382362 183.513945,82.0382362 C180.031606,82.0382362 178.486385,80.5162588 178.094487,78.2793435" id="Fill-30" fill="#1D1D1B" mask="url(#mask-4)"></path>
            <path d="M198.849486,75.8115525 C198.849486,73.4129311 197.603938,71.821722 195.689689,71.821722 C193.752446,71.821722 192.507147,73.4129311 192.507147,75.8346712 C192.507147,78.1870554 193.775565,79.7783887 195.689689,79.7783887 C197.603938,79.7783887 198.849486,78.1870554 198.849486,75.8115525 M189.76274,75.8346712 C189.76274,72.006174 192.230469,69.5618124 195.689689,69.5618124 C199.149158,69.5618124 201.616638,72.006174 201.616638,75.8115525 C201.616638,79.5939367 199.149158,82.0382983 195.712684,82.0382983 C192.230469,82.0382983 189.76274,79.6169311 189.76274,75.8346712" id="Fill-31" fill="#1D1D1B" mask="url(#mask-4)"></path>
            <path d="M202.814619,75.7884836 C202.814619,71.9138734 205.282348,69.5617379 208.672461,69.5617379 C211.993715,69.5617379 213.769376,71.4066305 214.13828,74.0126983 L211.324642,74.0126983 C211.047964,72.5828226 210.194563,71.8216475 208.649342,71.8216475 C206.758337,71.8216475 205.582145,73.2976362 205.582145,75.765365 C205.582145,78.2332181 206.758337,79.7783141 208.649342,79.7783141 C210.194563,79.7783141 211.024969,79.017139 211.324642,77.5872633 L214.115286,77.5872633 C213.723263,80.2395684 211.878371,82.0382237 208.672461,82.0382237 C205.282348,82.0382237 202.814619,79.6630938 202.814619,75.7884836" id="Fill-32" fill="#1D1D1B" mask="url(#mask-4)"></path>
            <path d="M215.844237,81.7615706 L218.588644,81.7615706 L218.588644,69.8384407 L215.844237,69.8384407 L215.844237,81.7615706 Z M215.521322,66.356226 C215.521322,65.4104746 216.236136,64.6954124 217.228,64.6954124 C218.196373,64.6954124 218.911435,65.4104746 218.911435,66.356226 C218.911435,67.2784859 218.196373,68.0166667 217.228,68.0166667 C216.236136,68.0166667 215.521322,67.2784859 215.521322,66.356226 Z" id="Fill-33" fill="#1D1D1B" mask="url(#mask-4)"></path>
            <path d="M228.919595,74.7506181 C228.781256,72.7212734 227.720285,71.683296 226.059844,71.683296 C224.514748,71.683296 223.338805,72.6981548 223.038759,74.7506181 L228.919595,74.7506181 Z M231.733234,75.9499288 C231.733234,76.3418271 231.710115,76.618878 231.710115,76.618878 L222.969528,76.618878 C223.200093,78.9017819 224.445516,79.8936463 226.151946,79.8936463 C227.581821,79.8936463 228.412353,79.2476915 228.735144,78.2793186 L231.502545,78.2793186 C230.995302,80.3777706 229.150036,82.0382113 226.175064,82.0382113 C222.416172,82.0382113 220.248115,79.5243695 220.248115,75.9038158 C220.248115,72.0523243 222.646737,69.5617254 226.059844,69.5617254 C229.726884,69.5617254 231.779347,72.0984373 231.733234,75.9499288 Z" id="Fill-34" fill="#1D1D1B" mask="url(#mask-4)"></path>
            <path d="M237.244122,72.1214565 L237.244122,77.8178407 C237.244122,79.0171514 237.797851,79.5477616 238.812337,79.5477616 C239.227727,79.5477616 239.527399,79.5243944 239.781082,79.4782814 L239.781082,81.7385638 C239.250845,81.8537842 238.85845,81.8998972 238.189749,81.8998972 C235.675907,81.8998972 234.499715,80.4700215 234.499715,77.979174 L234.499715,72.1214565 L232.585715,72.1214565 L232.585715,69.8384282 L234.499715,69.8384282 L234.499715,66.4714339 L237.244122,66.4714339 L237.244122,69.8384282 L239.781082,69.8384282 L239.781082,72.1214565 L237.244122,72.1214565 Z" id="Fill-35" fill="#1D1D1B" mask="url(#mask-4)"></path>
            <path d="M241.579266,81.7615706 L244.323672,81.7615706 L244.323672,69.8384407 L241.579266,69.8384407 L241.579266,81.7615706 Z M241.256475,66.356226 C241.256475,65.4104746 241.971164,64.6954124 242.963028,64.6954124 C243.931401,64.6954124 244.646463,65.4104746 244.646463,66.356226 C244.646463,67.2784859 243.931401,68.0166667 242.963028,68.0166667 C241.971164,68.0166667 241.256475,67.2784859 241.256475,66.356226 Z" id="Fill-36" fill="#1D1D1B" mask="url(#mask-4)"></path>
            <path d="M254.654847,74.7506181 C254.516633,72.7212734 253.455661,71.683296 251.795096,71.683296 C250.250124,71.683296 249.073808,72.6981548 248.774136,74.7506181 L254.654847,74.7506181 Z M257.46861,75.9499288 C257.46861,76.3418271 257.445492,76.618878 257.445492,76.618878 L248.704904,76.618878 C248.935345,78.9017819 250.180893,79.8936463 251.887322,79.8936463 C253.317198,79.8936463 254.147605,79.2476915 254.47052,78.2793186 L257.237921,78.2793186 C256.730678,80.3777706 254.885412,82.0382113 251.910441,82.0382113 C248.151548,82.0382113 245.983492,79.5243695 245.983492,75.9038158 C245.983492,72.0523243 248.381989,69.5617254 251.795096,69.5617254 C255.46226,69.5617254 257.514723,72.0984373 257.46861,75.9499288 Z" id="Fill-37" fill="#1D1D1B" mask="url(#mask-4)"></path>
            <path d="M258.620466,78.2793435 L261.318759,78.2793435 C261.572319,79.4551627 262.448838,80.0550045 264.017053,80.0550045 C265.631381,80.0550045 266.392556,79.4551627 266.392556,78.5790158 C266.392556,77.8178407 265.977166,77.2876034 264.755234,77.0800328 L262.218273,76.6189028 C259.865889,76.1574 258.851279,75.0503153 258.851279,73.2285412 C258.851279,71.268304 260.51172,69.5617503 263.671268,69.5617503 C266.807573,69.5617503 268.560364,71.083852 268.929144,73.5052192 L266.231098,73.5052192 C266.023403,72.1909367 265.147256,71.5449819 263.648149,71.5449819 C262.195279,71.5449819 261.434104,72.2140554 261.434104,73.0670836 C261.434104,73.7591514 261.826375,74.2432757 263.117539,74.4508463 L265.631381,74.8889819 C268.168341,75.3273661 269.136714,76.5494226 269.136714,78.3715695 C269.136714,80.3548011 267.568499,82.0382362 264.040172,82.0382362 C260.557833,82.0382362 259.012612,80.5162588 258.620466,78.2793435" id="Fill-38" fill="#1D1D1B" mask="url(#mask-4)"></path>
        </g>
    </g>
</svg>