<?xml version="1.0" encoding="utf-8"?>
<!-- Generator: Adobe Illustrator 16.0.0, SVG Export Plug-In . SVG Version: 6.00 Build 0)  -->
<!DOCTYPE svg PUBLIC "-//W3C//DTD SVG 1.1//EN" "http://www.w3.org/Graphics/SVG/1.1/DTD/svg11.dtd">
<svg version="1.1" xmlns="http://www.w3.org/2000/svg" xmlns:xlink="http://www.w3.org/1999/xlink" x="0px" y="0px" width="128px"
	 height="100px" viewBox="0 0 128 100" enable-background="new 0 0 128 100" xml:space="preserve">
<g id="R" display="none">
</g>
<g id="FOndo">
</g>
<g id="Layer_3">
</g>
<g id="Layer_1">
	<g>
		<path fill="#FFFFFF" d="M33.678,54.694C28.892,49.911,26.5,44.1,26.5,37.263c0-6.834,2.392-12.646,7.178-17.432
			c4.783-4.783,10.595-7.178,17.432-7.178c6.834,0,12.646,2.395,17.432,7.178c4.783,4.786,7.178,10.598,7.178,17.432
			c0,6.251-2.149,11.77-6.445,16.553l5.273,5.273l3.516-3.516l23.877,23.877l-8.643,8.643L69.42,64.216l3.516-3.516l-5.273-5.273
			c-4.786,4.299-10.305,6.445-16.553,6.445C44.272,61.872,38.461,59.48,33.678,54.694z M28.844,37.263
			c0,6.152,2.172,11.403,6.519,15.747c4.344,4.347,9.595,6.519,15.747,6.519s11.4-2.172,15.747-6.519
			c4.344-4.344,6.519-9.595,6.519-15.747s-2.175-11.4-6.519-15.747c-4.347-4.344-9.595-6.519-15.747-6.519
			s-11.403,2.175-15.747,6.519C31.016,25.862,28.844,31.11,28.844,37.263z M78.062,58.796l-5.42,5.42L93.297,84.87l5.42-5.42
			L78.062,58.796z"/>
	</g>
</g>
<g id="Menu">
</g>
</svg>
