<?xml version="1.0" encoding="utf-8"?>
<!-- Generator: Adobe Illustrator 16.0.0, SVG Export Plug-In . SVG Version: 6.00 Build 0)  -->
<!DOCTYPE svg PUBLIC "-//W3C//DTD SVG 1.1//EN" "http://www.w3.org/Graphics/SVG/1.1/DTD/svg11.dtd">
<svg version="1.1" xmlns="http://www.w3.org/2000/svg" xmlns:xlink="http://www.w3.org/1999/xlink" x="0px" y="0px" width="80px"
	 height="80px" viewBox="0 0 80 80" enable-background="new 0 0 80 80" xml:space="preserve">
<g id="R" display="none">
</g>
<g id="FOndo">
</g>
<g id="Layer_3">
</g>
<g id="Layer_1">
	<g>
		<path fill="#FFFFFF" d="M9.458,44.321C4.672,39.538,2.28,33.727,2.28,26.89c0-6.834,2.392-12.646,7.178-17.432
			C14.241,4.675,20.053,2.28,26.89,2.28c6.834,0,12.646,2.395,17.432,7.178c4.783,4.786,7.178,10.598,7.178,17.432
			c0,6.251-2.149,11.77-6.445,16.553l5.273,5.273l3.516-3.516L77.72,69.077l-8.643,8.643L45.2,53.843l3.516-3.516l-5.273-5.273
			c-4.786,4.299-10.305,6.445-16.553,6.445C20.053,51.499,14.241,49.107,9.458,44.321z M4.624,26.89
			c0,6.152,2.172,11.403,6.519,15.747c4.344,4.347,9.595,6.519,15.747,6.519s11.4-2.172,15.747-6.519
			c4.344-4.344,6.519-9.595,6.519-15.747s-2.175-11.4-6.519-15.747C38.29,6.799,33.042,4.624,26.89,4.624
			s-11.403,2.175-15.747,6.519C6.796,15.489,4.624,20.737,4.624,26.89z M53.843,48.423l-5.42,5.42l20.654,20.654l5.42-5.42
			L53.843,48.423z"/>
	</g>
</g>
<g id="Menu">
</g>
</svg>
