<?xml version="1.0" encoding="utf-8"?>
<!-- Generator: Adobe Illustrator 16.0.0, SVG Export Plug-In . SVG Version: 6.00 Build 0)  -->
<!DOCTYPE svg PUBLIC "-//W3C//DTD SVG 1.1//EN" "http://www.w3.org/Graphics/SVG/1.1/DTD/svg11.dtd">
<svg version="1.1" xmlns="http://www.w3.org/2000/svg" xmlns:xlink="http://www.w3.org/1999/xlink" x="0px" y="0px" width="61px"
	 height="82px" viewBox="0 0 61 82" enable-background="new 0 0 61 82" xml:space="preserve">
<g id="R" display="none">
</g>
<g id="FOndo">
</g>
<g id="Layer_3">
</g>
<g id="Layer_1">
	<g>
		<path fill="#FFFFFF" d="M36.587,2.045v4.869h4.564l0.914,3.652h16.434v69.389H2.501V10.566h16.435l0.913-3.652h4.564V2.045H36.587
			z M16.806,19.088l1.521-6.086H4.937v64.52h51.128v-64.52H42.674l1.521,6.086H16.806z M34.152,9.35V4.48h-7.304V9.35h-5.174
			l-1.826,7.304h21.303L39.326,9.35H34.152z M28.212,32.479h20.549v-2.435H28.212V32.479z M28.212,44.652h20.549v-2.435H28.212
			V44.652z M28.212,56.826h20.549v-2.436H28.212V56.826z M28.212,69h20.549v-2.436H28.212V69z"/>
	</g>
	<path fill="#FFFFFF" d="M20.636,59.865h-10v-10h10V59.865z M12.636,57.865h6v-6h-6V57.865z"/>
	<path fill="#FFFFFF" d="M20.636,71.865h-10v-10h10V71.865z M12.636,69.865h6v-6h-6V69.865z"/>
	<polygon fill="#FFFFFF" points="18.636,33.865 18.636,33.865 12.636,33.865 12.636,27.865 18.194,27.865 19.696,25.865 
		10.636,25.865 10.636,35.865 20.636,35.865 20.636,33.865 	"/>
	<polygon fill="#FFFFFF" points="18.052,34.452 13.642,30.23 15.024,28.786 17.806,31.448 22.495,25.202 24.095,26.403 	"/>
	<polygon fill="#FFFFFF" points="18.636,45.865 18.636,45.865 12.636,45.865 12.636,39.865 18.194,39.865 19.696,37.865 
		10.636,37.865 10.636,47.865 20.636,47.865 20.636,45.865 	"/>
	<polygon fill="#FFFFFF" points="18.052,46.452 13.642,42.23 15.024,40.786 17.806,43.448 22.495,37.202 24.095,38.403 	"/>
</g>
<g id="Menu">
</g>
</svg>
