<?xml version="1.0" encoding="utf-8"?>
<!-- Generator: Adobe Illustrator 16.0.0, SVG Export Plug-In . SVG Version: 6.00 Build 0)  -->
<!DOCTYPE svg PUBLIC "-//W3C//DTD SVG 1.1//EN" "http://www.w3.org/Graphics/SVG/1.1/DTD/svg11.dtd">
<svg version="1.1" xmlns="http://www.w3.org/2000/svg" xmlns:xlink="http://www.w3.org/1999/xlink" x="0px" y="0px" width="129px"
	 height="66px" viewBox="0 0 129 66" enable-background="new 0 0 129 66" xml:space="preserve">
<g id="R" display="none">
</g>
<g id="FOndo">
</g>
<g id="Layer_3">
</g>
<g id="Layer_1">
	<g>
		<path fill="#FFFFFF" d="M25.58,28.642c-5.923,0-11.119-6.684-11.119-14.303c0-6.875,4.677-11.865,11.119-11.865
			s11.119,4.99,11.119,11.865C36.699,21.958,31.503,28.642,25.58,28.642z M25.58,4.474c-5.369,0-9.119,4.057-9.119,9.865
			c0,6.439,4.347,12.303,9.119,12.303s9.119-5.864,9.119-12.303C34.699,8.531,30.949,4.474,25.58,4.474z"/>
		<path fill="#FFFFFF" d="M103.577,28.642c-5.924,0-11.12-6.684-11.12-14.303c0-6.875,4.677-11.865,11.12-11.865
			s11.12,4.99,11.12,11.865C114.697,21.958,109.501,28.642,103.577,28.642z M103.577,4.474c-5.37,0-9.12,4.057-9.12,9.865
			c0,6.439,4.347,12.303,9.12,12.303s9.12-5.864,9.12-12.303C112.697,8.531,108.947,4.474,103.577,4.474z"/>
		<path fill="#FFFFFF" d="M63.906,37.527c-6.564,0-12.323-7.422-12.323-15.883c0-7.623,5.183-13.156,12.323-13.156
			c7.139,0,12.32,5.533,12.32,13.156C76.227,30.105,70.47,37.527,63.906,37.527z M63.906,10.488
			c-6.078,0-10.323,4.587-10.323,11.156c0,7.266,4.921,13.883,10.323,13.883c5.401,0,10.32-6.617,10.32-13.883
			C74.227,15.075,69.982,10.488,63.906,10.488z"/>
		<g>
			<path fill="#FFFFFF" d="M32.836,51.388c0.003-0.03,0.009-0.113,0.009-0.113H3.479V40.417c0-0.568,1.906-6.504,12.68-8.75
				c2.787,2.011,6.28,3.07,9.61,3.07c3.274,0,6.584-1.028,9.341-2.979c4.473,1.045,7.314,2.823,9.027,4.529
				c0.615-0.297,1.301-0.581,1.983-0.854c-1.939-2.152-5.247-4.498-10.899-5.728c-0.287-0.063-0.571,0.002-0.805,0.177
				c-2.493,1.868-5.387,2.855-8.377,2.855c-3.035,0-5.969-1.015-8.486-2.934c-0.228-0.173-0.516-0.244-0.797-0.186
				C3.667,32.167,2.075,39.903,2.038,40.231c-0.006,0.038-0.559,0.077-0.559,0.115V50.88c0,0.553,1.55,2.395,2.103,2.395h29.249
				L32.836,51.388z"/>
			<path fill="#FFFFFF" d="M126.021,40.231c-0.038-0.328-0.805-8.063-13.895-10.613c-0.281-0.058-0.434,0.013-0.661,0.186
				c-2.519,1.919-5.387,2.934-8.422,2.934c-2.988,0-5.852-0.987-8.345-2.855c-0.233-0.175-0.51-0.24-0.795-0.177
				c-5.973,1.298-9.334,3.842-11.22,6.087c0.647,0.291,1.272,0.596,1.862,0.914c1.668-1.828,4.52-3.818,9.362-4.949
				c2.757,1.951,5.929,2.979,9.202,2.979c3.33,0,6.001-1.061,8.788-3.07c10.789,2.247,11.581,8.133,11.581,8.749v10.858H95.373
				c0.165,1,0.264,1,0.31,2h29.893c0.553,0-0.096-1.842-0.096-2.395V40.346C125.479,40.308,126.025,40.269,126.021,40.231z"/>
		</g>
		<path fill="#FFFFFF" d="M89.211,63.526H39.293c-0.553,0-1-0.448-1-1V50.741c0-0.039,0.002-0.077,0.007-0.115
			c0.042-0.364,1.196-8.934,15.758-11.772c0.281-0.057,0.57,0.013,0.798,0.186c2.838,2.164,6.147,3.307,9.57,3.307
			c3.368,0,6.636-1.113,9.447-3.219c0.232-0.175,0.532-0.24,0.812-0.177c14.817,3.224,15.502,13.054,15.524,13.471l0.001,10.104
			C90.211,63.078,89.764,63.526,89.211,63.526z M40.293,61.526h47.918v-9.052c-0.021-0.295-0.683-8.5-13.515-11.471
			c-3.075,2.189-6.616,3.344-10.271,3.344c-3.718,0-7.31-1.189-10.416-3.444c-12.213,2.53-13.615,9.296-13.717,9.908V61.526z"/>
	</g>
</g>
<g id="Menu">
</g>
</svg>
