<?xml version="1.0" encoding="utf-8"?>
<!-- Generator: Adobe Illustrator 16.0.0, SVG Export Plug-In . SVG Version: 6.00 Build 0)  -->
<!DOCTYPE svg PUBLIC "-//W3C//DTD SVG 1.1//EN" "http://www.w3.org/Graphics/SVG/1.1/DTD/svg11.dtd">
<svg version="1.1" xmlns="http://www.w3.org/2000/svg" xmlns:xlink="http://www.w3.org/1999/xlink" x="0px" y="0px" width="128px"
	 height="100px" viewBox="0 0 128 100" enable-background="new 0 0 128 100" xml:space="preserve">
<g id="R" display="none">
</g>
<g id="FOndo">
</g>
<g id="Layer_3">
</g>
<g id="Layer_1">
	<g>
		<path fill="none" stroke="#FFFFFF" stroke-width="2" stroke-linejoin="round" stroke-miterlimit="10" d="M35.199,31.339
			c0,6.674-4.53,13.303-10.119,13.303c-5.588,0-10.119-6.629-10.119-13.303s4.531-10.865,10.119-10.865
			C30.669,20.474,35.199,24.666,35.199,31.339z"/>
		<path fill="none" stroke="#FFFFFF" stroke-width="2" stroke-linejoin="round" stroke-miterlimit="10" d="M92.957,31.339
			c0,6.674,4.531,13.303,10.12,13.303s10.12-6.629,10.12-13.303s-4.531-10.865-10.12-10.865S92.957,24.666,92.957,31.339z"/>
		<path fill="none" stroke="#FFFFFF" stroke-width="2" stroke-linejoin="round" stroke-miterlimit="10" d="M74.727,38.644
			c0,7.467-5.068,14.883-11.32,14.883c-6.253,0-11.323-7.416-11.323-14.883s5.07-12.156,11.323-12.156
			C69.658,26.488,74.727,31.177,74.727,38.644z"/>
		<g>
			<path fill="#FFFFFF" d="M32.031,67.549c0.003-0.03,0.009-0.113,0.009-0.113H3.675v-9.857c0-0.568,1.406-6.504,12.18-8.75
				c2.787,2.011,6.03,3.07,9.36,3.07c3.274,0,6.459-1.028,9.216-2.979c4.473,1.045,7.252,2.823,8.965,4.529
				c0.615-0.297,1.27-0.581,1.952-0.854c-1.939-2.152-5.263-4.498-10.915-5.728c-0.287-0.063-0.579,0.002-0.812,0.177
				c-2.493,1.868-5.391,2.855-8.381,2.855c-3.035,0-5.971-1.015-8.488-2.934c-0.228-0.173-0.518-0.244-0.798-0.186
				c-13.09,2.55-14.183,10.285-14.22,10.613c-0.006,0.038-0.059,0.077-0.059,0.115v10.534c0,0.553,0.55,1.395,1.103,1.395h29.249
				L32.031,67.549z"/>
			<path fill="#FFFFFF" d="M125.716,57.392c-0.038-0.328-1.055-8.063-14.145-10.613c-0.281-0.058-0.559,0.013-0.786,0.186
				c-2.519,1.919-5.449,2.934-8.484,2.934c-2.988,0-5.883-0.987-8.376-2.855c-0.233-0.175-0.525-0.24-0.811-0.177
				c-5.973,1.298-9.342,3.842-11.228,6.087c0.647,0.291,1.269,0.596,1.858,0.914c1.668-1.828,4.518-3.818,9.36-4.949
				c2.757,1.951,5.928,2.979,9.201,2.979c3.329,0,6.5-1.061,9.287-3.07c10.789,2.247,12.081,8.133,12.081,8.749v9.858H94.568
				c0.165,1,0.264,1,0.31,2h29.893c0.553,0,0.904-0.842,0.904-1.395V57.507C125.675,57.469,125.721,57.43,125.716,57.392z"/>
		</g>
		<path fill="none" stroke="#FFFFFF" stroke-width="2" stroke-linejoin="round" stroke-miterlimit="10" d="M88.711,79.526V69.474
			c0,0-0.496-9.447-14.738-12.546c-2.879,2.156-6.334,3.419-10.047,3.419c-3.77,0-7.272-1.298-10.177-3.512
			c-14.011,2.73-14.956,10.905-14.956,10.905v11.785H88.711z"/>
	</g>
</g>
<g id="Menu">
</g>
</svg>
