<?xml version="1.0" encoding="utf-8"?>
<!-- Generator: Adobe Illustrator 16.0.0, SVG Export Plug-In . SVG Version: 6.00 Build 0)  -->
<!DOCTYPE svg PUBLIC "-//W3C//DTD SVG 1.1//EN" "http://www.w3.org/Graphics/SVG/1.1/DTD/svg11.dtd">
<svg version="1.1" xmlns="http://www.w3.org/2000/svg" xmlns:xlink="http://www.w3.org/1999/xlink" x="0px" y="0px" width="125px"
	 height="31px" viewBox="0 0 125 31" enable-background="new 0 0 125 31" xml:space="preserve">
<g id="R" display="none">
</g>
<g id="FOndo">
</g>
<g id="Layer_3">
</g>
<g id="Layer_1">
</g>
<g id="Menu">
	<g>
		<g>
			<path fill="#D0D2D3" d="M9.756,11.768c-0.815,0.737-1.828,1.325-3.38,1.325c-3.026,0-4.163-2.814-4.163-5.462
				c0-2.618,1.291-5.207,4.179-5.207c1.321,0,2.242,0.332,3.071,0.843l-0.66,0.993c-0.66-0.466-1.428-0.707-2.335-0.707
				c-2.181,0-2.902,2.287-2.902,4.078c0,1.775,0.646,4.349,2.948,4.349c0.952,0,1.813-0.407,2.535-1.068L9.756,11.768z"/>
			<path fill="#D0D2D3" d="M12.747,2.68h1.306v10.231h-1.306V2.68z"/>
			<path fill="#D0D2D3" d="M17.768,2.68h1.29v6.801c0,2.332,1.321,2.542,2.519,2.542c1.751,0,2.352-0.963,2.352-2.016V2.68h1.289
				v7.223c0,1.956-1.505,3.19-3.686,3.19c-1.905,0-3.764-0.481-3.764-3.656V2.68z"/>
			<path fill="#D0D2D3" d="M28.931,2.68h3.041c0.691,0,4.393,0,4.393,5.116s-3.701,5.116-4.393,5.116h-3.041V2.68z M31.434,11.812
				c1.429,0,3.579-0.03,3.579-4.017c0-3.958-2.15-4.018-3.579-4.018H30.22v8.035H31.434z"/>
			<path fill="#D0D2D3" d="M45.729,12.911l-1.06-3.04h-3.824l-1.091,3.04h-1.351c1.228-3.416,2.563-7.117,3.716-10.247h1.443
				c1.106,3.13,2.396,6.832,3.579,10.247H45.729z M43.549,6.321c-0.354-1.054-0.553-1.761-0.722-2.273h-0.031
				c-0.153,0.512-0.368,1.219-0.736,2.273l-0.877,2.497c0.508-0.015,1.106-0.015,1.599-0.015c0.491,0,1.121,0,1.598,0.015
				L43.549,6.321z"/>
			<path fill="#D0D2D3" d="M49.98,2.68h3.042c0.691,0,4.393,0,4.393,5.116s-3.701,5.116-4.393,5.116H49.98V2.68z M52.484,11.812
				c1.429,0,3.579-0.03,3.579-4.017c0-3.958-2.15-4.018-3.579-4.018h-1.213v8.035H52.484z"/>
			<path fill="#D0D2D3" d="M66.78,12.911l-1.06-3.04h-3.824l-1.091,3.04h-1.353c1.23-3.416,2.566-7.117,3.718-10.247h1.444
				c1.105,3.13,2.396,6.832,3.578,10.247H66.78z M64.6,6.321c-0.354-1.054-0.554-1.761-0.723-2.273h-0.03
				c-0.153,0.512-0.368,1.219-0.737,2.273l-0.875,2.497c0.507-0.015,1.105-0.015,1.597-0.015s1.121,0,1.597,0.015L64.6,6.321z"/>
			<path fill="#D0D2D3" d="M71.031,2.68h1.489l3.702,6.199c0.338,0.558,0.736,1.31,1.029,2.032h0.046
				c-0.03-1.159-0.046-2.106-0.046-3.1V2.68h1.274v10.231h-1.443l-3.702-6.185c-0.354-0.586-0.675-1.249-1.09-2.121h-0.047
				c0.047,1.128,0.047,2.121,0.047,3.099l0.015,5.207h-1.274V2.68z"/>
			<path fill="#D0D2D3" d="M81.732,7.645c0-2.648,1.321-5.222,4.285-5.222s4.316,2.573,4.316,5.222c0,2.633-1.183,5.447-4.316,5.447
				C82.9,13.092,81.732,10.278,81.732,7.645z M88.967,7.645c0-1.806-0.722-4.123-2.949-4.123c-2.195,0-2.934,2.317-2.934,4.123
				c0,1.745,0.677,4.378,2.934,4.378C88.308,12.023,88.967,9.39,88.967,7.645z"/>
			<path fill="#D0D2D3" d="M3.556,18.118h1.279V28.35H3.556V18.118z"/>
			<path fill="#D0D2D3" d="M7.635,18.118h1.459l3.627,6.199c0.331,0.558,0.722,1.31,1.009,2.032h0.045
				c-0.03-1.159-0.045-2.106-0.045-3.1v-5.131h1.248V28.35h-1.414l-3.627-6.185c-0.346-0.586-0.662-1.249-1.067-2.122H8.823
				c0.046,1.129,0.046,2.122,0.046,3.1l0.015,5.207H7.635V18.118z"/>
			<path fill="#D0D2D3" d="M20.007,19.232c-1.534,0.03-3.084,0.03-3.234,0.03v-1.144h7.719v1.144c-0.15,0-1.67,0-3.22-0.03v9.118
				h-1.265V19.232z"/>
			<path fill="#D0D2D3" d="M26.315,18.118h5.974v1.159c-0.15,0-3.13,0-4.71-0.015c0,0.151,0,2.468-0.015,3.221
				c1.444-0.015,4.032-0.015,4.184-0.015v1.098c-0.151,0-2.739,0-4.184-0.015c0.015,1.61,0.015,3.506,0.015,3.656
				c1.641-0.015,4.71-0.015,4.86-0.015v1.159h-6.124V18.118z"/>
			<path fill="#D0D2D3" d="M34.655,18.118h1.263c0,0.15-0.015,7.644-0.029,9.104c1.64-0.03,4.153-0.03,4.303-0.03v1.159h-5.536
				V18.118z"/>
			<path fill="#D0D2D3" d="M42.016,18.118h1.278V28.35h-1.278V18.118z"/>
			<path fill="#D0D2D3" d="M50.519,28.471c-3.296,0-5.025-2.167-5.025-5.387c0-2.949,1.475-5.222,4.589-5.222
				c0.963,0,1.956,0.226,2.829,0.677l-0.526,1.039c-0.617-0.361-1.565-0.587-2.453-0.587c-2.272,0-3.114,1.851-3.114,4.093
				c0,2.498,1.083,4.318,3.775,4.318c0.482,0,0.919-0.03,1.295-0.211c0-0.12,0-1.609,0.03-3.641c-1.234,0.03-1.55,0.03-1.7,0.03
				v-1.113h2.934v5.583C52.534,28.305,51.526,28.471,50.519,28.471z"/>
			<path fill="#D0D2D3" d="M55.834,18.118h5.974v1.159c-0.15,0-3.131,0-4.71-0.015c0,0.151,0,2.468-0.015,3.221
				c1.444-0.015,4.032-0.015,4.184-0.015v1.098c-0.151,0-2.739,0-4.184-0.015c0.015,1.61,0.015,3.506,0.015,3.656
				c1.641-0.015,4.71-0.015,4.86-0.015v1.159h-6.124V18.118z"/>
			<path fill="#D0D2D3" d="M64.174,18.118h1.459l3.626,6.199c0.331,0.558,0.723,1.31,1.008,2.032h0.046
				c-0.031-1.159-0.046-2.106-0.046-3.1v-5.131h1.25V28.35h-1.415l-3.626-6.185c-0.346-0.586-0.662-1.249-1.069-2.122h-0.045
				c0.045,1.129,0.045,2.122,0.045,3.1l0.016,5.207h-1.248V18.118z"/>
			<path fill="#D0D2D3" d="M76.546,19.232c-1.535,0.03-3.085,0.03-3.235,0.03v-1.144h7.719v1.144c-0.149,0-1.67,0-3.22-0.03v9.118
				h-1.264V19.232z"/>
			<path fill="#D0D2D3" d="M82.854,18.118h5.974v1.159c-0.15,0-3.129,0-4.709-0.015c0,0.151,0,2.468-0.016,3.221
				c1.444-0.015,4.033-0.015,4.183-0.015v1.098c-0.149,0-2.738,0-4.183-0.015c0.016,1.61,0.016,3.506,0.016,3.656
				c1.64-0.015,4.709-0.015,4.859-0.015v1.159h-6.124V18.118z"/>
			<path fill="#78B9CB" d="M91.675,28.576c-0.707,0-1.234-0.542-1.234-1.234c0-0.677,0.527-1.234,1.234-1.234
				c0.691,0,1.234,0.557,1.234,1.234C92.909,28.035,92.366,28.576,91.675,28.576z"/>
			<path fill="#78B9CB" d="M94.701,23.054c0-2.814,1.323-5.267,4.408-5.267c3.1,0,4.439,2.453,4.439,5.267
				c0,2.648-1.175,5.492-4.439,5.492C95.875,28.546,94.701,25.702,94.701,23.054z M101.351,23.054c0-1.67-0.466-3.416-2.241-3.416
				c-1.73,0-2.212,1.745-2.212,3.416c0,1.64,0.437,3.701,2.212,3.701C100.93,26.755,101.351,24.694,101.351,23.054z"/>
			<path fill="#78B9CB" d="M105.824,18.043h3.491c0.708,0,3.582,0,3.582,2.98c0,1.639-0.918,2.347-1.731,2.678v0.045
				c0.678,0.21,1.099,1.159,1.265,1.73l0.873,2.874h-2.242l-0.798-2.844c-0.271-0.933-0.707-1.189-1.339-1.189
				c-0.105,0-0.482,0-1.038-0.015c0.015,1.64,0.045,3.912,0.045,4.047h-2.107V18.043z M107.901,22.632
				c0.526-0.015,1.204-0.015,1.309-0.015c0.512,0,1.671,0,1.671-1.384c0-1.369-1.159-1.369-1.671-1.369
				c-0.104,0-0.857,0-1.294-0.015C107.916,19.999,107.916,21.488,107.901,22.632z"/>
			<path fill="#78B9CB" d="M119.808,28.486c-3.205,0-4.92-2.182-4.92-5.432c0-2.964,1.534-5.267,4.769-5.267
				c0.993,0,2.002,0.241,2.904,0.708l-0.857,1.715c-0.512-0.315-1.309-0.511-2.031-0.511c-1.986,0-2.588,1.43-2.588,3.355
				c0,2.753,1.083,3.641,2.784,3.641c0.315,0,0.616-0.015,0.902-0.09c0-0.136,0-1.054,0.03-2.678
				c-0.979,0.015-1.174,0.015-1.324,0.015c0-0.03-0.015-1.686-0.015-1.7h3.325v5.657C122.064,28.335,120.846,28.486,119.808,28.486z
				"/>
		</g>
	</g>
</g>
</svg>
