<?xml version="1.0" encoding="UTF-8" standalone="no"?>
<svg width="71px" height="71px" viewBox="0 0 71 71" version="1.1" xmlns="http://www.w3.org/2000/svg" xmlns:xlink="http://www.w3.org/1999/xlink" xmlns:sketch="http://www.bohemiancoding.com/sketch/ns">
    <!-- Generator: Sketch 3.0.4 (8054) - http://www.bohemiancoding.com/sketch -->
    <title>Type something</title>
    <desc>Created with Sketch.</desc>
    <defs></defs>
    <g id="Page-1" stroke="none" stroke-width="1" fill="none" fill-rule="evenodd" sketch:type="MSPage">
        <path d="M22.96875,45.9375 C28.8021125,45.9375 33.9518006,43.9323117 38.4179688,39.921875 L43.3398438,44.84375 L40.0585938,48.125 L62.34375,70.4101562 L70.4101562,62.34375 L48.125,40.0585938 L44.84375,43.3398438 L39.921875,38.4179688 C43.9323117,33.9518006 45.9375,28.8021125 45.9375,22.96875 C45.9375,16.5885098 43.7044494,11.1653869 39.2382812,6.69921875 C34.7721131,2.23305059 29.3489902,0 22.96875,0 C16.5885098,0 11.1653869,2.23305059 6.69921875,6.69921875 C2.23305059,11.1653869 0,16.5885098 0,22.96875 C0,29.3489902 2.23305059,34.7721131 6.69921875,39.2382812 C11.1653869,43.7044494 16.5885098,45.9375 22.96875,45.9375 Z M67.4023438,62.34375 L62.34375,67.4023438 L43.0664062,48.125 L48.125,43.0664062 L67.4023438,62.34375 Z M22.96875,2.1875 C28.7109662,2.1875 33.6100058,4.21547451 37.6660156,8.27148438 C41.7220255,12.3274942 43.75,17.2265338 43.75,22.96875 C43.75,28.7109662 41.7220255,33.6100058 37.6660156,37.6660156 C33.6100058,41.7220255 28.7109662,43.75 22.96875,43.75 C17.2265338,43.75 12.3274942,41.7220255 8.27148438,37.6660156 C4.21547451,33.6100058 2.1875,28.7109662 2.1875,22.96875 C2.1875,17.2265338 4.21547451,12.3274942 8.27148438,8.27148438 C12.3274942,4.21547451 17.2265338,2.1875 22.96875,2.1875 Z" id="Type-something" fill="#FFFFFF" sketch:type="MSShapeGroup"></path>
    </g>
</svg>