<?xml version="1.0" encoding="UTF-8" standalone="no"?>
<svg width="43px" height="19px" viewBox="0 0 43 19" version="1.1" xmlns="http://www.w3.org/2000/svg" xmlns:xlink="http://www.w3.org/1999/xlink" xmlns:sketch="http://www.bohemiancoding.com/sketch/ns">
    <!-- Generator: Sketch 3.0.4 (8054) - http://www.bohemiancoding.com/sketch -->
    <title>Group</title>
    <desc>Created with Sketch.</desc>
    <defs></defs>
    <g id="Page-1" stroke="none" stroke-width="1" fill="none" fill-rule="evenodd" sketch:type="MSPage">
        <g id="Group" sketch:type="MSLayerGroup" transform="translate(1.000000, 0.000000)" fill="#77B5BF">
            <path d="M20.6884186,9.33917857 C18.9200397,9.33917857 17.3274419,7.08172108 17.3274419,4.62921429 C17.3274419,2.36939146 18.7519571,0.843803571 20.6884186,0.843803571 C22.6244326,0.843803571 24.0484186,2.3692899 24.0484186,4.62921429 C24.0484186,7.08183879 22.4563896,9.33917857 20.6884186,9.33917857 Z M20.6884186,0.165232143 C18.3882886,0.165232143 16.6762791,1.99871274 16.6762791,4.62921429 C16.6762791,7.41925241 18.5094749,10.01775 20.6884186,10.01775 C22.8670094,10.01775 24.6995814,7.41934411 24.6995814,4.62921429 C24.6995814,1.99865608 22.9881469,0.165232143 20.6884186,0.165232143 Z" id="Stroke-2" sketch:type="MSShapeGroup"></path>
            <path d="M8.54781395,9.33917857 C6.77943502,9.33917857 5.18683721,7.08172108 5.18683721,4.62921429 C5.18683721,2.36939146 6.61135245,0.843803571 8.54781395,0.843803571 C10.483828,0.843803571 11.907814,2.3692899 11.907814,4.62921429 C11.907814,7.08183879 10.3157849,9.33917857 8.54781395,9.33917857 Z M8.54781395,0.165232143 C6.24768399,0.165232143 4.53567442,1.99871274 4.53567442,4.62921429 C4.53567442,7.41925241 6.36887021,10.01775 8.54781395,10.01775 C10.7264048,10.01775 12.5589767,7.41934411 12.5589767,4.62921429 C12.5589767,1.99865608 10.8475422,0.165232143 8.54781395,0.165232143 Z" id="Stroke-2" sketch:type="MSShapeGroup"></path>
            <path d="M33.386093,9.33917857 C31.6177141,9.33917857 30.0251163,7.08172108 30.0251163,4.62921429 C30.0251163,2.36939146 31.4496315,0.843803571 33.386093,0.843803571 C35.3221071,0.843803571 36.746093,2.3692899 36.746093,4.62921429 C36.746093,7.08183879 35.154064,9.33917857 33.386093,9.33917857 Z M33.386093,0.165232143 C31.0859631,0.165232143 29.3739535,1.99871274 29.3739535,4.62921429 C29.3739535,7.41925241 31.2071493,10.01775 33.386093,10.01775 C35.5646838,10.01775 37.3972558,7.41934411 37.3972558,4.62921429 C37.3972558,1.99865608 35.6858213,0.165232143 33.386093,0.165232143 Z" id="Stroke-2" sketch:type="MSShapeGroup"></path>
            <path d="M30.0524585,11.2915491 L29.8627961,11.2238543 C30.8813379,12.0189928 32.0785485,12.4516161 33.3291163,12.4516161 C34.5983708,12.4516161 35.812262,12.0068041 36.8396295,11.1905735 L36.579965,11.2537819 C38.1660388,11.5758316 39.3192676,12.1412938 40.1090198,12.875367 C40.5444615,13.2801092 40.8407265,13.7095531 41.0250069,14.135568 C41.0881553,14.281553 41.1328858,14.4156364 41.162348,14.5340667 C41.1788573,14.6004294 41.1864201,14.6435821 41.1882002,14.6596304 L41.1860465,14.6206696 L41.1860465,18.6191518 L41.5116279,18.2798661 L28.6330396,18.2798663 C28.453226,18.2798663 28.3074582,18.4317696 28.3074582,18.619152 C28.3074582,18.8065343 28.453226,18.9584377 28.6330396,18.9584377 L41.5116279,18.9584375 C41.6914415,18.9584375 41.8372093,18.8065341 41.8372093,18.6191518 L41.8372093,14.6206696 L41.8350556,14.5817089 C41.817524,14.4236629 41.7547649,14.1713887 41.6186438,13.8567074 C41.3976955,13.3459244 41.0476818,12.8385703 40.5424602,12.3689679 C39.6616754,11.55028 38.4012576,10.9322598 36.7045001,10.587736 C36.6132552,10.5692089 36.5187621,10.5922106 36.4448356,10.6509443 C35.5287335,11.3787758 34.4527746,11.7730446 33.3291163,11.7730446 C32.2222314,11.7730446 31.1612495,11.3896489 30.2532039,10.6807707 C30.1983894,10.637979 30.1320212,10.6142907 30.0635415,10.6130759 C29.1762679,10.5973363 27.9832031,11.0199318 27.0571956,11.7289697 C26.912292,11.8399215 26.8811356,12.0522776 26.9876058,12.2032804 C27.094076,12.3542832 27.2978547,12.3867511 27.4427583,12.2757993 C28.2572795,11.6521257 29.3123208,11.2784195 30.0524585,11.2915491 Z" id="Stroke-5" sketch:type="MSShapeGroup"></path>
            <path d="M29.4238162,13.7225803 C29.3699058,13.6632352 29.3082686,13.5962323 29.2398582,13.5229019 C29.044602,13.3136031 28.8338142,13.0951003 28.6150312,12.8779717 C27.9813046,12.2490371 27.4110945,11.7587366 26.9516196,11.4856777 C26.4904176,11.2115923 26.0775568,11.0219668 25.6342508,10.8737872 C25.378049,10.7881492 25.1193821,10.7177405 24.762238,10.6326183 C24.6402896,10.603553 24.1614462,10.4927216 24.1995795,10.50161 C24.1067344,10.4799689 24.0094509,10.5017303 23.9333077,10.5611725 C23.0252621,11.2700507 21.9642802,11.6534464 20.8573953,11.6534464 C19.733737,11.6534464 18.6577781,11.2591776 17.741676,10.5313461 C17.6677496,10.4726124 17.5732565,10.4496106 17.4820115,10.4681378 C17.4464295,10.4753626 17.4250099,10.4796541 17.3670643,10.4911801 C15.9942132,10.7634916 15.5253579,10.8932999 14.7792456,11.3084346 C14.6756232,11.3660898 14.5737156,11.4272544 14.4734046,11.4921464 C14.3206337,11.590975 14.2736689,11.8001495 14.3685056,11.9593508 C14.4633424,12.118552 14.664068,12.1674937 14.8168389,12.0686651 C14.9050547,12.0115977 14.9947079,11.957788 15.0859389,11.9070274 C15.7533202,11.5356984 16.1821974,11.4169586 17.4888225,11.1577833 C17.5478832,11.1460357 17.5699621,11.1416121 17.6065466,11.1341837 L17.3468821,11.0709753 C18.3742496,11.8872058 19.5881409,12.3320179 20.8573953,12.3320179 C22.1079631,12.3320179 23.3051738,11.8993946 24.3237156,11.104256 L24.0574437,11.1638185 C24.0212665,11.155386 24.497455,11.265603 24.6170566,11.294109 C24.9576505,11.3752865 25.1999086,11.4412287 25.4353654,11.5199325 C25.8354993,11.6536814 26.2069231,11.824275 26.6290421,12.0751339 C27.0303619,12.3136322 27.5680476,12.7759663 28.1659606,13.3693581 C28.3782515,13.5800438 28.5832146,13.7925086 28.7729665,13.9959073 C28.8393091,14.0670212 28.8989567,14.1318613 28.9509356,14.1890801 C28.9818765,14.2231402 29.0032196,14.2469029 29.013995,14.2590239 C29.1361958,14.396485 29.3421923,14.4046861 29.474101,14.2773417 C29.6060098,14.1499972 29.6138797,13.93533 29.4916789,13.797869 C29.4793488,13.7839992 29.456409,13.7584587 29.4238162,13.7225803 Z M15.942503,18.8388395 C16.0745726,18.8388395 16.0745726,18.8388395 16.2726771,18.8388395 C16.7603189,18.8388395 16.7603189,18.8388395 17.4511448,18.8388395 C19.0766175,18.8388395 19.0766175,18.8388395 21.0271847,18.8388394 C22.9777518,18.8388394 22.9777518,18.8388394 24.6032245,18.8388394 C25.9036026,18.8388394 25.9036026,18.8388394 26.2286973,18.8388393 C26.408511,18.8388393 26.5542788,18.6869358 26.5542787,18.4995535 C26.5542785,18.0638731 26.5542785,18.0638731 26.5542784,17.6062184 C26.5542782,15.900905 26.5542782,15.900905 26.5542782,15.3324672 L26.0475848,15.6144136 L28.4889689,17.3174692 C28.638394,17.4217048 28.8406136,17.3799728 28.940639,17.2242581 C29.0406644,17.0685434 29.000618,16.857812 28.8511929,16.7535764 L26.4098088,15.0505208 C26.1934835,14.8996171 25.9031154,15.0611906 25.9031154,15.3324672 C25.9031154,15.900905 25.9031154,15.900905 25.9031156,17.6062185 C25.9031158,18.0638733 25.9031158,18.0638733 25.9031159,18.4995538 L26.2286973,18.1602679 C25.9036026,18.1602679 25.9036026,18.1602679 24.6032245,18.160268 C22.9777518,18.160268 22.9777518,18.160268 21.0271847,18.160268 C19.0766175,18.160268 19.0766175,18.160268 17.4511448,18.160268 C16.7603189,18.160268 16.7603189,18.160268 16.2726771,18.160268 C16.0745726,18.160268 16.0745726,18.160268 15.942503,18.160268 C15.8898021,18.160268 15.8898021,18.160268 15.8555148,18.160268 C15.6458585,18.160268 15.5000907,18.3121714 15.5000907,18.4995538 C15.5000907,18.6869361 15.6458585,18.8388395 15.8256721,18.8388395 C15.8898021,18.8388395 15.8898021,18.8388395 15.942503,18.8388395 Z" id="Stroke-6" sketch:type="MSShapeGroup"></path>
            <path d="M28.1822428,16.7951885 L27.8654498,16.2023352 L26.1119523,17.219861 L26.4287453,17.8127143 L28.1822428,16.7951885 Z" id="Path-31" sketch:type="MSShapeGroup"></path>
            <path d="M15.158987,16.7951885 L14.842194,16.2023352 L13.0886965,17.219861 L13.4054895,17.8127143 L15.158987,16.7951885 Z" id="Path-31" sketch:type="MSShapeGroup"></path>
            <path d="M16.8401198,13.7310695 C16.767381,13.6479422 16.6856093,13.5553899 16.5965895,13.455751 C16.3421347,13.1709421 16.0802833,12.8860657 15.8251194,12.6196602 C15.7489449,12.5401298 15.6743393,12.4632819 15.6015211,12.3894088 C15.2723806,12.0555003 14.9887872,11.7911714 14.7603744,11.6118152 C13.8557035,10.901442 12.6495259,10.4775363 11.7508771,10.4934777 C11.6823974,10.4946925 11.6160292,10.5183808 11.5612147,10.5611725 C10.6531691,11.2700507 9.59218721,11.6534464 8.48530233,11.6534464 C7.36164402,11.6534464 6.28568511,11.2591776 5.36958302,10.5313461 C5.29565653,10.4726124 5.20116344,10.4496106 5.10991851,10.4681378 C3.413161,10.8126616 2.15274324,11.4306818 1.27195836,12.2493696 C0.766736821,12.7189721 0.4167231,13.2263262 0.19577476,13.7371092 C0.0596537138,14.0517905 -0.00310536708,14.3040647 -0.0206369657,14.4621107 L-0.0227906977,14.5010714 L-0.0227906977,18.4995536 C-0.0227906977,18.6869359 0.122977056,18.8388393 0.302790693,18.8388393 L5.40754451,18.8388394 C7.81797553,18.8388394 7.81797553,18.8388394 10.2284066,18.8388394 C11.8353606,18.8388394 11.8353606,18.8388394 13.4423146,18.8388395 C13.6221282,18.8388395 13.767896,18.6869361 13.767896,18.4995538 L13.767896,15.2943609 L13.2578724,15.5739531 L15.7847847,17.384198 C15.9329621,17.4903503 16.1356612,17.451226 16.2375258,17.2968115 C16.3393904,17.142397 16.3018464,16.9311659 16.153669,16.8250137 L13.6267567,15.0147687 C13.4107321,14.8600117 13.1167332,15.0211803 13.1167332,15.2943609 L13.1167332,18.4995538 L13.4423146,18.160268 L10.2284066,18.160268 C7.81797554,18.160268 7.81797554,18.160268 5.40754452,18.1602679 L0.302790702,18.1602679 L0.628372093,18.4995536 L0.628372093,14.5010714 L0.626218361,14.5400322 C0.627998549,14.5239839 0.635561294,14.4808312 0.652070558,14.4144685 C0.681532844,14.2960382 0.726263283,14.1619548 0.789411705,14.0159698 C0.97369212,13.5899549 1.26995706,13.160511 1.70539882,12.7557687 C2.49515104,12.0216956 3.64837979,11.4562334 5.23445358,11.1341837 L4.97478907,11.0709753 C6.00215657,11.8872058 7.21604785,12.3320179 8.48530233,12.3320179 C9.73587013,12.3320179 10.9330807,11.8993946 11.9516225,11.104256 L11.7619601,11.1719509 C12.5128655,11.1586303 13.5778607,11.5329181 14.3685089,12.1537575 C14.5705081,12.3123729 14.83615,12.5599698 15.1473009,12.8756281 C15.2178142,12.9471629 15.2902104,13.0217351 15.3642444,13.0990307 C15.613512,13.35928 15.8703264,13.6386766 16.1200061,13.9181407 C16.2074335,14.0159973 16.2876891,14.1068336 16.3589623,14.1882859 C16.4015684,14.236977 16.4315955,14.2715835 16.4472383,14.2897468 C16.5673411,14.4292013 16.7731877,14.4407907 16.9070093,14.3156325 C17.040831,14.1904743 17.0519524,13.9759633 16.9318495,13.8365088 C16.9150942,13.8170538 16.8839209,13.7811262 16.8401198,13.7310695 Z" id="Stroke-7" sketch:type="MSShapeGroup"></path>
            <path d="M16.1514656,14.5777054 C16.061368,14.8713467 15.9718472,15.2265898 15.8886886,15.6450411 C15.8804942,15.6862751 15.8723924,15.7279857 15.8643869,15.7701739 C15.8270486,15.9669422 15.7895845,16.1838469 15.7521823,16.4176674 C15.6910656,16.7997387 15.6329745,17.2083164 15.5797414,17.6167852 C15.5611207,17.7596651 15.5444316,17.8923668 15.529911,18.0115293 C15.521175,18.0832204 15.5150863,18.134616 15.5118831,18.1623479 C15.4903946,18.3483874 15.6176979,18.5173553 15.796223,18.5397482 C15.974748,18.5621412 16.136891,18.4294795 16.1583795,18.24344 C16.1614187,18.2171269 16.1673349,18.1671881 16.1758864,18.0970112 C16.1901781,17.979727 16.206624,17.8489594 16.2249809,17.7081032 C16.2773979,17.3058973 16.3345675,16.9038004 16.3944824,16.529242 C16.4308753,16.3017314 16.4672073,16.0913815 16.5031801,15.9018089 C16.5108075,15.8616134 16.5185225,15.8218939 16.5263216,15.7826495 C16.6048472,15.3875113 16.6885594,15.055318 16.7716949,14.7843673 C16.8202062,14.6262619 16.8566136,14.5260458 16.875167,14.4820234 C16.9474737,14.3104586 16.8726268,14.1102944 16.7079918,14.0349442 C16.5433568,13.959594 16.3512776,14.0375913 16.2789709,14.2091561 C16.2513288,14.2747435 16.2068942,14.3970556 16.1514656,14.5777054 Z" id="Path-30" sketch:type="MSShapeGroup"></path>
            <path d="M28.84914,14.5777054 C28.7590425,14.8713467 28.6695217,15.2265898 28.5863631,15.6450411 C28.5781686,15.6862751 28.5700669,15.7279857 28.5620613,15.7701739 C28.509571,16.0467918 28.4572492,16.3846264 28.4054871,16.770959 C28.3544729,17.1517085 28.306696,17.5589082 28.2634507,17.9660038 C28.2483235,18.1084067 28.2348387,18.2406637 28.2231648,18.359423 C28.2161425,18.4308613 28.2112716,18.4820656 28.2087216,18.5096775 C28.1914962,18.696198 28.3226296,18.8619545 28.5016163,18.879905 C28.680603,18.8978555 28.8396643,18.7612024 28.8568897,18.5746818 C28.859316,18.5484092 28.8640561,18.4985801 28.8709379,18.4285716 C28.8824374,18.3115863 28.8957359,18.1811563 28.91066,18.0406656 C28.9532759,17.639494 29.0003334,17.2384263 29.0503941,16.8647929 C29.100601,16.490068 29.1510946,16.1640376 29.2008545,15.9018089 C29.2084819,15.8616134 29.216197,15.8218939 29.223996,15.7826495 C29.3025216,15.3875113 29.3862338,15.055318 29.4693693,14.7843673 C29.5178806,14.6262619 29.554288,14.5260458 29.5728414,14.4820234 C29.6451481,14.3104586 29.5703012,14.1102944 29.4056662,14.0349442 C29.2410312,13.959594 29.048952,14.0375913 28.9766453,14.2091561 C28.9490032,14.2747435 28.9045686,14.3970556 28.84914,14.5777054 Z" id="Path-30" sketch:type="MSShapeGroup"></path>
        </g>
    </g>
</svg>