<?xml version="1.0" encoding="UTF-8" standalone="no"?>
<svg width="70px" height="63px" viewBox="0 0 70 63" version="1.1" xmlns="http://www.w3.org/2000/svg" xmlns:xlink="http://www.w3.org/1999/xlink" xmlns:sketch="http://www.bohemiancoding.com/sketch/ns">
    <!-- Generator: Sketch 3.0.4 (8054) - http://www.bohemiancoding.com/sketch -->
    <title>W</title>
    <desc>Created with Sketch.</desc>
    <defs></defs>
    <g id="Page-1" stroke="none" stroke-width="1" fill="none" fill-rule="evenodd" sketch:type="MSPage">
        <path d="M52.5,0.375 C48.4895633,0.375 44.8893389,1.37759414 41.6992188,3.3828125 C38.5090986,5.38803086 36.276048,7.98566113 35,11.1757812 C33.723952,7.98566113 31.4909014,5.38803086 28.3007812,3.3828125 C25.1106611,1.37759414 21.5104367,0.375 17.5,0.375 C12.3046615,0.375 8.08920889,2.2434709 4.85351562,5.98046875 C1.61782236,9.7174666 0,14.0468504 0,18.96875 C0,28.3568178 5.78770254,38.2916143 17.3632812,48.7734375 C19.9153773,51.0520947 22.6041525,53.2395729 25.4296875,55.3359375 C28.2552225,57.4323021 30.4427006,58.9817658 31.9921875,59.984375 C33.5416744,60.9869842 34.3619787,61.4882812 34.453125,61.4882812 L35,61.7617188 L35.546875,61.4882812 C35.6380213,61.4882812 36.4583256,60.9869842 38.0078125,59.984375 C39.5572994,58.9817658 41.7447775,57.4323021 44.5703125,55.3359375 C47.3958475,53.2395729 50.0846227,51.0520947 52.6367188,48.7734375 C64.2122975,38.2916143 70,28.3568178 70,18.96875 C70,14.0468504 68.3821776,9.7174666 65.1464844,5.98046875 C61.9107911,2.2434709 57.6953385,0.375 52.5,0.375 Z M35,59.3007812 C33.2682205,58.2070258 31.5136808,57.0677143 29.7363281,55.8828125 C27.9589755,54.6979107 25.2702003,52.6015775 21.6699219,49.59375 C18.0696435,46.5859225 14.9707161,43.6464987 12.3730469,40.7753906 C9.77537764,37.9042825 7.4283959,34.4635617 5.33203125,30.453125 C3.2356666,26.4426883 2.1875,22.6146016 2.1875,18.96875 C2.1875,14.6848744 3.60024629,10.8795739 6.42578125,7.55273438 C9.25131621,4.22589482 12.9426855,2.5625 17.5,2.5625 C21.6927293,2.5625 25.4752436,3.88410137 28.8476562,6.52734375 C32.2200689,9.17058613 33.90625,12.5885207 33.90625,16.78125 L36.09375,16.78125 C36.09375,12.5885207 37.7799311,9.17058613 41.1523438,6.52734375 C44.5247564,3.88410137 48.3072707,2.5625 52.5,2.5625 C57.0573145,2.5625 60.7486838,4.22589482 63.5742188,7.55273438 C66.3997537,10.8795739 67.8125,14.6848744 67.8125,18.96875 C67.8125,22.6146016 66.7643334,26.4426883 64.6679688,30.453125 C62.5716041,34.4635617 60.2246224,37.9042825 57.6269531,40.7753906 C55.0292839,43.6464987 51.9303565,46.5859225 48.3300781,49.59375 C44.7297997,52.6015775 42.0410245,54.6979107 40.2636719,55.8828125 C38.4863192,57.0677143 36.7317795,58.2070258 35,59.3007812 Z" id="W" fill="#FFFFFF" sketch:type="MSShapeGroup"></path>
    </g>
</svg>