<?xml version="1.0" encoding="utf-8"?>
<!-- Generator: Adobe Illustrator 16.0.0, SVG Export Plug-In . SVG Version: 6.00 Build 0)  -->
<!DOCTYPE svg PUBLIC "-//W3C//DTD SVG 1.1//EN" "http://www.w3.org/Graphics/SVG/1.1/DTD/svg11.dtd">
<svg version="1.1" xmlns="http://www.w3.org/2000/svg" xmlns:xlink="http://www.w3.org/1999/xlink" x="0px" y="0px" width="56px"
	 height="53px" viewBox="0 0 56 53" enable-background="new 0 0 56 53" xml:space="preserve">
<g id="R" display="none">
</g>
<g id="FOndo">
</g>
<g id="Layer_3">
</g>
<g id="Layer_1">
</g>
<g id="Menu">
	<g>
		<g opacity="0.81">
			<path fill="#A3D7DD" d="M10.037,43.34c-0.876-0.552-1.138-1.717-0.586-2.589l0,0c0.551-0.875,1.707-1.135,2.58-0.578l0,0
				c0.872,0.558,1.138,1.719,0.583,2.597l0,0c-0.073,0.116-0.159,0.228-0.255,0.322l0,0C11.757,43.698,10.789,43.822,10.037,43.34z"
				/>
			<path fill="#A3D7DD" d="M4.65,35.261c-0.876-0.553-1.137-1.718-0.585-2.591l0,0c0.55-0.875,1.706-1.134,2.578-0.577l0,0
				c0.873,0.559,1.138,1.718,0.584,2.596l0,0c-0.072,0.118-0.159,0.227-0.254,0.322l0,0C6.368,35.619,5.402,35.743,4.65,35.261z"/>
			<path fill="#A3D7DD" d="M3.036,26.104c-0.878-0.554-1.14-1.718-0.588-2.593l0,0C3,22.639,4.154,22.38,5.029,22.937l0,0
				c0.873,0.558,1.137,1.719,0.581,2.596l0,0c-0.071,0.118-0.158,0.227-0.253,0.323l0,0C4.752,26.462,3.788,26.586,3.036,26.104z"/>
			<path fill="#A3D7DD" d="M4.65,16.408c-0.876-0.554-1.137-1.718-0.585-2.592l0,0c0.55-0.872,1.706-1.133,2.578-0.574l0,0
				c0.873,0.556,1.138,1.717,0.584,2.596l0,0c-0.072,0.117-0.159,0.226-0.254,0.321l0,0C6.368,16.767,5.402,16.888,4.65,16.408z"/>
			<path fill="#A3D7DD" d="M10.037,8.867C9.161,8.313,8.899,7.149,9.451,6.276l0,0c0.551-0.873,1.707-1.133,2.58-0.576l0,0
				c0.872,0.558,1.138,1.719,0.583,2.596l0,0c-0.073,0.116-0.159,0.228-0.255,0.322l0,0C11.757,9.225,10.789,9.348,10.037,8.867z"/>
			<path fill="#A3D7DD" d="M43.974,8.867c-0.878-0.553-1.138-1.718-0.588-2.591l0,0c0.552-0.873,1.708-1.133,2.581-0.576l0,0
				c0.872,0.558,1.136,1.719,0.581,2.596l0,0c-0.071,0.116-0.158,0.228-0.252,0.322l0,0C45.69,9.225,44.724,9.348,43.974,8.867z"/>
			<path fill="#A3D7DD" d="M49.36,16.946c-0.878-0.552-1.14-1.718-0.588-2.59l0,0c0.552-0.874,1.708-1.135,2.579-0.576l0,0
				c0.873,0.556,1.138,1.718,0.583,2.594l0,0c-0.071,0.119-0.159,0.229-0.253,0.324l0,0C51.076,17.306,50.112,17.428,49.36,16.946z"
				/>
			<path fill="#A3D7DD" d="M50.976,26.104c-0.878-0.554-1.139-1.718-0.587-2.593l0,0c0.552-0.873,1.708-1.131,2.58-0.575l0,0
				c0.871,0.558,1.137,1.719,0.582,2.596l0,0c-0.071,0.118-0.158,0.227-0.252,0.323l0,0C52.692,26.462,51.727,26.586,50.976,26.104z
				"/>
			<path fill="#A3D7DD" d="M49.36,35.261c-0.878-0.553-1.14-1.718-0.588-2.591l0,0c0.552-0.875,1.708-1.134,2.579-0.577l0,0
				c0.873,0.559,1.138,1.718,0.583,2.596l0,0c-0.071,0.118-0.159,0.227-0.253,0.322l0,0C51.076,35.619,50.112,35.743,49.36,35.261z"
				/>
			<path fill="#A3D7DD" d="M44.511,43.34c-0.875-0.552-1.137-1.717-0.585-2.589l0,0c0.552-0.875,1.706-1.135,2.579-0.578l0,0
				c0.872,0.558,1.137,1.719,0.581,2.597l0,0c-0.071,0.116-0.158,0.228-0.252,0.322l0,0C46.229,43.698,45.264,43.822,44.511,43.34z"
				/>
			<path fill="#A3D7DD" d="M36.434,48.728c-0.878-0.554-1.142-1.718-0.589-2.592l0,0c0.552-0.873,1.706-1.134,2.579-0.575l0,0
				c0.873,0.557,1.139,1.718,0.584,2.594l0,0c-0.073,0.118-0.159,0.229-0.254,0.321l0,0C38.149,49.085,37.183,49.209,36.434,48.728z
				"/>
			<path fill="#A3D7DD" d="M26.736,50.344c-0.876-0.554-1.138-1.719-0.586-2.592l0,0c0.551-0.874,1.706-1.134,2.579-0.575l0,0
				c0.872,0.556,1.138,1.718,0.583,2.594l0,0c-0.072,0.118-0.16,0.227-0.254,0.323l0,0C28.453,50.701,27.489,50.824,26.736,50.344z"
				/>
			<path fill="#A3D7DD" d="M17.579,48.728c-0.878-0.554-1.138-1.718-0.587-2.592l0,0c0.552-0.873,1.707-1.134,2.58-0.575l0,0
				c0.871,0.557,1.137,1.718,0.582,2.594l0,0c-0.072,0.118-0.159,0.229-0.254,0.321l0,0C19.297,49.085,18.331,49.209,17.579,48.728z
				"/>
		</g>
		<path fill="#F8BD3B" d="M14.82,38.425c-0.675-0.428-0.876-1.325-0.451-1.998l0,0c0.423-0.673,1.314-0.873,1.986-0.443l0,0
			c0.672,0.43,0.876,1.324,0.449,1.999l0,0c-0.055,0.09-0.121,0.177-0.194,0.248l0,0C16.146,38.7,15.398,38.794,14.82,38.425z"/>
		<path fill="#DA6250" d="M10.867,32.496c-0.675-0.427-0.875-1.323-0.45-1.995l0,0c0.424-0.674,1.313-0.874,1.986-0.444l0,0
			c0.672,0.428,0.876,1.323,0.449,2l0,0c-0.057,0.091-0.122,0.174-0.194,0.249l0,0C12.191,32.772,11.446,32.865,10.867,32.496z"/>
		<path fill="#AF2C58" d="M9.683,25.778c-0.675-0.427-0.876-1.325-0.452-1.998l0,0c0.425-0.673,1.314-0.873,1.988-0.443l0,0
			c0.671,0.43,0.874,1.323,0.447,2l0,0c-0.056,0.09-0.121,0.175-0.194,0.25l0,0C11.005,26.053,10.262,26.147,9.683,25.778z"/>
		<path fill="#77B5BF" d="M10.867,18.663c-0.675-0.427-0.875-1.324-0.45-1.995l0,0c0.424-0.674,1.313-0.875,1.986-0.445l0,0
			c0.672,0.43,0.876,1.325,0.449,2l0,0c-0.057,0.09-0.122,0.176-0.194,0.248l0,0C12.191,18.938,11.446,19.033,10.867,18.663z"/>
		<path fill="#77B5BF" d="M14.82,13.129c-0.675-0.427-0.876-1.324-0.451-1.995l0,0c0.423-0.674,1.314-0.875,1.986-0.446l0,0
			c0.672,0.431,0.876,1.326,0.449,2l0,0c-0.055,0.091-0.121,0.176-0.194,0.248l0,0C16.146,13.406,15.398,13.5,14.82,13.129z"/>
		<path fill="#F8BD3B" d="M39.721,13.129c-0.677-0.427-0.877-1.324-0.453-1.995l0,0c0.425-0.674,1.314-0.875,1.987-0.446l0,0
			c0.672,0.431,0.876,1.326,0.45,2l0,0c-0.056,0.091-0.122,0.176-0.197,0.248l0,0C41.043,13.406,40.299,13.5,39.721,13.129z"/>
		<path fill="#DA6250" d="M43.673,19.057c-0.675-0.427-0.878-1.323-0.452-1.996l0,0c0.424-0.673,1.314-0.872,1.987-0.443l0,0
			c0.672,0.43,0.875,1.324,0.449,2l0,0c-0.057,0.091-0.122,0.174-0.197,0.249l0,0C44.995,19.333,44.252,19.428,43.673,19.057z"/>
		<path fill="#AF2C58" d="M44.858,25.778c-0.676-0.427-0.877-1.325-0.453-1.998l0,0c0.425-0.673,1.314-0.873,1.987-0.443l0,0
			c0.674,0.43,0.877,1.323,0.45,2l0,0c-0.057,0.09-0.123,0.175-0.196,0.25l0,0C46.18,26.053,45.437,26.147,44.858,25.778z"/>
		<path fill="#77B5BF" d="M43.673,32.496c-0.675-0.427-0.878-1.323-0.452-1.995l0,0c0.424-0.674,1.314-0.874,1.987-0.444l0,0
			c0.672,0.428,0.875,1.324,0.449,2l0,0c-0.057,0.09-0.122,0.173-0.197,0.248l0,0C44.995,32.772,44.252,32.865,43.673,32.496z"/>
		<path fill="#77B5BF" d="M40.115,38.425c-0.677-0.428-0.876-1.325-0.451-1.998l0,0c0.425-0.673,1.313-0.873,1.986-0.443l0,0
			c0.673,0.43,0.876,1.324,0.447,1.999l0,0c-0.054,0.09-0.119,0.177-0.193,0.248l0,0C41.438,38.7,40.695,38.794,40.115,38.425z"/>
		<path fill="#77B5BF" d="M34.188,42.377c-0.677-0.428-0.878-1.325-0.453-1.999l0,0c0.425-0.67,1.314-0.872,1.986-0.442l0,0
			c0.674,0.428,0.878,1.325,0.449,2.001l0,0c-0.055,0.088-0.12,0.173-0.195,0.248l0,0C35.511,42.652,34.766,42.748,34.188,42.377z"
			/>
		<path fill="#77B5BF" d="M27.071,43.562c-0.673-0.427-0.875-1.324-0.451-1.997l0,0c0.425-0.673,1.315-0.874,1.987-0.444l0,0
			c0.672,0.432,0.877,1.325,0.448,2.001l0,0c-0.054,0.09-0.121,0.176-0.194,0.247l0,0C28.395,43.838,27.65,43.932,27.071,43.562z"/>
		<path fill="#77B5BF" d="M20.354,42.377c-0.676-0.428-0.876-1.325-0.453-1.999l0,0c0.426-0.67,1.316-0.872,1.988-0.442l0,0
			c0.672,0.428,0.878,1.325,0.448,2.001l0,0c-0.056,0.088-0.12,0.173-0.194,0.248l0,0C21.677,42.652,20.934,42.748,20.354,42.377z"
			/>
		<g>
			<g>
				<g>
					<g>
						<path fill="#D0D2D3" d="M21.533,26.323c0.331,0,0.644,0.203,0.764,0.531c0.129,0.348,0.288,0.683,0.479,0.997
							c1.082,1.813,2.991,2.895,5.101,2.895c0.452,0,0.814,0.361,0.814,0.812c-0.001,0.448-0.362,0.811-0.814,0.811
							c-2.646,0-5.136-1.41-6.496-3.68c-0.239-0.401-0.446-0.828-0.605-1.273c-0.156-0.42,0.059-0.886,0.479-1.042
							C21.345,26.338,21.439,26.323,21.533,26.323z"/>
					</g>
				</g>
				<circle fill="#D0D2D3" cx="21.063" cy="24.792" r="0.821"/>
				<g>
					<path fill="#D0D2D3" d="M36.762,19.015l-0.417-0.621h-0.013c-0.403-0.587-0.825-1.116-1.235-1.629l-1.076,0.858
						c0.441,0.555,0.901,1.129,1.317,1.757l0.264,0.39h0.01c0.97,1.475,1.478,3.202,1.478,5.032
						c-0.003,5.053-4.111,9.165-9.165,9.177c-5.051-0.012-9.159-4.124-9.158-9.177c0-1.83,0.514-3.557,1.483-5.032h0.013l0.259-0.39
						c0.42-0.631,0.88-1.208,1.329-1.768c1.141-1.433,2.221-2.786,2.221-4.597c0-0.027,0-0.533,0-0.598
						c0.022-1.155,0.477-1.581,1.681-1.581h2.297h2.065c1.205,0,1.66,0.426,1.679,1.564v0.612c0,1.813,1.08,3.167,2.222,4.602
						c0.004,0.002,0.005,0.005,0.007,0.008l1.066-0.872c-1.071-1.345-1.918-2.408-1.918-3.738V12.38
						c-0.031-1.884-1.116-2.92-3.056-2.92h-4.362c-2.481,0-3.031,1.595-3.058,2.934v0.623c0,1.327-0.888,2.442-1.917,3.734
						c-0.45,0.56-0.859,1.076-1.251,1.643h-0.02l-0.408,0.621c-1.117,1.698-1.708,3.7-1.708,5.786
						c-0.002,5.807,4.722,10.542,10.531,10.556h0.003h0.004c5.809-0.013,10.536-4.748,10.538-10.554
						C38.466,22.712,37.876,20.711,36.762,19.015z"/>
				</g>
				<path fill="#D0D2D3" d="M31.563,5.667l-7.118,0.001c-0.343,0-0.622,0.359-0.622,0.801c0,0.445,0.279,0.806,0.622,0.806h7.116
					c0.345,0,0.625-0.362,0.625-0.806C32.187,6.027,31.906,5.667,31.563,5.667z"/>
				<path fill="#D0D2D3" d="M31.563,2.361h-7.118c-0.343,0-0.622,0.36-0.622,0.802c0,0.445,0.279,0.806,0.622,0.806l7.116-0.001
					c0.345,0,0.625-0.36,0.625-0.805C32.187,2.721,31.906,2.361,31.563,2.361z"/>
			</g>
		</g>
	</g>
</g>
</svg>
